<?xml version="1.0" standalone="no"?>
<!DOCTYPE svg PUBLIC "-//W3C//DTD SVG 1.1//EN" "http://www.w3.org/Graphics/SVG/1.1/DTD/svg11.dtd" >
<svg xmlns="http://www.w3.org/2000/svg" xmlns:xlink="http://www.w3.org/1999/xlink" version="1.1">
<metadata>
Created by FontForge 20150504 at Fri Jul 24 10:51:54 2015
 By Jimmy Wärting
Copyright(c) Baiduer.com.cn.2008 &#38; Founder Corporation.1998
</metadata>
<defs>
<font id="BDZYJT--GB1-0" horiz-adv-x="256" vert-adv-y="256" >
  <font-face 
    font-family="BDZongYi-A001"
    font-weight="400"
    font-stretch="semi-condensed"
    units-per-em="256"
    panose-1="2 1 6 1 3 1 1 1 1 1"
    ascent="204"
    descent="-52"
    x-height="109"
    cap-height="179"
    bbox="-3 -54 256.083 229"
    underline-thickness="12"
    underline-position="-56"
    unicode-range="U+0020-FFE5"
  />
<missing-glyph 
 />
    <glyph glyph-name=".notdef" 
 />
    <glyph glyph-name="space" unicode=" " horiz-adv-x="71" 
 />
    <glyph glyph-name="exclam" unicode="!" horiz-adv-x="85" 
d="M56 158l-7 -133h-15l-6 133h28zM55 -15h-26v26h26v-26z" />
    <glyph glyph-name="quotedbl" unicode="&#x22;" horiz-adv-x="76" 
d="M67 163l-3 -54h-18l-4 54h25zM34 163l-4 -54h-17l-4 54h25z" />
    <glyph glyph-name="numbersign" unicode="#" horiz-adv-x="175" 
d="M153 119l-3 -22h-22l-6 -46h19l-3 -22h-20l-5 -38h-22l6 38h-33l-6 -38h-22l6 38h-21l3 22h21l7 46h-19l3 22h19l6 39h21l-5 -39h33l6 39h21l-6 -39h22zM107 97h-33l-7 -46h33z" />
    <glyph glyph-name="dollar" unicode="$" horiz-adv-x="175" 
d="M161 43q0 -53 -57 -53h-6v-17h-22v17h-59v22h59v56h-7q-23 0 -38 11q-18 12 -18 35q0 24 19 36q15 8 34 8h10v17h22v-17h56v-21h-56v-47h8q22 0 36 -10q19 -12 19 -37zM76 90v47h-10q-32 0 -32 -23q0 -11 9 -18q9 -6 26 -6h7zM139 43q0 25 -33 25h-8v-56h6q17 0 25 5
q10 7 10 26z" />
    <glyph glyph-name="percent" unicode="%" horiz-adv-x="195" 
d="M187 30q0 -19 -10 -31q-10 -14 -28 -14q-17 0 -28 14q-9 12 -9 31q0 17 9 30q11 14 28 14q18 0 28 -14q10 -13 10 -30zM151 153l-89 -168l-19 10l89 168zM82 119q0 -18 -10 -31q-10 -14 -28 -14q-17 0 -27 14q-10 13 -10 31t10 30q10 14 27 14q18 0 28 -14q10 -12 10 -30
zM168 30q0 10 -5 17q-5 8 -14 8t-13 -8q-5 -7 -5 -17q0 -11 4 -18q5 -8 14 -8t14 8q5 7 5 18zM63 119q0 10 -5 17q-5 8 -14 8t-14 -8q-4 -7 -4 -17t5 -18q4 -8 13 -8t14 8t5 18z" />
    <glyph glyph-name="ampersand" unicode="&#x26;" horiz-adv-x="173" 
d="M168 -7h-30l-16 18q-22 -20 -48 -20q-25 0 -41 12q-18 13 -18 37q0 16 11 29q7 9 24 21q-18 20 -18 36q0 15 12 24q10 9 26 9q15 0 26 -8q12 -9 12 -24q0 -20 -26 -41l37 -40q8 18 8 54h21q0 -44 -13 -71zM87 123q0 7 -6 11q-5 4 -10 4q-17 0 -17 -15q0 -5 14 -21
q19 13 19 21zM108 27l-44 47q-27 -18 -27 -33q0 -14 11 -22q10 -8 25 -8q19 0 35 16z" />
    <glyph glyph-name="quotesingle" unicode="'" horiz-adv-x="43" 
d="M34 163l-4 -54h-17l-4 54h25z" />
    <glyph glyph-name="parenleft" unicode="(" horiz-adv-x="66" 
d="M61 -31h-22q-15 21 -23 50q-8 27 -8 56q0 28 8 56t23 49h22q-15 -21 -23 -49q-9 -28 -9 -56q0 -29 8 -56q9 -29 24 -50z" />
    <glyph glyph-name="parenright" unicode=")" horiz-adv-x="66" 
d="M61 75q0 -29 -8 -56q-9 -29 -24 -50h-21q15 21 23 50q8 27 8 56q0 28 -8 56t-23 49h21q15 -21 23 -49q9 -28 9 -56z" />
    <glyph glyph-name="asterisk" unicode="*" horiz-adv-x="130" 
d="M122 88l-12 -21l-37 25l3 -41h-24l3 41l-36 -26l-12 22l39 19l-39 20l11 21l37 -25l-3 40h24l-3 -40l37 25l11 -22l-39 -19z" />
    <glyph glyph-name="plus" unicode="+" horiz-adv-x="134" 
d="M126 39h-49v-49h-22v49h-48v21h48v49h22v-49h49v-21z" />
    <glyph glyph-name="comma" unicode="," horiz-adv-x="87" 
d="M58 -9q0 -13 -6 -22q-6 -8 -19 -17l-8 14q15 7 18 19h-15v30h30v-24z" />
    <glyph glyph-name="hyphen" unicode="-" horiz-adv-x="85" 
d="M74 39h-64v21h64v-21z" />
    <glyph glyph-name="period" unicode="." horiz-adv-x="87" 
d="M58 -15h-30v30h30v-30z" />
    <glyph glyph-name="slash" unicode="/" horiz-adv-x="71" 
d="M69 176l-46 -208l-21 5l47 208z" />
    <glyph glyph-name="zero" unicode="0" horiz-adv-x="175" 
d="M168 74q0 -37 -23 -63q-24 -26 -57 -26q-34 0 -57 26q-24 26 -24 63t24 63q23 26 57 26q33 0 57 -26q23 -26 23 -63zM145 74q0 27 -17 46q-17 20 -40 20t-40 -20q-17 -19 -17 -46t17 -46t40 -19t40 19t17 46z" />
    <glyph glyph-name="one" unicode="1" horiz-adv-x="175" 
d="M99 -10h-24v168h24v-168z" />
    <glyph glyph-name="two" unicode="2" horiz-adv-x="175" 
d="M159 114q0 -25 -17 -37q-14 -11 -38 -11h-35q-16 0 -22 -5q-6 -6 -6 -23v-24h116v-24h-140v48q0 52 52 52h35q31 0 31 24q0 8 -8 14t-20 6h-88v24h88q19 0 34 -10q18 -13 18 -34z" />
    <glyph glyph-name="three" unicode="3" horiz-adv-x="175" 
d="M157 39q0 -24 -17 -37q-15 -12 -37 -12h-81v24h80q30 0 30 25q0 26 -33 26h-76v24h79q29 0 29 24q0 21 -28 21h-84v24h84q19 0 32 -8q20 -11 20 -37q0 -25 -16 -37q18 -11 18 -37z" />
    <glyph glyph-name="four" unicode="4" horiz-adv-x="175" 
d="M170 24h-28v-34h-24v34h-113v20l101 114h36v-110h28v-24zM118 48v88l-77 -88h77z" />
    <glyph glyph-name="five" unicode="5" horiz-adv-x="175" 
d="M159 43q0 -25 -19 -40q-18 -13 -47 -13h-75v24h75q21 0 33 9q10 8 10 20q0 19 -15 26q-11 6 -32 6h-73v83h136v-24h-112v-36h49q70 0 70 -55z" />
    <glyph glyph-name="six" unicode="6" horiz-adv-x="175" 
d="M163 43q0 -25 -21 -42q-21 -16 -53 -16q-34 0 -54 20q-24 25 -24 75q0 31 20 54q21 24 52 24h69v-24h-69q-17 0 -30 -12t-16 -30h67q29 0 42 -10q17 -11 17 -39zM139 43q0 14 -7 20q-7 5 -28 5h-68q4 -59 53 -59q24 0 38 11q12 10 12 23z" />
    <glyph glyph-name="seven" unicode="7" horiz-adv-x="175" 
d="M161 137l-96 -147h-28l94 144h-118v24h148v-21z" />
    <glyph glyph-name="eight" unicode="8" horiz-adv-x="175" 
d="M167 38q0 -28 -26 -42q-21 -11 -54 -11t-54 11q-26 14 -26 42q0 26 21 39q-21 12 -21 39t27 39q20 8 50 8t50 -8q27 -12 27 -39q0 -25 -18 -37q24 -13 24 -41zM137 116q0 14 -20 21q-14 3 -33 3q-20 0 -33 -3q-21 -7 -21 -21q0 -15 21 -22q14 -4 33 -4t33 4q20 7 20 22z
M142 39q0 29 -55 29t-55 -29q0 -17 21 -25q15 -6 34 -6t33 6q22 8 22 25z" />
    <glyph glyph-name="nine" unicode="9" horiz-adv-x="175" 
d="M163 83q0 -51 -22 -73q-19 -20 -59 -20h-59v24h59q27 0 41 11q11 10 15 31h-68q-30 0 -45 14q-14 12 -14 35q0 20 17 38q20 20 50 20q38 0 58 -14q27 -20 27 -66zM139 83q0 34 -17 47q-13 10 -44 10q-21 0 -33 -13q-11 -11 -11 -22q0 -12 7 -18q8 -7 29 -7h69v3z" />
    <glyph glyph-name="colon" unicode=":" horiz-adv-x="87" 
d="M58 50h-30v30h30v-30zM58 -15h-30v30h30v-30z" />
    <glyph glyph-name="semicolon" unicode=";" horiz-adv-x="87" 
d="M58 50h-30v30h30v-30zM58 -9q0 -13 -6 -22q-6 -8 -19 -17l-8 14q15 7 18 19h-15v30h30v-24z" />
    <glyph glyph-name="less" unicode="&#x3c;" horiz-adv-x="134" 
d="M113 9l-12 -18l-80 54v10l80 53l12 -18l-60 -40z" />
    <glyph glyph-name="equal" unicode="=" horiz-adv-x="134" 
d="M126 60h-119v22h119v-22zM126 18h-119v21h119v-21z" />
    <glyph glyph-name="greater" unicode="&#x3e;" horiz-adv-x="134" 
d="M113 45l-80 -54l-12 18l60 41l-60 40l12 18l80 -53v-10z" />
    <glyph glyph-name="question" unicode="?" horiz-adv-x="104" 
d="M95 112q0 -14 -8 -25q-4 -6 -19 -20l-11 -11q-7 -7 -8 -12q-1 -3 -1 -10v-9h-22v16q0 12 16 29l24 24q7 9 7 18q0 24 -36 24q-12 0 -30 -5v22q16 5 34 5q23 0 38 -11q16 -12 16 -35zM50 -15h-26v26h26v-26z" />
    <glyph glyph-name="at" unicode="@" horiz-adv-x="183" 
d="M175 32q-4 -7 -10 -15q-27 -32 -70 -32q-38 0 -63 26t-25 64q0 36 25 62q26 26 62 26q33 0 57 -20q24 -22 24 -55q0 -13 -5 -26q-7 -17 -20 -29q-15 -14 -31 -14q-13 0 -18 9q-12 -9 -28 -9q-15 0 -24 12q-8 10 -8 26q0 26 15 48q17 24 42 24q14 0 24 -12l2 7h19
q-17 21 -48 21q-29 0 -49 -21q-19 -22 -19 -51t19 -49q20 -21 49 -21q28 0 51 21q5 4 7 8h22zM155 89q0 19 -11 33l-24 -71q-2 -6 -2 -9q0 -4 4 -4q10 0 19 12q8 10 11 21q3 9 3 18zM111 95q0 5 -4 11q-4 5 -9 5q-14 0 -25 -20q-10 -17 -10 -33q0 -21 14 -21q12 0 24 23
q10 20 10 35z" />
    <glyph glyph-name="A" unicode="A" horiz-adv-x="197" 
d="M189 -10h-26l-18 40h-96l-16 -40h-26l70 168h18q13 0 20 -6q6 -5 12 -19zM135 54l-32 74q-3 7 -8 7h-2l-34 -81h76z" />
    <glyph glyph-name="B" unicode="B" horiz-adv-x="167" 
d="M158 41q0 -27 -20 -41q-16 -10 -38 -10h-93v168h97q20 0 34 -10q15 -12 15 -34q0 -21 -14 -34q19 -14 19 -39zM129 114q0 20 -25 20h-73v-45h64q34 0 34 25zM135 41q0 12 -9 19q-7 6 -17 6h-78v-52h69q35 0 35 27z" />
    <glyph glyph-name="C" unicode="C" horiz-adv-x="157" 
d="M149 -10h-63q-79 0 -79 84t79 84h63v-24h-63q-25 0 -37 -9q-19 -14 -19 -51t19 -50q12 -10 37 -10h63v-24z" />
    <glyph glyph-name="D" unicode="D" horiz-adv-x="172" 
d="M163 74q0 -84 -79 -84h-77v168h77q79 0 79 -84zM140 74q0 37 -18 51q-12 9 -38 9h-53v-120h53q25 0 38 10q18 13 18 50z" />
    <glyph glyph-name="E" unicode="E" horiz-adv-x="146" 
d="M137 -10h-63q-37 0 -52 16q-15 17 -15 56v96h130v-24h-107v-46h101v-23h-101v-3q0 -28 10 -38q9 -10 34 -10h63v-24z" />
    <glyph glyph-name="F" unicode="F" horiz-adv-x="146" 
d="M138 134h-108v-42h99v-24h-99v-78h-23v168h131v-24z" />
    <glyph glyph-name="G" unicode="G" horiz-adv-x="162" 
d="M154 -10h-68q-34 0 -52 13q-27 19 -27 71t27 72q18 12 52 12h67v-24h-67q-26 0 -37 -7q-18 -14 -18 -53t18 -52q11 -8 37 -8h44v25q0 14 -5 20q-5 5 -18 5h-30v23h30q47 0 47 -48v-49z" />
    <glyph glyph-name="H" unicode="H" horiz-adv-x="169" 
d="M161 -10h-24v74h-99v-74h-24v168h24v-70h99v70h24v-168z" />
    <glyph glyph-name="I" unicode="I" horiz-adv-x="70" 
d="M47 -10h-24v168h24v-168z" />
    <glyph glyph-name="J" unicode="J" horiz-adv-x="119" 
d="M105 51q0 -61 -63 -61h-40v24h40q40 0 40 39v105h23v-107z" />
    <glyph glyph-name="K" unicode="K" horiz-adv-x="156" 
d="M147 -10h-34l-83 79v-79h-23v168h23v-77l79 77h34l-84 -82z" />
    <glyph glyph-name="L" unicode="L" horiz-adv-x="144" 
d="M136 -10h-65q-34 0 -50 17q-14 15 -14 46v105h23v-102q0 -22 9 -31q9 -11 32 -11h65v-24z" />
    <glyph glyph-name="M" unicode="M" horiz-adv-x="197" 
d="M189 -10h-24v135l-58 -135h-19l-57 135v-135h-24v168h35l56 -130l55 130h36v-168z" />
    <glyph glyph-name="N" unicode="N" horiz-adv-x="155" 
d="M147 -10h-23l-93 135v-135h-24v168h27l90 -128v128h23v-168z" />
    <glyph glyph-name="O" unicode="O" horiz-adv-x="176" 
d="M168 74q0 -37 -24 -63q-23 -26 -57 -26q-33 0 -57 26q-23 26 -23 63t23 63q24 26 57 26q34 0 57 -26q24 -26 24 -63zM144 74q0 27 -16 46q-17 20 -40 20q-24 0 -41 -20q-17 -19 -17 -46t17 -46t41 -19q23 0 40 19q16 19 16 46z" />
    <glyph glyph-name="P" unicode="P" horiz-adv-x="150" 
d="M142 105q0 -28 -22 -43q-16 -10 -35 -10h-55v-62h-23v168h78q19 0 35 -10q22 -15 22 -43zM119 105q0 15 -12 23q-9 6 -22 6h-55v-58h55q13 0 22 6q12 8 12 23z" />
    <glyph glyph-name="Q" unicode="Q" horiz-adv-x="176" 
d="M168 74q0 -39 -26 -65h22v-24h-77q-33 0 -57 26q-23 26 -23 63t23 63q24 26 57 26q34 0 57 -26q24 -26 24 -63zM144 74q0 27 -16 46q-17 20 -40 20q-24 0 -41 -20q-17 -19 -17 -46t17 -46t41 -19q23 0 40 19q16 19 16 46z" />
    <glyph glyph-name="R" unicode="R" horiz-adv-x="161" 
d="M153 -10h-26l-31 69h-66v-69h-23v168h88q21 0 35 -9q21 -13 21 -41q0 -33 -31 -45zM128 108q0 26 -33 26h-65v-52h65q33 0 33 26z" />
    <glyph glyph-name="S" unicode="S" horiz-adv-x="163" 
d="M155 43q0 -53 -58 -53h-86v24h86q17 0 25 5q9 7 9 24q0 24 -31 24h-36q-23 0 -39 11q-18 12 -18 35q0 25 20 37q14 8 34 8h87v-24h-87q-30 0 -30 -21q0 -10 8 -16q9 -6 25 -6h36q21 0 36 -10q19 -13 19 -38z" />
    <glyph glyph-name="T" unicode="T" horiz-adv-x="168" 
d="M160 134h-65v-144h-23v144h-65v24h153v-24z" />
    <glyph glyph-name="U" unicode="U" horiz-adv-x="159" 
d="M151 61q0 -45 -27 -64q-18 -12 -45 -12t-45 12q-27 19 -27 64v97h23v-97q0 -53 49 -53t49 53v97h23v-97z" />
    <glyph glyph-name="V" unicode="V" horiz-adv-x="188" 
d="M180 158l-74 -168h-25l-74 168h26l61 -137l60 137h26z" />
    <glyph glyph-name="W" unicode="W" horiz-adv-x="231" 
d="M222 158l-45 -168h-26l-36 134l-37 -134h-26l-45 168h24l34 -125l34 125h31l34 -125l34 125h24z" />
    <glyph glyph-name="X" unicode="X" horiz-adv-x="185" 
d="M177 -10h-30l-55 71l-55 -71h-30l70 90l-61 78h30l46 -59l46 59h30l-61 -78z" />
    <glyph glyph-name="Y" unicode="Y" horiz-adv-x="181" 
d="M173 158l-71 -101v-67h-24v67l-71 101h29l54 -77l54 77h29z" />
    <glyph glyph-name="Z" unicode="Z" horiz-adv-x="161" 
d="M153 -10h-145v24l112 120h-113v24h145v-25l-111 -119h112v-24z" />
    <glyph glyph-name="bracketleft" unicode="[" horiz-adv-x="80" 
d="M70 -31h-60v211h60v-21h-38v-168h38v-22z" />
    <glyph glyph-name="backslash" unicode="\" horiz-adv-x="71" 
d="M69 -27l-20 -5l-47 208l21 5z" />
    <glyph glyph-name="bracketright" unicode="]" horiz-adv-x="80" 
d="M70 -31h-60v22h39v168h-39v21h60v-211z" />
    <glyph glyph-name="asciicircum" unicode="^" horiz-adv-x="120" 
d="M29 86h-23l44 100h18l44 -100h-22l-31 75z" />
    <glyph glyph-name="underscore" unicode="_" horiz-adv-x="142" 
d="M-3 -51v16h149v-16h-149z" />
    <glyph glyph-name="grave" unicode="`" horiz-adv-x="85" 
d="M58 149h-18l-29 35h30z" />
    <glyph glyph-name="a" unicode="a" horiz-adv-x="128" 
d="M121 -10h-75q-13 0 -24 7q-16 10 -16 31q0 20 16 31q11 7 24 7h51q-3 20 -31 20h-58v24h58q27 0 41 -14t14 -38v-68zM98 13v29h-52q-7 0 -12 -3q-5 -4 -5 -11t5 -11t12 -4h52z" />
    <glyph glyph-name="b" unicode="b" horiz-adv-x="129" 
d="M122 50q0 -28 -18 -45q-16 -15 -38 -15h-60v168h23v-49h37q22 0 38 -14q18 -17 18 -45zM98 50q0 18 -11 28q-9 8 -21 8h-37v-72h37q12 0 21 8q11 10 11 28z" />
    <glyph glyph-name="c" unicode="c" horiz-adv-x="124" 
d="M117 -10h-56q-21 0 -38 15q-17 16 -17 44q0 29 17 46q16 14 38 14h56v-23h-55q-13 0 -22 -9q-11 -10 -11 -28q0 -17 11 -27q9 -8 22 -8h55v-24z" />
    <glyph glyph-name="d" unicode="d" horiz-adv-x="129" 
d="M122 -10h-61q-21 0 -37 15q-18 17 -18 45t18 45q15 14 37 14h37v49h24v-168zM98 14v72h-36q-13 0 -22 -8q-11 -10 -11 -28t11 -28q9 -8 22 -8h36z" />
    <glyph glyph-name="e" unicode="e" horiz-adv-x="127" 
d="M120 39h-90q2 -14 11 -20q9 -5 28 -5h48v-24h-48q-63 0 -63 61q0 25 13 42q16 22 46 22t44 -25q11 -17 11 -39v-12zM95 63q-6 28 -30 28q-29 0 -35 -28h65z" />
    <glyph glyph-name="f" unicode="f" horiz-adv-x="110" 
d="M103 134h-24q-22 0 -22 -20v-4h46v-24h-46v-96h-23v96h-28v24h28v4q0 19 11 31q12 13 34 13h24v-24z" />
    <glyph glyph-name="g" unicode="g" horiz-adv-x="128" 
d="M121 -8q0 -39 -48 -39h-53v24h53q24 0 24 22h-32q-31 0 -47 19q-12 15 -12 36t12 36q16 19 47 19h56v-117zM97 22v64h-30q-21 0 -30 -11q-8 -8 -8 -21q0 -12 8 -21q9 -11 30 -11h30z" />
    <glyph glyph-name="h" unicode="h" horiz-adv-x="116" 
d="M109 -10h-23v68q0 15 -5 21q-7 7 -24 7h-28v-96h-23v168h23v-49h28q52 0 52 -51v-68z" />
    <glyph glyph-name="i" unicode="i" horiz-adv-x="70" 
d="M47 134h-24v24h24v-24zM47 -10h-24v119h24v-119z" />
    <glyph glyph-name="j" unicode="j" horiz-adv-x="80" 
d="M70 134h-24v24h24v-24zM69 7q0 -34 -16 -46q-12 -8 -38 -8h-14v21h11q20 0 26 4q8 6 8 29v103h23v-103z" />
    <glyph glyph-name="k" unicode="k" horiz-adv-x="129" 
d="M123 -10h-34l-60 59v-59h-23v168h23v-91l54 42h38l-67 -52z" />
    <glyph glyph-name="l" unicode="l" horiz-adv-x="37" 
d="M29 -10h-23v168h23v-168z" />
    <glyph glyph-name="m" unicode="m" horiz-adv-x="180" 
d="M173 -10h-24v63q0 19 -9 26q-8 7 -26 7h-13v-96h-24v96h-48v-96h-23v119h108q59 0 59 -56v-63z" />
    <glyph glyph-name="n" unicode="n" horiz-adv-x="121" 
d="M115 -10h-24v57q0 24 -9 32q-7 7 -27 7h-26v-96h-23v119h49q29 0 43 -12q17 -15 17 -50v-57z" />
    <glyph glyph-name="o" unicode="o" horiz-adv-x="142" 
d="M135 50q0 -27 -19 -46t-46 -19t-46 19q-18 19 -18 46t18 46q19 19 46 19t46 -19t19 -46zM112 50q0 17 -13 29q-12 12 -29 12t-29 -12t-12 -29t12 -29t29 -12t29 12q13 12 13 29z" />
    <glyph glyph-name="p" unicode="p" horiz-adv-x="127" 
d="M120 50q0 -26 -16 -43t-41 -17h-34v-41h-23v160h57q25 0 41 -17q16 -16 16 -42zM96 50q0 16 -9 26t-24 10h-34v-73h34q14 0 24 10q9 10 9 27z" />
    <glyph glyph-name="q" unicode="q" horiz-adv-x="127" 
d="M120 -51h-24v41h-34q-24 0 -40 17t-16 43t16 42q16 17 40 17h58v-160zM96 13v73h-34q-14 0 -23 -10q-10 -10 -10 -26q0 -17 10 -27q9 -10 23 -10h34z" />
    <glyph glyph-name="r" unicode="r" horiz-adv-x="93" 
d="M86 49h-23v17q0 20 -18 20h-16v-96h-23v119h41q39 0 39 -43v-17z" />
    <glyph glyph-name="s" unicode="s" horiz-adv-x="125" 
d="M118 27q0 -37 -46 -37h-61v24h61q13 0 18 3t5 10q0 13 -19 13h-25q-45 0 -45 35q0 19 15 28q11 6 27 6h62v-23h-62q-19 0 -19 -11q0 -8 8 -10q3 -1 14 -1h25q19 0 31 -10q11 -9 11 -27z" />
    <glyph glyph-name="t" unicode="t" horiz-adv-x="106" 
d="M99 86h-41v-50q0 -13 3 -17q3 -5 12 -5h25v-24h-25q-38 0 -38 46v50h-29v23h29v49h23v-49h41v-23z" />
    <glyph glyph-name="u" unicode="u" horiz-adv-x="124" 
d="M117 -10h-52q-59 0 -59 58v61h23v-61q0 -21 11 -29q8 -5 25 -5h29v95h23v-119z" />
    <glyph glyph-name="v" unicode="v" horiz-adv-x="148" 
d="M141 109l-57 -119h-21l-57 119h26l41 -86l42 86h26z" />
    <glyph glyph-name="w" unicode="w" horiz-adv-x="191" 
d="M184 109l-33 -119h-25l-31 80l-32 -80h-24l-33 119h24l23 -81l32 81h20l32 -81l23 81h24z" />
    <glyph glyph-name="x" unicode="x" horiz-adv-x="150" 
d="M143 -10h-31l-38 46l-38 -46h-30l53 64l-47 55h31l31 -37l31 37h31l-47 -55z" />
    <glyph glyph-name="y" unicode="y" horiz-adv-x="118" 
d="M111 7q0 -29 -13 -41q-12 -13 -40 -13h-49v24h49q14 0 21 5q6 5 6 18h-28q-51 0 -51 51v58h23v-58q0 -17 7 -23q6 -4 21 -4h30v85h24v-102z" />
    <glyph glyph-name="z" unicode="z" horiz-adv-x="121" 
d="M114 -10h-108v24l76 72h-76v23h107v-26l-74 -69h75v-24z" />
    <glyph glyph-name="braceleft" unicode="{" horiz-adv-x="85" 
d="M7 77q10 0 16 5t8 13.5t2 29.5t1 27q1 11 4 17.5t7.5 10t11.5 5.5q5 1 16 1h7v-19h-4q-13 0 -17.5 -5t-4.5 -21q0 -33 -1 -41q-2 -14 -7.5 -21t-17.5 -13q14 -5 20 -17t6 -39q0 -24 1 -29q1 -8 5 -11.5t16 -3.5h4v-20h-7q-13 0 -18 2q-8 3 -13.5 9.5t-7 16.5t-1.5 32.5
t-2 31t-8 13.5t-16 5v21z" />
    <glyph glyph-name="bar" unicode="|" horiz-adv-x="66" 
d="M23 -54v240h19v-240h-19z" />
    <glyph glyph-name="braceright" unicode="}" horiz-adv-x="85" 
d="M77 77v-21q-9 0 -15 -5t-8 -13.5t-2.5 -29.5t-0.5 -28q-1 -10 -4.5 -16.5t-8 -10t-11.5 -5.5q-4 -2 -15 -2h-7v20h4q13 0 17 4.5t4 21.5q0 31 1 39q2 14 8 22.5t17 12.5q-14 7 -20 18.5t-6 38.5v29q-1 8 -5 11.5t-16 3.5h-4v19h7q12 0 18 -2q8 -2 13 -8.5t6.5 -16.5
t2 -32.5t2.5 -31t8 -13.5t15 -5z" />
    <glyph glyph-name="asciitilde" unicode="~" horiz-adv-x="149" 
d="M10 70v25q13 15 35 15q7 0 15.5 -2t23.5 -9q9 -3 13 -4t9 -1q8 0 16.5 4.5t15.5 12.5v-27q-8 -7 -16.5 -10.5t-18.5 -3.5q-7 0 -14 1.5t-22 8.5t-24 7q-8 0 -15.5 -3.5t-17.5 -13.5z" />
    <glyph glyph-name="currency" unicode="&#xa4;" 
d="M171 63l20 -19l-16 -17l-20 20q-10 -8 -26 -9q-17 0 -28 9l-20 -20l-17 17l20 19q-1 0 -2 2q-8 14 -7 28q0 13 8 24l-20 19l18 18l20 -20q11 8 28 9q16 -2 26 -8l20 20l18 -18l-21 -20q8 -10 8 -24q0 -17 -9 -30zM155 91q-4 24 -27 26q-26 -2 -27 -26q1 -26 27 -27
q24 1 27 27z" />
    <glyph glyph-name="section" unicode="&#xa7;" 
d="M125 113q-12 -4 -14 -21q0 -12 16 -17q15 5 17 19q-2 16 -19 19zM170 181v-28q-2 0 -3 1q-23 9 -34 9q-15 0 -14 -11q0 -11 24 -19q35 -11 36 -34q-1 -23 -23 -33q24 -13 24 -32q-3 -34 -56 -36q-21 1 -42 6v28q21 -11 38 -10q20 -1 20 12q0 10 -20 15q-46 12 -44 40
q0 21 25 33q-22 8 -22 31q3 31 49 36q21 0 42 -8z" />
    <glyph glyph-name="dieresis" unicode="&#xa8;" 
d="M163 154h-26v31h26v-31zM119 154h-26v31h26v-31z" />
    <glyph glyph-name="degree" unicode="&#xb0;" 
d="M90 147q-4 -35 -39 -38q-35 3 -38 38q3 35 38 39q35 -4 39 -39zM31 147q1 -19 20 -20q19 2 21 20q-3 18 -21 21q-20 -3 -20 -21z" />
    <glyph glyph-name="plusminus" unicode="&#xb1;" 
d="M113 124h30v-25h44v-31h-44v-24h-30v24h-44v31h44v25zM66 0v31h124v-31h-124z" />
    <glyph glyph-name="periodcentered" unicode="&#xb7;" 
d="M129 114q21 -3 24 -25q-3 -22 -24 -24q-23 2 -25 24q2 23 25 25z" />
    <glyph glyph-name="multiply" unicode="&#xd7;" 
d="M66 100l22 21l40 -40l40 40l22 -21l-40 -41l40 -40l-22 -20l-40 39l-40 -39l-22 20l40 40z" />
    <glyph glyph-name="agrave" unicode="&#xe0;" 
d="M100 64q-1 -43 28 -42q25 1 28 42q-3 41 -28 43q-29 0 -28 -43zM156 114v17h38v-105v-14q1 -9 1 -12h-38q-2 9 -1 18h-1q-12 -19 -39 -20q-52 2 -55 66q3 64 60 68q20 -2 34 -18h1zM96 184h35l21 -37h-21z" />
    <glyph glyph-name="aacute" unicode="&#xe1;" 
d="M100 64q-1 -43 28 -42q25 1 28 42q-3 41 -28 43q-29 0 -28 -43zM156 114v17h38v-105v-14q1 -9 1 -12h-38q-2 9 -1 18h-1q-12 -19 -39 -20q-52 2 -55 66q3 64 60 68q20 -2 34 -18h1zM141 147h-35l36 37h20z" />
    <glyph glyph-name="egrave" unicode="&#xe8;" 
d="M86 185h35l21 -37h-21zM190 54h-84q-2 -33 22 -32q19 -1 23 16h35q-5 -39 -58 -40q-63 0 -62 66q3 64 62 68q40 0 55 -30q4 -12 6 -23v-11q1 -5 1 -14zM106 80h44q0 27 -22 27q-23 0 -22 -27z" />
    <glyph glyph-name="eacute" unicode="&#xe9;" 
d="M190 54h-84q-2 -33 22 -32q19 -1 23 16h35q-5 -39 -58 -40q-63 0 -62 66q3 64 62 68q40 0 55 -30q4 -12 6 -23v-11q1 -5 1 -14zM106 80h44q0 27 -22 27q-23 0 -22 -27zM141 147h-34l35 37h20z" />
    <glyph glyph-name="ecircumflex" unicode="&#xea;" 
d="M144 148l-18 22l-18 -22h-22l27 37h27l26 -37h-22zM190 54h-84q-2 -33 22 -32q19 -1 23 16h35q-5 -39 -58 -40q-63 0 -62 66q3 64 62 68q40 0 55 -30q4 -12 6 -23v-11q1 -5 1 -14zM106 80h44q0 27 -22 27q-23 0 -22 -27z" />
    <glyph glyph-name="igrave" unicode="&#xec;" 
d="M98 185h35l21 -37h-21zM158 0h-39v129h39v-129z" />
    <glyph glyph-name="iacute" unicode="&#xed;" 
d="M137 0h-39v129h39v-129zM136 147h-34l35 37h21z" />
    <glyph glyph-name="ograve" unicode="&#xf2;" 
d="M88 185h34l21 -37h-20zM195 64q-3 -64 -67 -66q-65 2 -67 66q2 65 67 68q64 -3 67 -68zM101 64q-1 -43 27 -42q27 -1 27 42q1 43 -27 43q-29 0 -27 -43z" />
    <glyph glyph-name="oacute" unicode="&#xf3;" 
d="M195 64q-3 -64 -67 -66q-65 2 -67 66q2 65 67 68q64 -3 67 -68zM101 64q-1 -43 27 -42q27 -1 27 42q1 43 -27 43q-29 0 -27 -43zM147 147h-34l35 37h20z" />
    <glyph glyph-name="divide" unicode="&#xf7;" 
d="M190 75v-31h-124v31h124zM113 -1v29h30v-29h-30zM113 91v30h30v-30h-30z" />
    <glyph glyph-name="ugrave" unicode="&#xf9;" 
d="M88 185h34l22 -37h-21zM152 0l-2 16q-13 -18 -39 -18q-35 2 -43 27q-3 8 -2 20v84h38v-78q0 -29 23 -29q21 2 23 29v78h39v-106q-1 -12 1 -23h-38z" />
    <glyph glyph-name="uacute" unicode="&#xfa;" 
d="M152 0l-2 16q-13 -18 -39 -18q-35 2 -43 27q-3 8 -2 20v84h38v-78q0 -29 23 -29q21 2 23 29v78h39v-106q-1 -12 1 -23h-38zM147 147h-34l35 37h20z" />
    <glyph glyph-name="udieresis" unicode="&#xfc;" 
d="M163 154h-26v31h26v-31zM119 154h-26v31h26v-31zM152 0l-2 16q-13 -18 -39 -18q-35 2 -43 27q-3 8 -2 20v84h38v-78q0 -29 23 -29q21 2 23 29v78h39v-106q-1 -12 1 -23h-38z" />
    <glyph glyph-name="amacron" unicode="&#x101;" 
d="M100 64q-1 -43 28 -42q25 1 28 42q-3 41 -28 43q-29 0 -28 -43zM156 114v17h38v-105v-14q1 -9 1 -12h-38q-2 9 -1 18h-1q-12 -19 -39 -20q-52 2 -55 66q3 64 60 68q20 -2 34 -18h1zM175 175v-18h-87v18h87z" />
    <glyph glyph-name="emacron" unicode="&#x113;" 
d="M190 54h-84q-2 -33 22 -32q19 -1 23 16h35q-5 -39 -58 -40q-63 0 -62 66q3 64 62 68q40 0 55 -30q4 -12 6 -23v-11q1 -5 1 -14zM106 80h44q0 27 -22 27q-23 0 -22 -27zM172 175v-18h-87v18h87z" />
    <glyph glyph-name="ecaron" unicode="&#x11b;" 
d="M190 54h-84q-2 -33 22 -32q19 -1 23 16h35q-5 -39 -58 -40q-63 0 -62 66q3 64 62 68q40 0 55 -30q4 -12 6 -23v-11q1 -5 1 -14zM106 80h44q0 27 -22 27q-23 0 -22 -27zM131 161l17 23h24l-27 -37h-30l-26 37h24z" />
    <glyph glyph-name="imacron" unicode="&#x12b;" 
d="M148 0h-38v129h38v-129zM172 175v-18h-88v18h88z" />
    <glyph glyph-name="nacute" unicode="&#x144;" 
d="M105 129v-15v-1q12 19 40 19q33 -5 42 -28q2 -9 2 -20v-84h-38v77q-1 29 -23 30q-22 -3 -23 -30v-77h-38v129h38zM149 147h-35l36 37h20z" />
    <glyph glyph-name="ncaron" unicode="&#x148;" 
d="M105 129v-15v-1q12 19 40 19q33 -5 42 -28q2 -9 2 -20v-84h-38v77q-1 29 -23 30q-22 -3 -23 -30v-77h-38v129h38zM144 161l18 23h24l-27 -37h-30l-26 37h23z" />
    <glyph glyph-name="omacron" unicode="&#x14d;" 
d="M195 64q-3 -64 -67 -66q-65 2 -67 66q2 65 67 68q64 -3 67 -68zM101 64q-1 -43 27 -42q27 -1 27 42q1 43 -27 43q-29 0 -27 -43zM171 175v-18h-87v18h87z" />
    <glyph glyph-name="umacron" unicode="&#x16b;" 
d="M152 0l-2 16q-13 -18 -39 -18q-35 2 -43 27q-3 8 -2 20v84h38v-78q0 -29 23 -29q21 2 23 29v78h39v-106q-1 -12 1 -23h-38zM172 175v-18h-88v18h88z" />
    <glyph glyph-name="uni01CE" unicode="&#x1ce;" 
d="M100 64q-1 -43 28 -42q25 1 28 42q-3 41 -28 43q-29 0 -28 -43zM156 114v17h38v-105v-14q1 -9 1 -12h-38q-2 9 -1 18h-1q-12 -19 -39 -20q-52 2 -55 66q3 64 60 68q20 -2 34 -18h1zM125 161l18 23h24l-27 -37h-30l-27 37h24z" />
    <glyph glyph-name="uni01D0" unicode="&#x1d0;" 
d="M147 0h-38v129h38v-129zM128 161l18 23h24l-27 -37h-30l-27 37h24z" />
    <glyph glyph-name="uni01D2" unicode="&#x1d2;" 
d="M195 64q-3 -64 -67 -66q-65 2 -67 66q2 65 67 68q64 -3 67 -68zM101 64q-1 -43 27 -42q27 -1 27 42q1 43 -27 43q-29 0 -27 -43zM129 161l17 23h24l-27 -37h-30l-26 37h24z" />
    <glyph glyph-name="uni01D4" unicode="&#x1d4;" 
d="M152 0l-2 16q-13 -18 -39 -18q-35 2 -43 27q-3 8 -2 20v84h38v-78q0 -29 23 -29q21 2 23 29v78h39v-106q-1 -12 1 -23h-38zM128 161l18 23h24l-27 -37h-30l-26 37h23z" />
    <glyph glyph-name="uni01D6" unicode="&#x1d6;" 
d="M163 154h-26v31h26v-31zM119 154h-26v31h26v-31zM152 0l-2 16q-13 -18 -39 -18q-35 2 -43 27q-3 8 -2 20v84h38v-78q0 -29 23 -29q21 2 23 29v78h39v-106q-1 -12 1 -23h-38zM172 219v-18h-88v18h88z" />
    <glyph glyph-name="uni01D8" unicode="&#x1d8;" 
d="M163 154h-26v31h26v-31zM119 154h-26v31h26v-31zM152 0l-2 16q-13 -18 -39 -18q-35 2 -43 27q-3 8 -2 20v84h38v-78q0 -29 23 -29q21 2 23 29v78h39v-106q-1 -12 1 -23h-38zM134 191h-35l35 37h21z" />
    <glyph glyph-name="uni01DA" unicode="&#x1da;" 
d="M163 154h-26v31h26v-31zM119 154h-26v31h26v-31zM152 0l-2 16q-13 -18 -39 -18q-35 2 -43 27q-3 8 -2 20v84h38v-78q0 -29 23 -29q21 2 23 29v78h39v-106q-1 -12 1 -23h-38zM129 205l18 23h24l-27 -37h-30l-26 37h23z" />
    <glyph glyph-name="uni01DC" unicode="&#x1dc;" 
d="M163 154h-26v31h26v-31zM119 154h-26v31h26v-31zM152 0l-2 16q-13 -18 -39 -18q-35 2 -43 27q-3 8 -2 20v84h38v-78q0 -29 23 -29q21 2 23 29v78h39v-106q-1 -12 1 -23h-38zM101 228h35l21 -37h-21z" />
    <glyph glyph-name="uni0251" unicode="&#x251;" 
d="M100 64q-1 -43 28 -42q25 1 28 42q-3 41 -28 43q-29 0 -28 -43zM156 114v17h38v-105v-14q1 -9 1 -12h-38q-2 9 -1 18h-1q-12 -19 -39 -20q-52 2 -55 66q3 64 60 68q20 -2 34 -18h1z" />
    <glyph glyph-name="uni0261" unicode="&#x261;" 
d="M104 66q0 -38 25 -38q24 0 24 38q0 41 -24 41q-25 -1 -25 -41zM192 129v-117q1 -61 -63 -61q-59 0 -60 42h36q1 -15 22 -16q32 0 26 43q-12 -17 -36 -17q-49 3 -53 64q4 61 55 65q25 0 34 -18v15h39z" />
    <glyph glyph-name="caron" unicode="&#x2c7;" 
d="M128 162l18 23h24l-27 -37h-30l-27 37h24z" />
    <glyph glyph-name="uni02C9" unicode="&#x2c9;" 
d="M172 185v-18h-88v18h88z" />
    <glyph glyph-name="Alpha" unicode="&#x391;" 
d="M215 -19h-26l-20 50h-81l-20 -50h-27l76 192h22zM159 56l-31 80l-30 -80h61z" />
    <glyph glyph-name="Beta" unicode="&#x392;" 
d="M190 36q0 -23 -14 -37q-16 -18 -45 -18h-67v192h63q23 0 39 -13q17 -15 17 -39t-21 -39q28 -14 28 -46zM157 120q0 29 -34 29h-35v-57h35q15 0 24 7q10 8 10 21zM164 37q0 18 -13 25q-11 6 -37 6h-26v-62h36q40 0 40 31z" />
    <glyph glyph-name="Gamma" unicode="&#x393;" 
d="M184 149h-87v-168h-25v192h112v-24z" />
    <glyph glyph-name="uni0394" unicode="&#x394;" 
d="M209 -19h-162l68 192h26zM173 6l-45 128l-45 -128h90z" />
    <glyph glyph-name="Epsilon" unicode="&#x395;" 
d="M186 -19h-116v192h113v-24h-88v-57h84v-24h-84v-62h91v-25z" />
    <glyph glyph-name="Zeta" unicode="&#x396;" 
d="M190 -19h-124v21l92 147h-90v24h122v-21l-92 -146h92v-25z" />
    <glyph glyph-name="Eta" unicode="&#x397;" 
d="M196 -19h-25v87h-86v-87h-25v192h25v-81h86v81h25v-192z" />
    <glyph glyph-name="Theta" unicode="&#x398;" 
d="M211 77q0 -45 -22 -71q-22 -28 -62 -28t-62 28q-21 27 -21 71t21 71q22 28 62 28q39 0 62 -28q22 -27 22 -71zM184 77q0 32 -14 52q-15 23 -43 23t-43 -23q-14 -20 -14 -52t14 -52q15 -23 43 -23t43 23q14 20 14 52zM171 65h-88v24h88v-24z" />
    <glyph glyph-name="Iota" unicode="&#x399;" 
d="M139 -19h-24v192h24v-192z" />
    <glyph glyph-name="Kappa" unicode="&#x39a;" 
d="M194 -19h-32l-70 91l-4 -4v-87h-26v192h26v-70l67 70h34l-80 -83z" />
    <glyph glyph-name="Lambda" unicode="&#x39b;" 
d="M207 -19h-26l-54 156l-53 -156h-27l68 192h25z" />
    <glyph glyph-name="Mu" unicode="&#x39c;" 
d="M221 -19h-25v134l-57 -134h-24l-57 134v-134h-25v192h26l68 -160l69 160h25v-192z" />
    <glyph glyph-name="Nu" unicode="&#x39d;" 
d="M198 -19h-27l-87 150v-150h-26v192h27l88 -149v149h25v-192z" />
    <glyph glyph-name="Xi" unicode="&#x39e;" 
d="M196 149h-138v24h138v-24zM192 68h-130v24h130v-24zM201 -19h-147v25h147v-25z" />
    <glyph glyph-name="Omicron" unicode="&#x39f;" 
d="M211 77q0 -45 -22 -71q-22 -28 -62 -28t-62 28q-21 27 -21 71t21 71q22 28 62 28q39 0 62 -28q22 -27 22 -71zM184 77q0 32 -14 52q-15 23 -43 23t-43 -23q-14 -20 -14 -52t14 -52q15 -23 43 -23t43 23q14 20 14 52z" />
    <glyph glyph-name="Pi" unicode="&#x3a0;" 
d="M196 -19h-25v168h-86v-168h-25v192h136v-192z" />
    <glyph glyph-name="Rho" unicode="&#x3a1;" 
d="M190 116q0 -57 -76 -57h-23v-78h-25v192h47q77 0 77 -57zM164 116q0 16 -11 25q-11 8 -28 8h-34v-65h34q17 0 28 7q11 9 11 25z" />
    <glyph glyph-name="Sigma" unicode="&#x3a3;" 
d="M190 -19h-124v20l66 76l-65 75v21h122v-24h-89l63 -72l-63 -72h90v-24z" />
    <glyph glyph-name="Tau" unicode="&#x3a4;" 
d="M198 149h-57v-168h-25v168h-58v24h140v-24z" />
    <glyph glyph-name="Upsilon" unicode="&#x3a5;" 
d="M220 121h-25q-1 11 -6 20q-6 11 -14 11q-18 0 -28 -22q-7 -17 -7 -40v-109h-25v109q0 23 -7 40q-10 22 -28 22q-8 0 -14 -11q-4 -8 -5 -20h-25q4 29 16 42t28 13q32 0 48 -37q13 37 47 37q16 0 28 -12q11 -13 17 -43z" />
    <glyph glyph-name="Phi" unicode="&#x3a6;" 
d="M209 80q0 -29 -20 -47q-19 -16 -48 -19v-33h-25v33q-30 3 -48 19q-21 18 -21 47t21 47q18 16 48 19v27h25v-27q29 -3 48 -19q20 -18 20 -47zM183 80q0 38 -42 43v-86q42 7 42 43zM116 37v86q-42 -6 -42 -43t42 -43z" />
    <glyph glyph-name="Chi" unicode="&#x3a7;" 
d="M211 -19h-31l-53 83l-53 -83h-30l68 101l-62 91h31l46 -72l47 72h30l-62 -91z" />
    <glyph glyph-name="Psi" unicode="&#x3a8;" 
d="M209 109q0 -31 -20 -50q-18 -16 -50 -20v-58h-25v58q-31 3 -49 21q-20 18 -20 49v64h25v-67q0 -36 44 -42v109h25v-109q45 7 45 42v67h25v-64z" />
    <glyph glyph-name="uni03A9" unicode="&#x3a9;" 
d="M211 -19h-74v21q21 14 34 36q14 23 14 47q0 29 -15 48q-16 19 -43 19q-26 0 -42 -19t-16 -48q0 -24 14 -47q13 -22 34 -36v-21h-73v25h38q-38 33 -38 78q0 40 23 66t60 26q38 0 60 -26q23 -26 23 -66q0 -45 -38 -78h39v-25z" />
    <glyph glyph-name="alpha" unicode="&#x3b1;" 
d="M200 16q-10 -18 -17 -25q-10 -10 -21 -10q-14 0 -21 15q-18 -19 -37 -19q-24 0 -37 17q-11 14 -11 38q0 30 17 57q18 31 46 31q37 0 40 -51q7 18 16 46l23 -8q-18 -53 -38 -85q1 -19 4 -19q2 0 7 8q6 7 10 17zM136 50q0 26 -3 36q-4 11 -14 11q-13 0 -26 -20
q-12 -21 -12 -45q0 -32 23 -32q14 0 32 26q0 -1 0 24z" />
    <glyph glyph-name="beta" unicode="&#x3b2;" 
d="M196 128q0 -15 -10 -27q-8 -10 -20 -15q10 -7 17 -18q7 -13 7 -28q0 -29 -16 -46t-44 -17q-23 0 -39 20q-3 -18 -8 -45h-24l27 161q6 30 22 47q16 16 40 16q21 0 34 -13q14 -14 14 -35zM171 129q0 9 -7 16q-6 8 -16 8q-31 0 -39 -48l-13 -78q6 -9 15 -17q11 -10 19 -10
q17 0 27 12q9 11 9 28q0 16 -9 26q-9 9 -26 9h-11l5 25q6 -1 10 -1q16 0 26 9q10 8 10 21z" />
    <glyph glyph-name="gamma" unicode="&#x3b3;" 
d="M202 96q-19 -3 -37 -15q-21 -15 -26 -35l-21 -91l-24 5l22 91q2 11 2 19q0 24 -17 24q-14 0 -30 -21l-17 18q15 14 21 18q13 8 28 8q13 0 23 -10q9 -10 11 -24q12 13 28 25q15 10 26 13z" />
    <glyph glyph-name="delta" unicode="&#x3b4;" 
d="M188 137l-17 -17q-30 33 -41 33q-5 0 -5 -5q0 -7 10 -18q7 -8 14 -15q25 -27 25 -57q0 -37 -18 -59q-16 -21 -41 -21q-22 0 -35 17q-12 15 -12 38q0 32 14 55q14 25 38 29q-19 16 -19 33q0 12 8 19t19 7q16 0 33 -13q10 -7 27 -26zM149 57q0 39 -19 39q-16 0 -27 -20
q-10 -18 -10 -43q0 -15 6 -23q6 -9 16 -9q14 0 23 12q11 15 11 44z" />
    <glyph glyph-name="epsilon" unicode="&#x3b5;" 
d="M177 -1q-28 -22 -51 -22q-20 0 -33 10q-14 11 -14 29q0 13 9 24q8 10 18 14q-15 11 -15 29q0 17 11 27q10 11 28 11q22 0 44 -16l-14 -20q-11 7 -13 9q-8 4 -16 4q-7 0 -11 -4q-5 -4 -5 -10q0 -20 25 -20q6 0 21 1l-2 -25q-11 2 -17 2t-12 -1q-13 -2 -20 -9q-6 -7 -6 -15
q0 -17 22 -17q15 0 35 18z" />
    <glyph glyph-name="zeta" unicode="&#x3b6;" 
d="M185 -13q0 -18 -13 -27q-11 -8 -29 -8q-25 0 -50 21l16 19q18 -15 34 -15q18 0 18 7q0 4 -9 6q-21 6 -56 17q-25 8 -25 31q0 16 13 45q12 24 25 40q-13 -1 -21 6q-7 6 -7 16q0 14 17 31l19 -14q-12 -12 -12 -16t9 -4q16 0 54 29l15 -20q-37 -22 -48 -34t-25 -36
q-16 -27 -16 -39q0 -9 18 -14q12 -4 45 -14q28 -8 28 -27z" />
    <glyph glyph-name="eta" unicode="&#x3b7;" 
d="M193 82q0 -14 -5 -32l-26 -98h-26l27 100q5 18 5 28q0 7 -5 12t-11 5q-9 0 -14 -3q-3 -2 -12 -10l-28 -104h-25l27 100q3 11 3 13q0 4 -3 4q-5 0 -11 -7q-5 -6 -10 -11l-16 17q13 13 17 16q10 8 22 8q15 0 19 -15q14 15 35 15q17 0 27 -12q10 -11 10 -26z" />
    <glyph glyph-name="theta" unicode="&#x3b8;" 
d="M191 113q0 -47 -23 -90q-26 -45 -58 -45q-45 0 -45 61q0 44 23 87q25 50 61 50q42 0 42 -63zM167 113q0 41 -18 41q-13 0 -28 -18q-14 -18 -22 -45h66q2 10 2 22zM160 68h-67q-3 -14 -3 -29q0 -38 20 -38q13 0 28 19q14 19 22 48z" />
    <glyph glyph-name="iota" unicode="&#x3b9;" 
d="M178 23q-18 -21 -32 -31q-20 -15 -40 -15q-29 0 -29 28q0 7 4 21l26 91h26l-29 -100q-2 -7 -2 -10q0 -7 7 -7q19 0 52 40z" />
    <glyph glyph-name="kappa" unicode="&#x3ba;" 
d="M195 12q-11 -18 -17 -23q-12 -12 -25 -12q-15 0 -21 14q-2 5 -5 27q-2 15 -8 21q-6 7 -21 7l-14 -65h-25l28 136h26l-10 -44q9 6 20 18q15 17 18 20q10 10 23 10q20 0 28 -25l-21 -8q0 10 -7 10q-4 0 -17 -14q-15 -16 -25 -22q25 -7 28 -38q1 -6 2 -18q1 -6 4 -6
q7 0 20 26z" />
    <glyph glyph-name="lambda" unicode="&#x3bb;" 
d="M202 -16q-15 -6 -31 -6q-37 0 -40 59l-2 32q-14 -19 -31 -50q-13 -25 -18 -38h-28q7 18 30 57q27 45 45 63q-1 23 -2 30q-4 22 -16 22q-7 0 -16 -3l-9 21q13 5 25 5q20 0 31 -17q10 -16 11 -42l4 -78q2 -38 17 -38q7 0 23 8z" />
    <glyph glyph-name="uni03BC" unicode="&#x3bc;" 
d="M208 7q-3 -4 -9 -11q-17 -19 -34 -19q-14 0 -22 15q-15 -15 -34 -15q-16 0 -27 14q-4 -15 -9 -39h-25q10 36 22 69q1 16 9 48q8 29 16 52l23 -10q-24 -72 -24 -90q0 -21 16 -21q22 0 33 42l21 77l24 -6l-22 -78q-6 -24 -6 -26q0 -4 2 -7q2 -2 5 -2q8 0 25 24z" />
    <glyph glyph-name="nu" unicode="&#x3bd;" 
d="M189 114q-9 -57 -33 -87q-20 -26 -67 -50q-5 4 -14 13q15 32 15 77q0 20 -24 36l16 18q15 -10 22 -19q11 -14 11 -35q0 -19 -6 -51q44 30 56 102z" />
    <glyph glyph-name="xi" unicode="&#x3be;" 
d="M183 60q-27 1 -46 1q-18 0 -31 -8q-11 -8 -11 -17t16 -13l43 -12q26 -7 26 -28q0 -15 -12 -23q-11 -8 -29 -8q-21 0 -41 13l13 21q15 -10 28 -10q17 0 17 6q0 3 -12 7l-46 13q-26 7 -26 29q0 13 9 24q8 11 24 17q-16 10 -16 28q0 23 24 32q-9 7 -9 18q0 12 8 19t22 7
q17 0 32 -10l-12 -20q-9 7 -20 7q-6 0 -6 -5q0 -3 3 -5q2 -2 6 -2q15 0 44 1v-25h-21q-18 1 -23 1q-11 0 -18 -6q-6 -5 -6 -13q0 -7 5 -11t13 -4q18 0 52 2v-26z" />
    <glyph glyph-name="omicron" unicode="&#x3bf;" 
d="M188 60q0 -34 -17 -58q-19 -25 -52 -25q-25 0 -39 19q-12 17 -12 42q0 33 17 57q20 26 51 26q26 0 40 -19q12 -17 12 -42zM164 58q0 16 -7 27q-8 13 -23 13q-17 0 -30 -19q-11 -17 -11 -38q0 -17 6 -28q8 -13 23 -13q19 0 31 20q11 17 11 38z" />
    <glyph glyph-name="pi" unicode="&#x3c0;" 
d="M209 104q-15 -16 -38 -16h-4q-12 -63 -12 -79q0 -9 6 -9q4 0 12 9q9 8 18 21l18 -17q-14 -17 -22 -23q-15 -13 -28 -13q-16 0 -23 13q-6 9 -6 21q0 15 12 77h-25q-7 -70 -47 -110l-18 16q33 34 41 94q-11 -2 -17 -6l-11 -11l-18 16l10 10q6 5 11 8q12 6 34 6h64
q10 0 14 2q6 2 13 8z" />
    <glyph glyph-name="rho" unicode="&#x3c1;" 
d="M190 60q0 -32 -15 -56q-17 -27 -48 -27q-21 0 -34 22v-24q1 -18 1 -23h-28q1 43 13 99q15 69 63 69q24 0 37 -19q11 -16 11 -41zM165 57q0 40 -25 40q-17 0 -27 -19q-8 -17 -8 -37q0 -17 5 -28q7 -14 20 -14q17 0 27 21q8 16 8 37z" />
    <glyph glyph-name="sigma" unicode="&#x3c3;" 
d="M203 103q-15 -13 -31 -13h-5q5 -13 5 -29q0 -6 -1 -12q-3 -28 -20 -48q-19 -24 -47 -24q-26 0 -40 19q-12 16 -12 42q0 32 18 56q19 27 50 27q16 0 28 -8h20q12 0 21 8zM118 98q-19 0 -31 -20q-11 -17 -11 -37q0 -17 7 -28q9 -13 23 -13q18 0 30 19q11 17 11 39
q0 17 -7 28q-8 12 -22 12z" />
    <glyph glyph-name="tau" unicode="&#x3c4;" 
d="M191 104q-12 -12 -25 -15q-6 -1 -29 -1l-15 -65q-4 -16 -4 -17q0 -5 6 -5t15 10q3 2 13 15l18 -16q-11 -16 -20 -23q-13 -10 -28 -10q-11 0 -19 7q-9 7 -9 18q0 6 5 29l13 57h-5q-11 0 -22 -16l-20 15q19 25 42 25h46q12 0 20 9z" />
    <glyph glyph-name="upsilon" unicode="&#x3c5;" 
d="M183 67q0 -26 -21 -56q-23 -34 -51 -34q-19 0 -29 12q-11 11 -11 31q0 13 6 37q7 24 7 37q0 5 -7 15l22 12q9 -15 9 -27t-4 -29q-3 -14 -7 -29q-2 -9 -2 -16q0 -19 16 -19q15 0 31 23t16 43q0 23 -9 45l23 9q11 -26 11 -54z" />
    <glyph glyph-name="phi" unicode="&#x3c6;" 
d="M202 58q0 -34 -20 -56q-19 -22 -51 -25l-3 -25h-24l3 25q-23 4 -38 23t-15 43q0 32 22 54q21 22 52 25l7 51h24l-7 -52q22 -4 36 -22t14 -41zM178 56q0 13 -8 25q-9 13 -21 16l-14 -96q19 3 31 19q12 15 12 36zM125 98q-20 -2 -33 -17t-13 -36q0 -14 8 -27q10 -14 23 -17
z" />
    <glyph glyph-name="chi" unicode="&#x3c7;" 
d="M196 -10l-9 -15q-15 -23 -34 -23q-20 0 -28 19q-3 7 -7 34l-30 -50h-28l53 86l-5 37q-3 19 -10 19q-4 0 -7 -4t-8 -15l-22 10q9 17 14 22q9 10 23 10q18 0 27 -15q5 -10 8 -30l25 42h28l-48 -82l5 -43q3 -17 11 -17q9 0 23 30z" />
    <glyph glyph-name="psi" unicode="&#x3c8;" 
d="M210 64q0 -30 -18 -55q-20 -26 -51 -31l-3 -26h-25l4 25q-21 2 -32 14q-11 11 -11 29q0 12 5 30q3 15 7 29q2 10 2 16q0 3 -2 3q-5 0 -12 -9q-4 -6 -8 -13l-20 15q12 16 18 21q11 10 24 10q14 0 20 -11q5 -7 5 -17t-7 -37t-7 -37q0 -17 21 -20l23 173h24l-22 -169
q17 6 28 24q12 17 12 36q0 23 -20 42l19 16q26 -26 26 -58z" />
    <glyph glyph-name="omega" unicode="&#x3c9;" 
d="M213 51q0 -31 -18 -52q-17 -22 -40 -22q-22 0 -31 19q-15 -19 -37 -19q-20 0 -32 15t-12 41t15 49q13 19 40 39l15 -20q-45 -32 -45 -68q0 -16 7 -25q5 -7 12 -7q10 0 19 10q8 9 10 26q4 24 7 46l24 -3l-6 -47q-1 -5 -1 -8q0 -12 6 -19q4 -5 10 -5q11 0 21 14
q11 15 11 36q0 28 -28 50l15 19q38 -30 38 -69z" />
    <glyph glyph-name="uni0401" unicode="&#x401;" 
d="M192 0h-128v178h124v-22h-102v-53h93v-22h-93v-59h106v-22zM117 221v-26h-24v26h24zM159 221v-25h-23v25h23z" />
    <glyph glyph-name="uni0410" unicode="&#x410;" 
d="M48 0l65 178h28l67 -178h-25l-18 45h-76l-16 -45h-25zM127 152l-31 -85h62z" />
    <glyph glyph-name="uni0411" unicode="&#x411;" 
d="M58 0v179h126v-23h-103v-48h56q58 -4 60 -53q-2 -54 -56 -55h-83zM138 86h-57v-63h60q31 1 32 31q-1 30 -35 32z" />
    <glyph glyph-name="uni0412" unicode="&#x412;" 
d="M58 0v180h84q42 -2 47 -43q-1 -34 -28 -42q36 -10 37 -44q-2 -51 -55 -51h-85zM137 158h-56v-54h47q36 0 37 31q-4 22 -28 23zM136 81h-55v-58h55q36 -1 37 27q4 27 -37 31z" />
    <glyph glyph-name="uni0413" unicode="&#x413;" 
d="M95 0h-23v178h112v-22h-89v-156z" />
    <glyph glyph-name="uni0414" unicode="&#x414;" 
d="M86 137v44h108v-159h25l-2 -60h-20v38h-138v-38h-21l-1 61h17q33 32 32 114zM171 22v137h-62v-21q0 -80 -28 -116h90z" />
    <glyph glyph-name="uni0415" unicode="&#x415;" 
d="M192 0h-128v178h124v-22h-102v-53h93v-22h-93v-59h106v-22z" />
    <glyph glyph-name="uni0416" unicode="&#x416;" 
d="M92 95l-78 83h30l74 -77v77h22v-78l74 78h29l-80 -82l83 -96h-31l-75 90v-90h-22v92l-79 -92h-29z" />
    <glyph glyph-name="uni0417" unicode="&#x417;" 
d="M81 131h-22q4 53 70 53q56 -1 63 -45q1 -32 -27 -42q32 -5 36 -46q-6 -51 -66 -52q-75 -2 -80 58h23q-1 -40 53 -39q41 0 48 32q0 34 -40 36h-28v22h24q35 1 35 29q-6 26 -43 27q-44 -1 -46 -33z" />
    <glyph glyph-name="uni0418" unicode="&#x418;" 
d="M57 0v178h23v-140l94 140h24v-178h-22v142l-95 -142h-24z" />
    <glyph glyph-name="uni0419" unicode="&#x419;" 
d="M57 0v178h23v-140l94 140h24v-178h-22v143l-95 -143h-24zM86 229h19q1 -17 24 -17q22 0 25 17h20q-8 -34 -47 -34q-36 2 -41 34z" />
    <glyph glyph-name="uni041A" unicode="&#x41a;" 
d="M58 0v179h23v-79l80 78h30l-83 -81l90 -97h-31l-86 92v-92h-23z" />
    <glyph glyph-name="uni041B" unicode="&#x41b;" 
d="M95 179h110v-179h-22v156h-65v-50q3 -106 -67 -106v24q27 -2 36 21q8 18 8 85v49z" />
    <glyph glyph-name="uni041C" unicode="&#x41c;" 
d="M37 0v178h35l57 -144l55 144h34v-178h-22v148l-58 -148h-19l-59 146v-146h-23z" />
    <glyph glyph-name="uni041D" unicode="&#x41d;" 
d="M84 83v-83h-23v178h23v-73h88v73h23v-178h-23v83h-88z" />
    <glyph glyph-name="uni041E" unicode="&#x41e;" 
d="M127 164q-57 -3 -60 -72q2 -71 61 -74q62 2 62 74q-5 68 -63 72zM127 186q81 -2 85 -95q-1 -91 -86 -93q-78 3 -82 94q4 90 83 94z" />
    <glyph glyph-name="uni041F" unicode="&#x41f;" 
d="M60 0v179h136v-179h-22v157h-91v-157h-23z" />
    <glyph glyph-name="uni0420" unicode="&#x420;" 
d="M61 0v178h74q54 -1 60 -52q0 -56 -57 -56h-54v-70h-23zM134 157h-50v-66h52q36 4 36 34q-6 31 -38 32z" />
    <glyph glyph-name="uni0421" unicode="&#x421;" 
d="M206 124h-24q-7 38 -52 39q-59 -5 -60 -70q0 -74 61 -74q44 -1 53 41h24q-9 -60 -76 -62q-83 2 -84 95q6 90 82 93q68 -2 76 -62z" />
    <glyph glyph-name="uni0422" unicode="&#x422;" 
d="M117 0v157h-59v21h139v-21h-57v-157h-23z" />
    <glyph glyph-name="uni0423" unicode="&#x423;" 
d="M122 46l-66 131h27l52 -102l40 102h25l-58 -146q-11 -39 -65 -30v22q37 -9 45 23z" />
    <glyph glyph-name="uni0424" unicode="&#x424;" 
d="M117 48v100q-71 -1 -70 -51q-1 -52 70 -49zM117 169v26h22v-26q95 -2 91 -71q3 -70 -91 -71v-27h-22v26q-92 -1 -91 72q-1 70 91 71zM139 148v-100q72 1 68 51q2 47 -68 49z" />
    <glyph glyph-name="uni0425" unicode="&#x425;" 
d="M112 90l-59 88h29l45 -70l47 70h27l-58 -87l64 -91h-31l-49 72l-49 -72h-29z" />
    <glyph glyph-name="uni0426" unicode="&#x426;" 
d="M47 0v178h23v-156h91v156h23v-156h24l-1 -58h-21v36h-139z" />
    <glyph glyph-name="uni0427" unicode="&#x427;" 
d="M66 131v47h23v-47q-1 -30 27 -32h19q7 -1 25 1q4 0 7 1v77h23v-178h-23v78q-1 -1 -3 -1q-10 -1 -23 -1h-20q-53 -2 -55 55z" />
    <glyph glyph-name="uni0428" unicode="&#x428;" 
d="M233 0h-210v178h22v-155h71v155h23v-155h72v155h22v-178z" />
    <glyph glyph-name="uni0429" unicode="&#x429;" 
d="M226 0h-219v178h23v-155h74v155h22v-155h73v155h23v-155h27l-3 -59h-20v36z" />
    <glyph glyph-name="uni042A" unicode="&#x42a;" 
d="M108 23h48q37 -1 38 34q-3 32 -36 31h-50v-65zM85 0v156h-46v23h69v-69h54q50 -2 55 -52q-2 -58 -59 -58h-73z" />
    <glyph glyph-name="uni042B" unicode="&#x42b;" 
d="M197 178h22v-178h-22v178zM37 0v178h22v-68h54q53 -7 56 -54q-2 -56 -59 -56h-73zM59 23h49q36 -1 38 32q-3 31 -36 32h-51v-64z" />
    <glyph glyph-name="uni042C" unicode="&#x42c;" 
d="M62 0v179h22v-69h53q53 -5 57 -53q-1 -57 -60 -57h-72zM84 23h49q37 0 38 34q-4 30 -36 30h-51v-64z" />
    <glyph glyph-name="uni042D" unicode="&#x42d;" 
d="M74 130h-25q15 59 78 58q74 -7 80 -94q-5 -91 -79 -95q-75 1 -79 62h25q1 -41 53 -42q52 4 58 66h-87v23h86q-11 55 -57 57q-44 0 -53 -35z" />
    <glyph glyph-name="uni042E" unicode="&#x42e;" 
d="M152 163q-59 -3 -61 -69q0 -75 61 -75t62 73q-3 69 -62 71zM69 87h-27v-84h-22v179h22v-74h28q9 76 83 78q80 -2 83 -94q-2 -92 -84 -94q-78 2 -83 89z" />
    <glyph glyph-name="uni042F" unicode="&#x42f;" 
d="M89 0h-29l44 71q-44 7 -44 53q0 54 58 55h78v-179h-22v70h-43zM174 156h-53q-39 -1 -39 -31q0 -32 37 -32h55v63z" />
    <glyph glyph-name="uni0430" unicode="&#x430;" 
d="M178 94v-64q1 -11 11 -9v-21h-15q-16 2 -17 17h-1q-2 -1 -1 0q-21 -21 -57 -17q-31 4 -31 32q0 37 43 42h7q35 3 38 17v2q-2 23 -32 23q-29 -1 -31 -23h-22q1 41 54 43q51 -1 54 -42zM155 53v13q-11 -8 -39 -9q-27 -2 -28 -24q0 -21 32 -17q31 7 35 37z" />
    <glyph glyph-name="uni0431" unicode="&#x431;" 
d="M162 189h21q-5 -33 -49 -34q-49 -2 -52 -49q16 24 49 26q55 -2 60 -66q-4 -66 -64 -67q-59 3 -62 75v21q2 52 30 71q14 6 36 8q23 1 31 15zM89 64q1 -42 37 -49q40 1 43 47q-3 51 -39 52q-40 -1 -41 -50z" />
    <glyph glyph-name="uni0432" unicode="&#x432;" 
d="M75 0v135h68q27 -1 34 -26q3 -31 -20 -38q26 -10 23 -41q-8 -29 -36 -30h-69zM133 117h-35v-38h35q21 0 23 19q-2 18 -23 19zM136 61h-38v-43h37q22 0 24 21q-2 20 -23 22z" />
    <glyph glyph-name="uni0433" unicode="&#x433;" 
d="M106 110v-110h-22v129h88v-19h-66z" />
    <glyph glyph-name="uni0434" unicode="&#x434;" 
d="M88 98v35h94v-114h22l-2 -48h-21v29h-107v-29h-20l-2 48h16q21 23 20 79zM93 19h66v95h-49v-20q-1 -48 -17 -75z" />
    <glyph glyph-name="uni0435" unicode="&#x435;" 
d="M189 61h-99q2 -38 37 -44q27 0 38 24h24q-17 -43 -62 -43q-59 5 -61 71q4 70 64 71q61 -3 59 -79zM90 81h75q-3 35 -34 39q-37 -1 -41 -39z" />
    <glyph glyph-name="uni0436" unicode="&#x436;" 
d="M95 70l-56 61h29l48 -56v56h23v-56l48 56h28l-55 -61l58 -70h-27l-52 65v-65h-23v65l-51 -65h-27l57 69v1z" />
    <glyph glyph-name="uni0437" unicode="&#x437;" 
d="M96 97h-21q6 39 56 40q44 -2 48 -37q0 -24 -20 -30q-1 -1 1 -1q24 -6 24 -31q-3 -38 -53 -39q-58 1 -59 45h21q0 -28 38 -29q31 2 32 22q-2 22 -27 23h-23v20h22q22 1 23 19q-2 18 -27 20q-27 0 -35 -22z" />
    <glyph glyph-name="uni0438" unicode="&#x438;" 
d="M97 0h-26v131h23v-97l65 97h26v-131h-23v99z" />
    <glyph glyph-name="uni0439" unicode="&#x439;" 
d="M84 180h18q4 -19 25 -20q22 1 26 20h19q-8 -34 -46 -36q-37 3 -42 36zM97 0h-26v131h23v-97l65 97h26v-131h-23v99z" />
    <glyph glyph-name="uni043A" unicode="&#x43a;" 
d="M74 0v131h23v-59l54 59h27l-60 -63l64 -68h-28l-57 62v-62h-23z" />
    <glyph glyph-name="uni043B" unicode="&#x43b;" 
d="M99 81v50h90v-131h-22v112h-45v-46q1 -67 -45 -66h-10v19q36 -9 32 62z" />
    <glyph glyph-name="uni043C" unicode="&#x43c;" 
d="M77 0h-23v131h31l44 -103l44 103h28v-131h-22v97l-42 -97h-18l-42 99v-99z" />
    <glyph glyph-name="uni043D" unicode="&#x43d;" 
d="M74 0v131h22v-53h64v53h22v-131h-22v59h-64v-59h-22z" />
    <glyph glyph-name="uni043E" unicode="&#x43e;" 
d="M127 117q-37 -3 -39 -49q1 -51 40 -53q38 1 40 52q-2 50 -41 50zM128 136q60 -2 63 -69q-3 -67 -62 -69q-61 2 -64 70q3 64 63 68z" />
    <glyph glyph-name="uni043F" unicode="&#x43f;" 
d="M73 0v131h110v-131h-23v112h-64v-112h-23z" />
    <glyph glyph-name="uni0440" unicode="&#x440;" 
d="M89 132v-17q17 22 46 22q49 -4 55 -72q-3 -65 -57 -67q-30 1 -44 20v-62h-23v176h23zM130 12q35 4 37 54q-4 52 -40 54q-36 -3 -38 -54q2 -52 41 -54z" />
    <glyph glyph-name="uni0441" unicode="&#x441;" 
d="M165 48h23q-9 -49 -59 -50q-60 2 -61 69q2 66 60 71q52 -4 59 -47h-23q-4 26 -35 28q-37 -3 -38 -53q2 -47 38 -51q31 1 36 33z" />
    <glyph glyph-name="uni0442" unicode="&#x442;" 
d="M72 113v19h111v-19h-45v-113h-22v113h-44z" />
    <glyph glyph-name="uni0443" unicode="&#x443;" 
d="M121 0l-56 129h27l41 -101l34 101h24l-54 -150q-13 -36 -51 -24v21q29 -8 35 24z" />
    <glyph glyph-name="uni0444" unicode="&#x444;" 
d="M117 19v97q-60 -2 -57 -49q-2 -49 57 -48zM117 138v45h23v-45q79 -2 78 -70q0 -68 -78 -69v-41h-23v41q-80 1 -79 68q-1 68 79 71zM140 116v-97q57 1 56 49q1 46 -56 48z" />
    <glyph glyph-name="uni0445" unicode="&#x445;" 
d="M114 67l-44 64h27l31 -48l32 48h26l-44 -64l48 -67h-26l-35 52l-37 -52h-26z" />
    <glyph glyph-name="uni0446" unicode="&#x446;" 
d="M61 0v132h23v-113h66v113h22v-112h23l-2 -49h-19v29h-113z" />
    <glyph glyph-name="uni0447" unicode="&#x447;" 
d="M78 83v48h22v-44q0 -17 32 -17q2 1 3 1h21v60h22v-131h-22v52h-39q-39 0 -39 31z" />
    <glyph glyph-name="uni0448" unicode="&#x448;" 
d="M40 0v131h23v-113h54v113h22v-113h54v113h23v-131h-176z" />
    <glyph glyph-name="uni0449" unicode="&#x449;" 
d="M204 0h-174v132h23v-112h53v112h23v-112h53v112h22v-112h22l-3 -47h-19v27z" />
    <glyph glyph-name="uni044A" unicode="&#x44a;" 
d="M91 0v112h-33v18h56v-49h44q40 -1 40 -42q-3 -39 -39 -39h-68zM155 62h-41v-44h40q20 1 22 21q-2 21 -21 23z" />
    <glyph glyph-name="uni044B" unicode="&#x44b;" 
d="M201 0h-23v130h23v-130zM55 0v130h23v-49h44q37 -2 41 -39q-2 -41 -41 -42h-67zM119 62h-41v-43h40q21 0 22 22q-1 20 -21 21z" />
    <glyph glyph-name="uni044C" unicode="&#x44c;" 
d="M74 0v130h23v-49h43q39 -2 42 -42q-2 -38 -41 -39h-67zM137 63h-40v-45h39q21 1 23 22q-2 22 -22 23z" />
    <glyph glyph-name="uni044D" unicode="&#x44d;" 
d="M91 92h-22q7 44 59 46q58 -2 60 -70q-2 -68 -60 -69q-53 1 -60 50h22q7 -32 38 -32q33 1 37 44h-55v19h55q-7 37 -37 38q-31 -1 -37 -26z" />
    <glyph glyph-name="uni044E" unicode="&#x44e;" 
d="M150 119q-38 -2 -39 -50q0 -54 40 -54q37 1 39 53q-1 50 -40 51zM88 63h-21v-60h-23v129h23v-53h22q7 56 61 59q61 -2 62 -70q-2 -68 -62 -70q-58 2 -62 65z" />
    <glyph glyph-name="uni044F" unicode="&#x44f;" 
d="M116 132h66v-132h-23v53h-26l-33 -53h-26l35 53q-33 7 -33 40q1 38 40 39zM159 113h-41q-22 -1 -22 -21q1 -20 23 -21h40v42z" />
    <glyph glyph-name="uni0451" unicode="&#x451;" 
d="M189 61h-99q2 -38 37 -43q28 -1 38 23h24q-17 -42 -62 -42q-59 5 -61 71q5 69 64 70q61 -3 59 -79zM90 81h75q-3 36 -34 39q-37 -1 -41 -39zM156 183q9 -1 10 -11q-1 -11 -10 -11q-10 1 -11 11q1 10 11 11zM98 183q10 -1 11 -11q-1 -10 -11 -11q-10 0 -10 11q0 10 10 11z
" />
    <glyph glyph-name="emdash" unicode="&#x2014;" 
d="M0 98h256v-21h-256v21z" />
    <glyph glyph-name="uni2016" unicode="&#x2016;" 
d="M111 -48h-11v235h11v-235zM156 -48h-11v235h11v-235z" />
    <glyph glyph-name="quoteleft" unicode="&#x2018;" 
d="M173 124v37q5 35 35 41v-16q-12 -6 -13 -15v-7h16v-40h-38z" />
    <glyph glyph-name="quoteright" unicode="&#x2019;" 
d="M83 202v-37q-4 -36 -35 -41v16q10 1 13 15v7h-16v40h38z" />
    <glyph glyph-name="quotedblleft" unicode="&#x201c;" 
d="M203 127v37q3 33 35 41v-16q-5 -3 -8 -6q-6 -7 -5 -9v-7h16v-40h-38zM144 127v37q5 35 35 41v-16q-12 -6 -13 -15v-7h16v-40h-38z" />
    <glyph glyph-name="quotedblright" unicode="&#x201d;" 
d="M112 205v-37q-4 -35 -35 -41v16q4 1 8 6t5 9v7h-16v40h38zM54 205v-37q-4 -36 -35 -41v16q10 1 13 15v7h-16v40h38z" />
    <glyph glyph-name="ellipsis" unicode="&#x2026;" 
d="M215 106q17 -2 19 -18q-1 -19 -18 -19q-20 0 -20 19q1 16 19 18zM41 106q17 -2 19 -18q-1 -19 -18 -19q-20 0 -20 19q1 16 19 18zM127 106q17 -2 19 -18q-1 -19 -18 -19q-20 0 -20 19q1 16 19 18z" />
    <glyph glyph-name="perthousand" unicode="&#x2030;" 
d="M131 15q11 0 11 24v1q0 24 -11 25q-12 0 -12 -25h1q0 -1 -1 -1q0 -24 12 -24zM182 40q0 43 35 44q36 -1 36 -44q0 -42 -36 -42t-35 42zM217 15q11 0 12 25q-1 24 -12 25q-12 0 -12 -25h1q0 -1 -1 -1q0 -24 12 -24zM3 137q-1 44 35 44t36 -44t-36 -44q-35 0 -35 44zM19 -2
l109 188h21l-109 -188h-21zM38 113q11 0 12 24q-1 24 -12 25q-12 0 -12 -25h1q0 -1 -1 -1q0 -23 12 -23zM95 40q-1 43 36 44q35 -1 36 -44q-1 -41 -36 -42q-37 0 -36 42z" />
    <glyph glyph-name="minute" unicode="&#x2032;" 
d="M29 106h-7l10 57q2 20 17 20q13 -1 14 -12q-1 -6 -5 -13z" />
    <glyph glyph-name="second" unicode="&#x2033;" 
d="M7 106h-6l9 60q2 17 18 17q12 -1 13 -12q0 -4 -3 -11l-1 -2zM50 106h-7l10 60q3 17 17 17q13 -1 14 -12q-1 -6 -5 -13z" />
    <glyph glyph-name="uni203B" unicode="&#x203b;" 
d="M41 12l81 81l-77 77q-5 4 -1 8q3 3 8 -1l77 -77l80 80q3 2 6 -2q2 -4 -1 -7l-78 -78l79 -79q2 -9 -6 -8l-80 80l-80 -80q-9 -3 -8 6zM62 112q17 -2 19 -19q-2 -17 -19 -19q-18 1 -19 19q1 17 19 19zM129 43q17 -2 19 -19q-2 -17 -19 -19q-18 1 -19 19q1 17 19 19z
M195 112q17 -2 19 -19q-2 -17 -19 -19q-18 1 -19 19q1 17 19 19zM129 181q17 -2 19 -19q-2 -17 -19 -19q-18 1 -19 19q1 17 19 19z" />
    <glyph glyph-name="uni2103" unicode="&#x2103;" 
d="M239 125h-42q-2 33 -35 35q-34 -2 -36 -68q2 -66 36 -67q33 1 35 35h42q-4 -61 -77 -62q-76 2 -78 94q2 93 78 96q73 -1 77 -63zM93 163q-4 -36 -38 -39q-35 3 -38 39q2 34 38 38q34 -4 38 -38zM35 163q1 -20 20 -21q19 1 21 21q-2 17 -21 20q-20 -3 -20 -20z" />
    <glyph glyph-name="uni2116" unicode="&#x2116;" 
d="M138 0h-44l-58 154v-1v-153h-29v185h46l56 -146v1v145h29v-185zM249 78q-3 -60 -54 -62q-52 2 -54 62q2 59 54 62q51 -3 54 -62zM173 78q-1 -40 22 -39q22 -1 22 39q0 38 -22 38q-23 0 -22 -38zM230 13v-13h-69v13h69z" />
    <glyph glyph-name="uni2160" unicode="&#x2160;" 
d="M143 204v-218h-31v218h31z" />
    <glyph glyph-name="uni2161" unicode="&#x2161;" 
d="M173 204v-218h-30v218h30zM113 203v-218h-30v218h30z" />
    <glyph glyph-name="uni2162" unicode="&#x2162;" 
d="M142 204v-218h-28v218h28zM193 204v-218h-28v218h28zM91 203v-218h-28v218h28z" />
    <glyph glyph-name="uni2163" unicode="&#x2163;" 
d="M146 16l54 188h30l-70 -219h-28l-70 219h29zM52 204v-219h-26v219h26z" />
    <glyph glyph-name="uni2164" unicode="&#x2164;" 
d="M128 16l58 187h31l-74 -217h-30l-75 217h31z" />
    <glyph glyph-name="uni2165" unicode="&#x2165;" 
d="M109 16l56 188h30l-72 -219h-28l-72 219h30zM233 204v-219h-27v219h27z" />
    <glyph glyph-name="uni2166" unicode="&#x2166;" 
d="M237 204v-219h-23v219h23zM203 204v-219h-24v219h24zM95 16l48 188h26l-63 -219h-24l-63 219h26l49 -188h1z" />
    <glyph glyph-name="uni2167" unicode="&#x2167;" 
d="M86 16l48 188h26l-62 -219h-25l-63 219h26l49 -188h1zM216 204v-219h-23v219h23zM246 204v-219h-23v219h23zM187 204v-219h-24v219h24z" />
    <glyph glyph-name="uni2168" unicode="&#x2168;" 
d="M51 204v-219h-26v219h26zM163 96l68 -111h-33l-52 89l-54 -89h-31l69 111l-65 108h33l49 -85l50 85h31z" />
    <glyph glyph-name="uni2169" unicode="&#x2169;" 
d="M146 96l71 -110h-34l-55 88l-56 -88h-33l73 110l-68 107h34l52 -84l51 84h33z" />
    <glyph glyph-name="uni216A" unicode="&#x216a;" 
d="M126 96l68 -111h-32l-52 89l-54 -89h-31l69 111l-65 108h33l49 -85l49 85h31zM231 204v-219h-26v219h26z" />
    <glyph glyph-name="uni216B" unicode="&#x216b;" 
d="M239 204v-218h-24v218h24zM205 204v-219h-24v219h24zM110 96l62 -111h-29l-48 88l-50 -88h-29l64 111l-60 107h30l46 -84l45 84h28z" />
    <glyph glyph-name="uni2170" unicode="&#x2170;" 
d="M142 144v-158h-29v158h29zM142 173h-29v30h29v-30z" />
    <glyph glyph-name="uni2171" unicode="&#x2171;" 
d="M112 144v-158h-28v158h28zM112 173h-28v30h28v-30zM172 144v-158h-28v158h28zM172 173h-28v30h28v-30z" />
    <glyph glyph-name="uni2172" unicode="&#x2172;" 
d="M141 144v-158h-26v158h26zM141 173h-26v31h26v-31zM191 144v-158h-26v158h26zM191 173h-26v31h26v-31zM91 144v-159h-26v159h26zM91 173h-26v30h26v-30z" />
    <glyph glyph-name="uni2173" unicode="&#x2173;" 
d="M69 143v-158h-25v158h25zM69 172h-25v30h25v-30zM143 12l42 131h27l-56 -159h-27l-54 159h29l38 -131h1z" />
    <glyph glyph-name="uni2174" unicode="&#x2174;" 
d="M128 13l49 131h32l-67 -158h-31l-64 158h34l46 -131h1z" />
    <glyph glyph-name="uni2175" unicode="&#x2175;" 
d="M112 13l43 131h28l-58 -158h-28l-56 158h30l40 -131h1zM215 144v-158h-26v158h26zM215 173h-26v31h26v-31z" />
    <glyph glyph-name="uni2176" unicode="&#x2176;" 
d="M229 144v-158h-24v158h24zM229 173h-24v30h24v-30zM194 144v-158h-25v158h25zM194 173h-25v30h25v-30zM94 13l40 130h28l-56 -158h-26l-53 158h28l38 -130h1z" />
    <glyph glyph-name="uni2177" unicode="&#x2177;" 
d="M78 14l37 129h24l-50 -157h-24l-48 157h26l34 -129h1zM168 144v-158h-22v158h22zM168 172h-22v31h22v-31zM203 144v-158h-21v158h21zM203 172h-21v31h21v-31zM239 144v-158h-23v158h23zM239 173h-23v30h23v-30z" />
    <glyph glyph-name="uni2178" unicode="&#x2178;" 
d="M66 144v-158h-26v158h26zM66 173h-26v31h26v-31zM162 66l54 -80h-33l-38 58l-37 -58h-32l54 80l-52 78h33l36 -56l35 56h32z" />
    <glyph glyph-name="uni2179" unicode="&#x2179;" 
d="M146 66l61 -80h-37l-43 58l-42 -58h-36l60 80l-57 78h37l40 -56l40 56h36z" />
    <glyph glyph-name="arrowleft" unicode="&#x2190;" 
d="M256 92v-8h-210q20 -22 20 -45q-28 34 -66 50q38 13 66 49q-2 -28 -20 -46h210z" />
    <glyph glyph-name="arrowup" unicode="&#x2191;" 
d="M132 -33h-8v208q-25 -21 -46 -19q35 25 50 65q13 -38 50 -65q-29 1 -46 19v-208z" />
    <glyph glyph-name="arrowright" unicode="&#x2192;" 
d="M0 92h210q-19 17 -20 46q27 -36 66 -49q-39 -16 -66 -50q-1 21 20 45h-210v8z" />
    <glyph glyph-name="arrowdown" unicode="&#x2193;" 
d="M132 221v-210q17 18 46 20q-38 -28 -50 -64q-14 38 -50 64q21 1 46 -20v210h8z" />
    <glyph glyph-name="element" unicode="&#x2208;" 
d="M188 12v-12h-70q-51 0 -51 54t51 55h70v-12h-71q-34 -1 -37 -36h105v-12h-105q2 -37 37 -37h71z" />
    <glyph glyph-name="product" unicode="&#x220f;" 
d="M203 161v-160q-2 -20 25 -19v-6h-79v6q25 -1 25 19v177h-92v-177q-1 -20 25 -19v-6h-79v6q26 -1 25 19v160q-1 25 -24 25v6h198v-6q-24 0 -24 -25z" />
    <glyph glyph-name="summation" unicode="&#x2211;" 
d="M195 190l2 -40h-6q-1 1 -2 3q-3 27 -37 26h-67l70 -92l-75 -87h95q24 -2 34 29h6q-2 -7 -4 -16q-5 -17 -7 -39q-3 1 -8 2q-8 2 -12 1h-128h-9q-4 -1 -6 -1l89 100l-89 116q13 -2 27 -2h127z" />
    <glyph glyph-name="radical" unicode="&#x221a;" 
d="M124 0l128 218h4v-10l-136 -235h-6l-82 155l-29 -16l-3 8l47 26z" />
    <glyph glyph-name="proportional" unicode="&#x221d;" 
d="M47 82q2 45 42 48q26 -1 41 -36q16 35 50 34q23 -1 27 -7q-1 -5 -3 -5q-3 -1 -8 0t-7 1q-34 3 -51 -41q17 -28 49 -27q3 0 10 1q4 1 6 1q6 0 6 -3q-8 -12 -29 -12q-33 -1 -45 33q-17 -37 -45 -35q-41 1 -43 48zM55 80q1 -30 30 -31q21 0 38 34q1 3 3 6q-12 24 -37 25
q-33 -2 -34 -34z" />
    <glyph glyph-name="infinity" unicode="&#x221e;" 
d="M50 76q1 47 38 50q25 -2 35 -30q15 30 42 30q38 -3 41 -47q-2 -48 -38 -50q-26 1 -35 31q-17 -32 -43 -31q-37 2 -40 47zM200 80q-2 24 -26 26q-22 0 -36 -37q-1 -1 -1 -2q12 -14 32 -15q28 2 31 28zM56 75q1 -25 26 -25q23 -1 37 38q-11 13 -32 15q-30 -3 -31 -28z" />
    <glyph glyph-name="angle" unicode="&#x2220;" 
d="M41 1l121 160l9 -6l-109 -144h153v-10h-174z" />
    <glyph glyph-name="uni2225" unicode="&#x2225;" 
d="M109 -30h-9l124 246h9zM33 -30h-10l126 248h10z" />
    <glyph glyph-name="logicaland" unicode="&#x2227;" 
d="M200 -6h-13l-56 184l-62 -182h-13l67 198h16z" />
    <glyph glyph-name="logicalor" unicode="&#x2228;" 
d="M69 192l59 -187l60 187h12l-64 -201h-16l-64 201h13z" />
    <glyph glyph-name="intersection" unicode="&#x2229;" 
d="M191 0v92q-2 57 -63 59q-62 -2 -63 -59v-92h-15v92q1 71 78 74q76 -3 78 -74v-92h-15z" />
    <glyph glyph-name="union" unicode="&#x222a;" 
d="M191 68v93h15v-91q-2 -71 -78 -73q-77 2 -78 73v91h15v-93q1 -57 63 -58q61 1 63 58z" />
    <glyph glyph-name="integral" unicode="&#x222b;" 
d="M122 35l3 84q2 56 26 58q7 -1 8 -7q-1 -5 -5 -5q-3 0 -6 3q-2 3 -3 3q-9 3 -11 -51l-3 -86q-2 -84 -27 -81q-8 1 -7 7q0 5 5 5q3 0 5 -3t3 -3q9 -4 12 76z" />
    <glyph glyph-name="uni222E" unicode="&#x222e;" 
d="M133 89l-1 -48q19 3 21 24q-2 19 -20 24zM122 42l2 47q-19 -5 -20 -24q1 -19 18 -23zM134 120v-25q23 -6 25 -30q-3 -27 -28 -30v-1q-1 -34 -5 -54q-6 -26 -22 -27q-8 1 -7 7q0 5 5 5q3 0 5 -3t3 -3q10 0 12 57v19q-23 6 -24 30q1 25 26 30l2 24q2 57 25 58q7 -1 8 -7
q-1 -5 -5 -5q-3 0 -6 3q-2 3 -3 3q-10 1 -11 -51z" />
    <glyph glyph-name="therefore" unicode="&#x2234;" 
d="M59 17q1 14 17 16q14 -2 16 -16q-2 -16 -16 -17q-16 1 -17 17zM164 17q1 14 16 16q15 -2 17 -16q-2 -16 -17 -17q-15 1 -16 17zM111 106q1 14 17 16q15 -2 17 -16q-2 -16 -17 -17q-16 1 -17 17z" />
    <glyph glyph-name="uni2235" unicode="&#x2235;" 
d="M59 105q1 15 17 17q14 -2 16 -17q-2 -16 -16 -17q-16 1 -17 17zM164 105q1 15 16 17q15 -2 17 -17q-2 -16 -17 -17q-15 1 -16 17zM111 17q1 15 17 17q15 -2 17 -17q-2 -16 -17 -17q-16 1 -17 17z" />
    <glyph glyph-name="uni2236" unicode="&#x2236;" 
d="M144 26h-32v34h32v-34zM144 121h-32v34h32v-34z" />
    <glyph glyph-name="uni2237" unicode="&#x2237;" 
d="M171 140q11 -2 13 -13q-2 -12 -13 -13q-12 1 -13 13q1 11 13 13zM171 49q11 -2 13 -12q-2 -12 -13 -13q-12 1 -13 13q1 10 13 12zM85 140q11 -2 13 -13q-2 -12 -13 -13q-12 1 -13 13q1 11 13 13zM85 49q11 -2 13 -12q-2 -12 -13 -13q-12 1 -13 13q1 10 13 12z" />
    <glyph glyph-name="uni223D" unicode="&#x223d;" 
d="M226 49h-11q-3 53 -40 55q-18 0 -44 -27q-28 -28 -49 -28q-51 0 -52 66h10q1 -55 40 -55q20 0 45 26q27 29 50 29q48 -2 51 -66z" />
    <glyph glyph-name="approxequal" unicode="&#x2248;" 
d="M212 118v-14q-22 -18 -42 -17q-17 0 -45 11q-25 10 -38 10q-21 0 -43 -19v13q22 18 42 18q16 0 44 -12q25 -9 39 -9q20 -1 43 19zM212 80v-14q-22 -18 -42 -17q-17 0 -45 10q-25 10 -38 10q-21 0 -43 -19v14q21 17 42 17q16 0 44 -12q25 -9 39 -9q19 -1 43 20z" />
    <glyph glyph-name="uni224C" unicode="&#x224c;" 
d="M228 12h-204v11h204v-11zM228 48h-204v11h204v-11zM226 87h-11q-3 52 -40 54q-18 0 -44 -26q-28 -28 -49 -28q-50 0 -52 65h10q1 -55 40 -55q20 0 45 26q27 29 50 29q48 -2 51 -65z" />
    <glyph glyph-name="notequal" unicode="&#x2260;" 
d="M101 57h-58v12h68l20 27h-88v12h97l45 59h13l-45 -59h60v-12h-69l-20 -27h89v-12h-99l-44 -58h-13z" />
    <glyph glyph-name="equivalence" unicode="&#x2261;" 
d="M212 111h-168v12h168v-12zM212 41h-168v12h168v-12zM212 76h-168v12h168v-12z" />
    <glyph glyph-name="lessequal" unicode="&#x2264;" 
d="M215 59v-16l-174 48v16l174 48v-15l-152 -41zM215 12v-13l-174 47v15z" />
    <glyph glyph-name="greaterequal" unicode="&#x2265;" 
d="M215 61v-15l-174 -47v13zM215 107v-16l-174 -48v16l152 40l-152 41v15z" />
    <glyph glyph-name="uni226E" unicode="&#x226e;" 
d="M113 61l23 52l-78 -30zM213 21v-12l-94 38l-21 -48h-12l23 52l-66 26v11l99 39l16 40h12l-14 -34l57 23v-12l-63 -25l-27 -62z" />
    <glyph glyph-name="uni226F" unicode="&#x226f;" 
d="M98 -1h-12l15 34l-58 -24v13l64 25l26 62l-90 36v11l95 -37l20 48h12l-22 -53l65 -26v-11l-98 -39zM143 104l-22 -52l77 31z" />
    <glyph glyph-name="uni2299" unicode="&#x2299;" 
d="M128 76q-14 1 -15 15q1 13 15 15q13 -2 15 -15q-2 -14 -15 -15zM128 9q74 7 82 82q-8 75 -82 83q-75 -8 -82 -83q7 -75 82 -82zM128 184q84 -9 93 -93q-8 -84 -93 -91q-86 7 -93 91q8 84 93 93z" />
    <glyph glyph-name="perpendicular" unicode="&#x22a5;" 
d="M52 11h70v150h12v-150h70v-10h-152v10z" />
    <glyph glyph-name="uni2312" unicode="&#x2312;" 
d="M234 58l-1 -2q-4 0 -14 11q-39 42 -88 45h-7q-50 -3 -88 -45q-10 -11 -13 -11l-1 2q35 71 105 72q73 0 107 -72z" />
    <glyph glyph-name="uni2460" unicode="&#x2460;" 
d="M128 218q114 -11 125 -125q-11 -111 -125 -122q-115 11 -125 122q10 114 125 125zM139 178v-170h-22v121h-39v17q39 -2 45 32h16zM128 212q-109 -10 -119 -119q9 -106 119 -116q109 10 119 116q-10 109 -119 119z" />
    <glyph glyph-name="uni2461" unicode="&#x2461;" 
d="M128 218q114 -11 125 -125q-11 -111 -125 -122q-115 11 -125 122q10 114 125 125zM95 118h-22q0 59 60 60q51 -4 54 -50q1 -36 -46 -57l-18 -10q-28 -15 -30 -33h94v-20h-118q0 46 40 68l23 13q34 14 32 40q-3 28 -34 30q-35 -1 -35 -41zM128 212q-109 -10 -119 -119
q9 -106 119 -116q109 10 119 116q-10 109 -119 119z" />
    <glyph glyph-name="uni2462" unicode="&#x2462;" 
d="M128 218q114 -11 125 -125q-11 -111 -125 -122q-115 11 -125 122q10 114 125 125zM115 89v19q5 -2 11 -1q32 0 33 28q-2 26 -32 27q-33 0 -34 -37h-21q1 55 56 56q50 -3 53 -45q-1 -27 -22 -35q29 -10 29 -40q-4 -54 -62 -55q-20 0 -32 8q-24 11 -26 49h22q1 -38 37 -37
q35 1 38 32q-1 31 -40 31h-10zM128 212q-109 -10 -119 -119q9 -106 119 -116q109 10 119 116q-10 109 -119 119z" />
    <glyph glyph-name="uni2463" unicode="&#x2463;" 
d="M128 218q114 -11 125 -125q-11 -111 -125 -122q-115 11 -125 122q10 114 125 125zM189 50h-25v-42h-22v42h-75v21l79 107h18v-110h25v-18zM142 145l-55 -77h55v77zM128 212q-109 -10 -119 -119q9 -106 119 -116q109 10 119 116q-10 109 -119 119z" />
    <glyph glyph-name="uni2464" unicode="&#x2464;" 
d="M128 218q114 -11 125 -125q-11 -111 -125 -122q-115 11 -125 122q10 114 125 125zM104 158l-7 -47q13 10 33 11q53 -5 57 -54q-4 -59 -63 -60q-50 1 -55 47h22q3 -28 37 -28q33 2 36 38q-2 36 -38 38q-20 -1 -32 -16l-19 1l13 91h89v-21h-73zM128 212q-109 -10 -119 -119
q9 -106 119 -116q109 10 119 116q-10 109 -119 119z" />
    <glyph glyph-name="uni2465" unicode="&#x2465;" 
d="M128 218q114 -11 125 -125q-11 -111 -125 -122q-115 11 -125 122q10 114 125 125zM183 136h-21q-6 26 -30 26q-37 -2 -41 -63l1 -1q11 20 41 21q52 -5 54 -54q0 -26 -17 -42q-15 -18 -43 -17q-28 0 -45 25q-14 20 -13 59q2 89 64 91q46 -4 50 -45zM94 63q2 -36 37 -37
q32 2 34 38q-3 34 -35 36q-35 -2 -36 -37zM128 212q-109 -10 -119 -119q9 -106 119 -116q109 10 119 116q-10 109 -119 119z" />
    <glyph glyph-name="uni2466" unicode="&#x2466;" 
d="M128 218q114 -11 125 -125q-11 -111 -125 -122q-115 11 -125 122q10 114 125 125zM68 156v20h120v-18q-57 -62 -72 -148h-23q12 75 70 146h-95zM128 212q-109 -10 -119 -119q9 -106 119 -116q109 10 119 116q-10 109 -119 119z" />
    <glyph glyph-name="uni2467" unicode="&#x2467;" 
d="M128 218q114 -11 125 -125q-11 -111 -125 -122q-115 11 -125 122q10 114 125 125zM181 137q0 -25 -22 -36q27 -12 28 -41q-4 -52 -59 -54q-24 0 -41 13q-19 14 -18 41q0 29 29 41q-23 8 -23 33q3 45 52 47q50 -2 54 -44zM128 91q-34 -2 -36 -32q1 -33 37 -33q34 0 35 32
q-2 31 -36 33zM128 109q27 1 30 27q-2 25 -32 26q-28 -1 -29 -27q2 -24 31 -26zM128 212q-109 -10 -119 -119q9 -106 119 -116q109 10 119 116q-10 109 -119 119z" />
    <glyph glyph-name="uni2468" unicode="&#x2468;" 
d="M128 218q114 -11 125 -125q-11 -111 -125 -122q-115 11 -125 122q10 114 125 125zM72 52h22q2 -28 29 -28q34 -1 41 64q-12 -19 -40 -20q-52 2 -54 55q3 55 55 58q60 -1 61 -79q-4 -95 -63 -96q-47 1 -51 46zM127 87q33 1 34 38q-2 36 -35 37q-33 -3 -34 -39
q0 -37 35 -36zM128 212q-109 -10 -119 -119q9 -106 119 -116q109 10 119 116q-10 109 -119 119z" />
    <glyph glyph-name="uni2469" unicode="&#x2469;" 
d="M128 218q114 -11 125 -125q-11 -111 -125 -122q-115 11 -125 122q10 114 125 125zM97 178v-170h-23v121h-41v17q42 -1 47 32h17zM199 94q-1 67 -36 68q-37 -1 -37 -68q-1 -69 37 -68q35 0 36 68zM223 94q-2 -87 -60 -88q-59 0 -60 88q1 86 60 87q58 -2 60 -87zM128 212
q-109 -10 -119 -119q9 -106 119 -116q109 10 119 116q-10 109 -119 119z" />
    <glyph glyph-name="uni2474" unicode="&#x2474;" 
d="M43 214h16q-22 -40 -28 -63q-8 -26 -7 -64q-2 -47 35 -112h-15q-44 61 -44 118t43 121zM212 -25h-15q37 58 35 125q1 45 -35 114h15q46 -67 44 -120q1 -60 -44 -119zM141 184v-180h-25v127h-42v18q44 -2 49 35h18z" />
    <glyph glyph-name="uni2475" unicode="&#x2475;" 
d="M43 214h16q-22 -40 -28 -63q-8 -26 -7 -64q-2 -47 35 -112h-15q-44 61 -44 118t43 121zM212 -25h-15q37 58 35 125q1 45 -35 114h15q46 -67 44 -120q1 -60 -44 -119zM93 119h-22q0 63 62 65q52 -4 56 -54q1 -38 -48 -60l-18 -11q-28 -15 -31 -34h97v-21h-123q1 49 43 71
l23 14q35 15 33 42q-3 30 -35 32q-36 0 -37 -44z" />
    <glyph glyph-name="uni2476" unicode="&#x2476;" 
d="M43 214h16q-22 -40 -28 -63q-8 -26 -7 -64q-2 -47 35 -112h-15q-44 61 -44 118t43 121zM212 -25h-15q37 58 35 125q1 45 -35 114h15q46 -67 44 -120q1 -60 -44 -119zM114 89v19h12q33 0 34 29q-2 28 -33 29q-34 0 -35 -39h-22q1 58 58 59q53 -3 56 -48q-1 -28 -23 -37
q29 -11 29 -42q-3 -57 -64 -58q-21 0 -34 8q-25 11 -26 52h23q1 -41 38 -40q36 1 39 35q-1 33 -42 33h-10z" />
    <glyph glyph-name="uni2477" unicode="&#x2477;" 
d="M43 214h16q-22 -40 -28 -63q-8 -26 -7 -64q-2 -47 35 -112h-15q-44 61 -44 118t43 121zM212 -25h-15q37 58 35 125q1 45 -35 114h15q46 -67 44 -120q1 -60 -44 -119zM192 47h-27v-43h-22v43h-79v22l83 115h18v-117h27v-20zM142 148l-57 -81h58v81h-1z" />
    <glyph glyph-name="uni2478" unicode="&#x2478;" 
d="M43 214h16q-22 -40 -28 -63q-8 -26 -7 -64q-2 -47 35 -112h-15q-44 61 -44 118t43 121zM212 -25h-15q37 58 35 125q1 45 -35 114h15q46 -67 44 -120q1 -60 -44 -119zM103 162l-7 -49q12 10 35 11q55 -6 59 -58q-4 -62 -66 -63q-52 1 -58 50h24q3 -30 38 -30q35 2 38 41
q-2 37 -40 40q-20 -1 -34 -17l-19 1l14 96h93v-22h-77z" />
    <glyph glyph-name="uni2479" unicode="&#x2479;" 
d="M43 214h16q-22 -40 -28 -63q-8 -26 -7 -64q-2 -47 35 -112h-15q-44 61 -44 118t43 121zM212 -25h-15q37 58 35 125q1 45 -35 114h15q46 -67 44 -120q1 -60 -44 -119zM186 138h-22q-6 27 -31 28q-40 -2 -43 -67q15 21 43 22q53 -6 56 -58q0 -27 -17 -45q-15 -18 -45 -17
q-31 1 -47 26q-14 22 -13 63q2 94 66 96q48 -3 53 -48zM93 61q2 -39 38 -40q33 2 35 41q-3 37 -36 38q-36 -2 -37 -39z" />
    <glyph glyph-name="uni247A" unicode="&#x247a;" 
d="M43 214h16q-22 -40 -28 -63q-8 -26 -7 -64q-2 -47 35 -112h-15q-44 61 -44 118t43 121zM212 -25h-15q37 58 35 125q1 45 -35 114h15q46 -67 44 -120q1 -60 -44 -119zM66 159v23h124v-20q-59 -67 -74 -157h-25q14 81 74 154h-99z" />
    <glyph glyph-name="uni247B" unicode="&#x247b;" 
d="M43 214h16q-22 -40 -28 -63q-8 -26 -7 -64q-2 -47 35 -112h-15q-44 61 -44 118t43 121zM212 -25h-15q37 58 35 125q1 45 -35 114h15q46 -67 44 -120q1 -60 -44 -119zM183 140q0 -28 -23 -38q28 -14 29 -44q-4 -56 -61 -57q-26 0 -43 14q-19 14 -18 43q0 31 30 43
q-24 10 -24 35q3 48 54 50q51 -2 56 -46zM128 90q-36 -2 -37 -33q1 -36 38 -36q35 0 36 34q-1 33 -37 35zM127 110q30 1 32 29q-2 26 -33 27q-29 -1 -30 -29q1 -25 31 -27z" />
    <glyph glyph-name="uni247C" unicode="&#x247c;" 
d="M43 214h16q-22 -40 -28 -63q-8 -26 -7 -64q-2 -47 35 -112h-15q-44 61 -44 118t43 121zM212 -25h-15q37 58 35 125q1 45 -35 114h15q46 -67 44 -120q1 -60 -44 -119zM70 49h22q2 -29 31 -29q35 -2 43 67l-1 1q-11 -21 -41 -22q-54 2 -56 58q3 59 57 62q63 -1 63 -84
q-4 -100 -65 -101q-49 1 -53 48zM127 86q34 1 35 41q-2 38 -36 39q-34 -3 -35 -41q0 -39 36 -39z" />
    <glyph glyph-name="uni247D" unicode="&#x247d;" 
d="M43 214h16q-22 -40 -28 -63q-8 -26 -7 -64q-2 -47 35 -112h-15q-44 61 -44 118t43 121zM212 -25h-15q37 58 35 125q1 45 -35 114h15q46 -67 44 -120q1 -60 -44 -119zM95 184v-180h-23v127h-41v18q42 -2 47 35h17zM201 93q-1 71 -37 73q-36 -1 -36 -73q0 -71 36 -71t37 71
zM224 93q-2 -92 -60 -92q-58 1 -59 92q1 92 59 93q58 -1 60 -93z" />
    <glyph glyph-name="uni247E" unicode="&#x247e;" 
d="M43 214h16q-22 -40 -28 -63q-8 -26 -7 -64q-2 -47 35 -112h-15q-44 61 -44 118t43 121zM212 -25h-15q37 58 35 125q1 45 -35 114h15q46 -67 44 -120q1 -60 -44 -119zM108 184v-181h-24v128h-40v18q42 -2 47 35h17zM198 184v-181h-23v128h-41v18q42 -2 47 35h17z" />
    <glyph glyph-name="uni247F" unicode="&#x247f;" 
d="M43 214h16q-22 -40 -28 -63q-8 -26 -7 -64q-2 -47 35 -112h-15q-44 61 -44 118t43 121zM212 -25h-15q37 58 35 125q1 45 -35 114h15q46 -67 44 -120q1 -60 -44 -119zM94 184v-181h-22v128h-38v18q40 -2 44 35h16zM123 119h-21q0 62 57 65q49 -4 52 -54q1 -36 -44 -61
l-17 -10q-25 -15 -29 -34h90v-22h-113q2 49 39 72l21 14q33 16 31 42q-3 30 -33 32q-32 0 -33 -44z" />
    <glyph glyph-name="uni2480" unicode="&#x2480;" 
d="M43 214h16q-22 -40 -28 -63q-8 -26 -7 -64q-2 -47 35 -112h-15q-44 61 -44 118t43 121zM212 -25h-15q37 58 35 125q1 45 -35 114h15q46 -67 44 -120q1 -60 -44 -119zM98 184v-180h-23v127h-40v18q41 -2 46 35h17zM148 89v19h11q32 0 33 29q-2 28 -32 29q-33 0 -34 -39
h-21q1 58 56 59q51 -3 54 -48q-1 -29 -23 -37q29 -11 29 -42q-4 -57 -62 -58q-17 0 -32 8q-25 13 -26 52h22q0 -40 37 -39q35 1 38 34q-1 33 -40 33h-10z" />
    <glyph glyph-name="uni2481" unicode="&#x2481;" 
d="M43 214h16q-22 -40 -28 -63q-8 -26 -7 -64q-2 -47 35 -112h-15q-44 61 -44 118t43 121zM212 -25h-15q37 58 35 125q1 45 -35 114h15q46 -67 44 -120q1 -60 -44 -119zM97 184v-181h-23v128h-40v18q41 -2 46 35h17zM222 47h-25v-44h-22v44h-75v22l79 115h18v-117h25v-20z
M175 148l-55 -81h55v81z" />
    <glyph glyph-name="uni2482" unicode="&#x2482;" 
d="M43 214h16q-22 -40 -28 -63q-8 -26 -7 -64q-2 -47 35 -112h-15q-44 61 -44 118t43 121zM212 -25h-15q37 58 35 125q1 45 -35 114h15q46 -67 44 -120q1 -60 -44 -119zM137 162l-7 -50q13 12 33 12q52 -5 56 -57q-4 -63 -62 -64q-50 1 -55 50h22q3 -30 36 -30q33 2 36 41
q-2 37 -38 39q-20 -1 -31 -16l-19 1l13 96h89v-22h-73zM97 183v-179h-23v127h-40v18q41 -2 46 34h17z" />
    <glyph glyph-name="uni2483" unicode="&#x2483;" 
d="M43 214h16q-22 -40 -28 -63q-8 -26 -7 -64q-2 -47 35 -112h-15q-44 61 -44 118t43 121zM212 -25h-15q37 58 35 125q1 45 -35 114h15q46 -67 44 -120q1 -60 -44 -119zM99 184v-180h-23v127h-41v18q42 -2 47 35h17zM217 138h-21q-6 28 -30 28q-38 -2 -41 -67q14 21 41 22
q52 -6 55 -57q0 -27 -17 -45q-14 -19 -44 -18q-29 1 -44 26q-15 21 -14 63q3 93 64 96q47 -4 51 -48zM128 61q2 -38 36 -39q32 1 34 41q-2 36 -35 37q-34 -2 -35 -39z" />
    <glyph glyph-name="uni2484" unicode="&#x2484;" 
d="M43 214h16q-22 -40 -28 -63q-8 -26 -7 -64q-2 -47 35 -112h-15q-44 61 -44 118t43 121zM212 -25h-15q37 58 35 125q1 45 -35 114h15q46 -67 44 -120q1 -60 -44 -119zM94 184v-181h-22v128h-39v18q40 -2 45 35h16zM104 182h107v-20q-53 -68 -67 -157h-23q12 78 67 154h-84
v23z" />
    <glyph glyph-name="uni2485" unicode="&#x2485;" 
d="M43 214h16q-22 -40 -28 -63q-8 -26 -7 -64q-2 -47 35 -112h-15q-44 61 -44 118t43 121zM212 -25h-15q37 58 35 125q1 45 -35 114h15q46 -67 44 -120q1 -60 -44 -119zM99 184v-180h-23v127h-41v18q42 -2 47 35h17zM215 140q0 -28 -23 -38q28 -13 29 -44q-4 -55 -59 -57
q-25 0 -42 14q-19 15 -18 43q0 31 30 43q-24 10 -24 35q4 48 53 50q49 -2 54 -46zM162 91q-34 -2 -36 -34q1 -35 37 -35q33 0 34 34q-2 33 -35 35zM161 110q29 1 31 29q-2 26 -32 27q-29 -1 -29 -29q1 -26 30 -27z" />
    <glyph glyph-name="uni2486" unicode="&#x2486;" 
d="M43 214h16q-22 -40 -28 -63q-8 -26 -7 -64q-2 -47 35 -112h-15q-44 61 -44 118t43 121zM212 -25h-15q37 58 35 125q1 45 -35 114h15q46 -67 44 -120q1 -60 -44 -119zM106 49h22q3 -29 30 -29q34 -1 41 67v1q-12 -21 -40 -22q-52 3 -54 58q3 59 55 62q61 -1 61 -84
q-4 -100 -63 -101q-48 1 -52 48zM162 87q33 1 34 40q-2 37 -35 39q-33 -2 -34 -41q0 -39 35 -38zM99 183v-179h-23v127h-41v18q42 -2 47 34h17z" />
    <glyph glyph-name="uni2487" unicode="&#x2487;" 
d="M43 214h16q-22 -40 -28 -63q-8 -26 -7 -64q-2 -47 35 -112h-15q-44 61 -44 118t43 121zM212 -25h-15q37 58 35 125q1 45 -35 114h15q46 -67 44 -120q1 -60 -44 -119zM67 119h-16q0 63 44 65q38 -4 41 -54q1 -37 -34 -60l-14 -10q-21 -17 -22 -35h70v-21h-89q0 48 31 71
l17 14q25 16 24 42q-2 30 -26 32q-26 -1 -26 -44zM210 93q-1 71 -27 73q-28 -1 -28 -73q0 -71 28 -71q26 1 27 71zM227 93q-2 -91 -44 -92q-44 1 -45 92q1 92 45 93q42 -2 44 -93z" />
    <glyph glyph-name="uni2488" unicode="&#x2488;" 
d="M118 184v-180h-24v127h-42v18q43 -2 48 35h18zM204 26v-22h-21v22h21z" />
    <glyph glyph-name="uni2489" unicode="&#x2489;" 
d="M65 119h-23q0 63 62 65q53 -4 57 -54q1 -38 -48 -60l-19 -11q-28 -15 -31 -34h98v-21h-123q0 47 42 71l24 14q35 16 33 42q-3 30 -36 32q-35 0 -36 -44zM219 26v-22h-22v22h22z" />
    <glyph glyph-name="uni248A" unicode="&#x248a;" 
d="M86 89v19h12q33 0 34 29q-3 28 -33 29q-31 0 -36 -37v-2h-22q1 58 59 59q52 -3 55 -48q-1 -29 -23 -37q30 -10 30 -42q-4 -57 -65 -58q-20 0 -33 8q-24 11 -27 52h23q0 -41 39 -40q36 1 39 35q-1 32 -42 33h-10zM219 26v-22h-22v22h22z" />
    <glyph glyph-name="uni248B" unicode="&#x248b;" 
d="M164 47h-26v-43h-23v43h-78v22l82 115h19v-117h26v-20zM115 148l-58 -81h58v81zM220 26v-22h-22v22h22z" />
    <glyph glyph-name="uni248C" unicode="&#x248c;" 
d="M75 162l-8 -49q14 11 35 11q55 -6 59 -58q-4 -62 -65 -63q-53 1 -58 50h23q3 -30 38 -30q35 2 38 41q-2 37 -40 40q-21 -1 -33 -17l-20 1l14 96h93v-22h-76zM219 26v-22h-22v22h22z" />
    <glyph glyph-name="uni248D" unicode="&#x248d;" 
d="M157 138h-22q-6 27 -31 28q-40 -2 -43 -67q15 21 43 22q54 -6 57 -58q0 -26 -18 -45q-15 -18 -45 -17q-31 1 -47 26q-14 22 -13 63q2 94 66 96q48 -3 53 -48zM64 61q2 -39 38 -40q33 2 35 41q-3 37 -36 38q-36 -2 -37 -39zM218 26v-22h-21v22h21z" />
    <glyph glyph-name="uni248E" unicode="&#x248e;" 
d="M37 159v23h125v-20q-59 -67 -74 -157h-25q12 77 73 154h-99zM219 26v-22h-22v22h22z" />
    <glyph glyph-name="uni248F" unicode="&#x248f;" 
d="M154 140q0 -28 -23 -38q28 -14 29 -44q-4 -56 -61 -57q-26 0 -43 14q-19 14 -18 43q0 31 30 43q-24 10 -24 35q3 48 54 50q51 -2 56 -46zM99 90q-36 -2 -37 -33q1 -36 38 -36q35 0 36 34q-1 33 -37 35zM99 110q30 1 32 29q-3 26 -34 27q-29 -1 -30 -29q1 -26 32 -27z
M218 26v-22h-21v22h21z" />
    <glyph glyph-name="uni2490" unicode="&#x2490;" 
d="M40 49h23q2 -29 30 -29q36 -2 43 67v1q-12 -21 -41 -22q-55 2 -57 58q3 59 58 62q62 -1 63 -84q-4 -100 -65 -101q-50 1 -54 48zM98 86q34 1 35 41q-2 37 -37 39q-34 -3 -35 -41q0 -39 37 -39zM218 26v-22h-22v22h22z" />
    <glyph glyph-name="uni2491" unicode="&#x2491;" 
d="M79 183v-179h-23v127h-41v18q42 -2 47 34h17zM195 93q-1 71 -37 73q-36 -1 -36 -73q0 -71 36 -71t37 71zM218 93q-2 -91 -60 -92q-58 1 -59 92q1 92 59 93q58 -2 60 -93zM241 26v-22h-21v22h21z" />
    <glyph glyph-name="uni2492" unicode="&#x2492;" 
d="M86 184v-181h-23v128h-41v18q42 -2 47 35h17zM186 184v-181h-23v128h-40v18q41 -2 46 35h17zM234 26v-22h-22v22h22z" />
    <glyph glyph-name="uni2493" unicode="&#x2493;" 
d="M77 184v-181h-22v128h-39v18q40 -2 45 35h16zM115 119h-20q0 63 57 65q47 -4 51 -54q1 -37 -44 -61l-17 -10q-24 -15 -28 -34h89v-22h-112q0 49 38 72l22 14l2 1q29 16 28 41q-3 31 -32 32q-33 0 -34 -44zM240 26v-22h-22v22h22z" />
    <glyph glyph-name="uni2494" unicode="&#x2494;" 
d="M80 183v-179h-23v127h-40v18q41 -2 46 34h17zM140 89v19h11q32 0 33 29q-2 28 -32 29q-33 0 -34 -39h-21q1 58 56 59q51 -3 54 -48q-1 -29 -23 -37q29 -11 29 -42q-4 -57 -62 -58q-17 0 -32 8q-25 13 -26 52h22q0 -40 37 -39q35 1 38 34q-1 33 -40 33h-10zM239 26v-22
h-21v22h21z" />
    <glyph glyph-name="uni2495" unicode="&#x2495;" 
d="M80 184v-181h-23v128h-41v18q42 -2 47 35h17zM215 47h-26v-44h-21v44h-76v22l80 115h17v-117h26v-20zM167 148l-55 -81h56v81h-1zM240 26v-22h-22v22h22z" />
    <glyph glyph-name="uni2496" unicode="&#x2496;" 
d="M130 162l-8 -50q15 12 33 12q53 -6 57 -57q-4 -63 -62 -64q-51 1 -56 50h22q4 -30 37 -30q33 2 36 41q-2 37 -38 39q-20 -1 -32 -16l-18 1l13 96h88v-22h-72zM79 183v-179h-23v127h-40v18q42 -2 46 34h17zM240 26v-22h-22v22h22z" />
    <glyph glyph-name="uni2497" unicode="&#x2497;" 
d="M80 183v-179h-23v127h-40v18q41 -2 46 34h17zM209 138h-21q-6 28 -30 28q-38 -2 -41 -67q14 21 41 22q52 -6 55 -57q0 -27 -17 -45q-14 -19 -44 -18q-29 1 -44 26q-15 21 -14 63q3 93 64 96q47 -4 51 -48zM120 61q2 -38 36 -39q32 1 34 41q-2 36 -35 37q-34 -2 -35 -39z
M239 26v-22h-21v22h21z" />
    <glyph glyph-name="uni2498" unicode="&#x2498;" 
d="M78 184v-181h-23v128h-39v18q40 -2 45 35h17zM91 159v23h114v-20q-55 -69 -68 -157h-22q10 78 67 154h-91zM241 26v-22h-22v22h22z" />
    <glyph glyph-name="uni2499" unicode="&#x2499;" 
d="M80 183v-179h-23v127h-40v18q41 -2 46 34h17zM207 140q0 -27 -22 -38q27 -13 28 -44q-4 -55 -59 -57q-26 1 -41 14q-19 15 -18 43q0 31 29 43q-23 9 -23 35q3 48 52 50q50 -2 54 -46zM154 91q-34 -2 -36 -34q1 -35 37 -35q34 -1 35 34q-2 33 -36 35zM154 110q28 1 30 29
q-2 26 -32 27q-28 -1 -29 -29q1 -25 31 -27zM240 26v-22h-22v22h22z" />
    <glyph glyph-name="uni249A" unicode="&#x249a;" 
d="M99 49h21q3 -29 30 -29q34 -1 41 67v1q-12 -21 -40 -22q-52 3 -54 58q3 59 55 62q61 -1 61 -84q-4 -100 -63 -101q-47 1 -51 48zM154 87q33 1 34 40q-2 37 -35 39q-33 -2 -34 -41q0 -39 35 -38zM80 183v-179h-23v127h-40v18q41 -2 46 34h17zM239 26v-22h-21v22h21z" />
    <glyph glyph-name="uni249B" unicode="&#x249b;" 
d="M31 119h-20q0 62 56 64q49 -4 52 -53q1 -38 -44 -60l-17 -11q-27 -16 -28 -34h89v-21h-113q2 48 39 71l21 14q33 16 31 42q-3 30 -33 32q-32 0 -33 -44zM214 93q-1 72 -35 73q-34 -2 -34 -73t34 -71t35 71zM236 93q-2 -91 -57 -92q-55 1 -56 92q1 91 56 93q55 -2 57 -93z
M250 26v-22h-22v22h22z" />
    <glyph glyph-name="SF100000" unicode="&#x2500;" 
d="M0 101h256v-13h-256v13z" />
    <glyph glyph-name="uni2501" unicode="&#x2501;" 
d="M0 109h256v-29h-256v29z" />
    <glyph glyph-name="SF110000" unicode="&#x2502;" 
d="M120 221v-251h13v251h-13z" />
    <glyph glyph-name="uni2503" unicode="&#x2503;" 
d="M112 221v-251h29v251h-29z" />
    <glyph glyph-name="uni2504" unicode="&#x2504;" 
d="M13 101h56v-13h-56v13zM99 101h56v-13h-56v13zM184 101h56v-13h-56v13z" />
    <glyph glyph-name="uni2505" unicode="&#x2505;" 
d="M13 109h56v-29h-56v29zM99 109h56v-29h-56v29zM184 109h56v-29h-56v29z" />
    <glyph glyph-name="uni2506" unicode="&#x2506;" 
d="M120 208h13v-56h-13v56zM133 122v-56h-13v56h13zM133 37v-54h-13v54h13z" />
    <glyph glyph-name="uni2507" unicode="&#x2507;" 
d="M141 208v-56h-29v56h29zM141 122v-56h-29v56h29zM141 37v-54h-29v54h29z" />
    <glyph glyph-name="uni2508" unicode="&#x2508;" 
d="M11 101h40v-13h-40v13zM75 101h40v-13h-40v13zM139 101h40v-13h-40v13zM203 101h40v-13h-40v13z" />
    <glyph glyph-name="uni2509" unicode="&#x2509;" 
d="M11 109h40v-29h-40v29zM75 109h40v-29h-40v29zM139 109h37v-29h-37v29zM200 109h40v-29h-40v29z" />
    <glyph glyph-name="uni250A" unicode="&#x250a;" 
d="M133 210v-40h-13v40h13zM133 146v-40h-13v40h13zM133 82v-40h-13v40h13zM133 18v-38h-13v38h13z" />
    <glyph glyph-name="uni250B" unicode="&#x250b;" 
d="M141 210v-40h-29v40h29zM141 146v-40h-29v40h29zM141 82v-40h-29v40h29zM141 18v-38h-29v38h29z" />
    <glyph glyph-name="SF010000" unicode="&#x250c;" 
d="M256 101v-13h-123v-118h-13v131h136z" />
    <glyph glyph-name="uni250D" unicode="&#x250d;" 
d="M256 109v-29h-123v-110h-13v123h16v16h120z" />
    <glyph glyph-name="uni250E" unicode="&#x250e;" 
d="M256 101v-13h-115v-118h-29v123h16v8h128z" />
    <glyph glyph-name="uni250F" unicode="&#x250f;" 
d="M256 109v-29h-115v-110h-29v139h144z" />
    <glyph glyph-name="SF030000" unicode="&#x2510;" 
d="M0 88v13h133v-131h-13v118h-120z" />
    <glyph glyph-name="uni2511" unicode="&#x2511;" 
d="M0 109h125v-16h8v-123h-13v110h-120v29z" />
    <glyph glyph-name="uni2512" unicode="&#x2512;" 
d="M0 101h125v-8h16v-123h-29v118h-112v13z" />
    <glyph glyph-name="uni2513" unicode="&#x2513;" 
d="M0 109h141v-139h-29v110h-112v29z" />
    <glyph glyph-name="SF020000" unicode="&#x2514;" 
d="M133 221v-120h123v-13h-136v133h13z" />
    <glyph glyph-name="uni2515" unicode="&#x2515;" 
d="M133 221v-112h123v-29h-128v16h-8v125h13z" />
    <glyph glyph-name="uni2516" unicode="&#x2516;" 
d="M141 221v-120h115v-13h-128v8h-16v125h29z" />
    <glyph glyph-name="uni2517" unicode="&#x2517;" 
d="M141 221v-112h115v-29h-144v141h29z" />
    <glyph glyph-name="SF040000" unicode="&#x2518;" 
d="M0 101h120v120h13v-133h-133v13z" />
    <glyph glyph-name="uni2519" unicode="&#x2519;" 
d="M0 109h120v112h13v-125h-8v-16h-125v29z" />
    <glyph glyph-name="uni251A" unicode="&#x251a;" 
d="M0 101h112v120h29v-125h-16v-8h-125v13z" />
    <glyph glyph-name="uni251B" unicode="&#x251b;" 
d="M0 109h112v112h29v-141h-141v29z" />
    <glyph glyph-name="SF080000" unicode="&#x251c;" 
d="M133 221v-120h123v-13h-123v-118h-13v251h13z" />
    <glyph glyph-name="uni251D" unicode="&#x251d;" 
d="M133 221v-112h123v-29h-123v-110h-13v251h13z" />
    <glyph glyph-name="uni251E" unicode="&#x251e;" 
d="M141 221v-120h115v-13h-115v-118h-13v126h-16v125h29z" />
    <glyph glyph-name="uni251F" unicode="&#x251f;" 
d="M133 221v-120h123v-13h-123v-118h-29v123h16v128h13z" />
    <glyph glyph-name="uni2520" unicode="&#x2520;" 
d="M141 221v-120h115v-13h-115v-118h-29v251h29z" />
    <glyph glyph-name="uni2521" unicode="&#x2521;" 
d="M141 221v-112h115v-29h-115v-110h-13v110h-16v141h29z" />
    <glyph glyph-name="uni2522" unicode="&#x2522;" 
d="M133 221v-112h123v-29h-123v-110h-29v139h16v112h13z" />
    <glyph glyph-name="uni2523" unicode="&#x2523;" 
d="M141 221v-112h115v-29h-115v-110h-29v251h29z" />
    <glyph glyph-name="SF090000" unicode="&#x2524;" 
d="M133 221v-251h-13v118h-120v13h120v120h13z" />
    <glyph glyph-name="uni2525" unicode="&#x2525;" 
d="M133 221v-251h-13v110h-120v29h120v112h13z" />
    <glyph glyph-name="uni2526" unicode="&#x2526;" 
d="M141 221v-125h-16v-126h-13v118h-112v13h112v120h29z" />
    <glyph glyph-name="uni2527" unicode="&#x2527;" 
d="M133 221v-128h16v-123h-29v118h-120v13h120v120h13z" />
    <glyph glyph-name="uni2528" unicode="&#x2528;" 
d="M141 221v-251h-29v118h-112v13h112v120h29z" />
    <glyph glyph-name="uni2529" unicode="&#x2529;" 
d="M141 221v-141h-16v-110h-13v110h-112v29h112v112h29z" />
    <glyph glyph-name="uni252A" unicode="&#x252a;" 
d="M133 221v-112h16v-139h-29v110h-120v29h120v112h13z" />
    <glyph glyph-name="uni252B" unicode="&#x252b;" 
d="M141 221v-251h-29v110h-112v29h112v112h29z" />
    <glyph glyph-name="SF060000" unicode="&#x252c;" 
d="M0 101h256v-13h-123v-118h-13v118h-120v13z" />
    <glyph glyph-name="uni252D" unicode="&#x252d;" 
d="M0 109h133v-16h123v-13h-123v-110h-13v110h-120v29z" />
    <glyph glyph-name="uni252E" unicode="&#x252e;" 
d="M0 101h120v16h136v-29h-123v-118h-13v118h-120v13z" />
    <glyph glyph-name="uni252F" unicode="&#x252f;" 
d="M0 109h256v-29h-123v-110h-13v110h-120v29z" />
    <glyph glyph-name="uni2530" unicode="&#x2530;" 
d="M0 101h256v-13h-115v-118h-29v118h-112v13z" />
    <glyph glyph-name="uni2531" unicode="&#x2531;" 
d="M0 109h141v-16h115v-13h-115v-110h-29v110h-112v29z" />
    <glyph glyph-name="uni2532" unicode="&#x2532;" 
d="M0 101h112v16h144v-29h-115v-118h-29v118h-112v13z" />
    <glyph glyph-name="uni2533" unicode="&#x2533;" 
d="M0 109h256v-29h-115v-110h-29v110h-112v29z" />
    <glyph glyph-name="SF070000" unicode="&#x2534;" 
d="M0 101h120v120h13v-120h123v-13h-256v13z" />
    <glyph glyph-name="uni2535" unicode="&#x2535;" 
d="M133 221v-112h123v-13h-123v-16h-133v29h120v112h13z" />
    <glyph glyph-name="uni2536" unicode="&#x2536;" 
d="M133 221v-120h123v-29h-136v16h-120v13h120v120h13z" />
    <glyph glyph-name="uni2537" unicode="&#x2537;" 
d="M133 221v-112h123v-29h-256v29h120v112h13z" />
    <glyph glyph-name="uni2538" unicode="&#x2538;" 
d="M141 221v-120h115v-13h-256v13h112v120h29z" />
    <glyph glyph-name="uni2539" unicode="&#x2539;" 
d="M141 221v-112h115v-13h-115v-16h-141v29h112v112h29z" />
    <glyph glyph-name="uni253A" unicode="&#x253a;" 
d="M141 221v-120h115v-29h-144v16h-112v13h112v120h29z" />
    <glyph glyph-name="uni253B" unicode="&#x253b;" 
d="M141 221v-112h115v-29h-256v29h112v112h29z" />
    <glyph glyph-name="SF050000" unicode="&#x253c;" 
d="M133 221v-120h123v-13h-123v-118h-13v118h-120v13h120v120h13z" />
    <glyph glyph-name="uni253D" unicode="&#x253d;" 
d="M133 221v-120h123v-13h-123v-118h-13v102h-120v29h120v120h13z" />
    <glyph glyph-name="uni253E" unicode="&#x253e;" 
d="M133 221v-120h123v-29h-123v-102h-13v118h-120v13h120v120h13z" />
    <glyph glyph-name="uni253F" unicode="&#x253f;" 
d="M133 221v-112h123v-29h-123v-110h-13v110h-120v29h120v112h13z" />
    <glyph glyph-name="uni2540" unicode="&#x2540;" 
d="M149 221v-120h107v-13h-123v-118h-13v118h-120v13h120v120h29z" />
    <glyph glyph-name="uni2541" unicode="&#x2541;" 
d="M133 221v-120h123v-13h-107v-118h-29v118h-120v13h120v120h13z" />
    <glyph glyph-name="uni2542" unicode="&#x2542;" 
d="M141 221v-120h115v-13h-115v-118h-29v118h-112v13h112v120h29z" />
    <glyph glyph-name="uni2543" unicode="&#x2543;" 
d="M141 221v-128h115v-13h-115v-110h-13v110h-128v29h112v112h29z" />
    <glyph glyph-name="uni2544" unicode="&#x2544;" 
d="M141 221v-112h115v-29h-131v-110h-13v110h-112v13h112v128h29z" />
    <glyph glyph-name="uni2545" unicode="&#x2545;" 
d="M141 221v-112h115v-13h-115v-126h-29v110h-112v29h128v112h13z" />
    <glyph glyph-name="uni2546" unicode="&#x2546;" 
d="M125 221v-112h131v-29h-115v-110h-29v126h-112v13h112v112h13z" />
    <glyph glyph-name="uni2547" unicode="&#x2547;" 
d="M141 221v-112h115v-29h-131v-110h-13v110h-112v29h112v112h29z" />
    <glyph glyph-name="uni2548" unicode="&#x2548;" 
d="M125 221v-112h131v-29h-115v-110h-29v110h-112v29h112v112h13z" />
    <glyph glyph-name="uni2549" unicode="&#x2549;" 
d="M141 221v-112h115v-13h-115v-126h-29v110h-112v29h112v112h29z" />
    <glyph glyph-name="uni254A" unicode="&#x254a;" 
d="M141 221v-112h115v-29h-115v-110h-29v126h-112v13h112v112h29z" />
    <glyph glyph-name="uni254B" unicode="&#x254b;" 
d="M141 221v-112h115v-29h-115v-110h-29v110h-112v29h112v112h29z" />
    <glyph glyph-name="filledbox" unicode="&#x25a0;" 
d="M230 -14h-204v202h204v-202z" />
    <glyph glyph-name="H22073" unicode="&#x25a1;" 
d="M230 -14h-204v202h204v-202zM37 177v-180h182v180h-182z" />
    <glyph glyph-name="triagup" unicode="&#x25b2;" 
d="M221 0h-186l93 188z" />
    <glyph glyph-name="uni25B3" unicode="&#x25b3;" 
d="M128 164l-76 -153h152zM221 0h-186l93 188z" />
    <glyph glyph-name="uni25C6" unicode="&#x25c6;" 
d="M128 0l-96 94l96 96l96 -96z" />
    <glyph glyph-name="uni25C7" unicode="&#x25c7;" 
d="M128 13l81 81l-81 81l-81 -81zM128 0l-96 94l96 96l96 -96z" />
    <glyph glyph-name="circle" unicode="&#x25cb;" 
d="M128 9q74 7 82 82q-8 75 -82 83q-75 -8 -82 -83q7 -75 82 -82zM128 184q84 -9 93 -93q-8 -84 -93 -91q-86 7 -93 91q8 84 93 93z" />
    <glyph glyph-name="uni25CE" unicode="&#x25ce;" 
d="M128 184q84 -9 93 -93q-8 -84 -93 -91q-86 7 -93 91q8 84 93 93zM128 178q-80 -8 -87 -87q7 -79 87 -86q79 7 87 86q-8 79 -87 87zM128 156q59 -6 65 -64q-6 -60 -65 -65q-60 5 -65 65q5 58 65 64zM128 149q-53 -6 -58 -57q5 -53 58 -58q53 5 58 58q-6 51 -58 57z" />
    <glyph glyph-name="H18533" unicode="&#x25cf;" 
d="M128 184q84 -9 93 -93q-8 -84 -93 -91q-86 7 -93 91q8 84 93 93z" />
    <glyph glyph-name="uni2605" unicode="&#x2605;" 
d="M128 179l24 -70h71l-58 -44l21 -67l-58 39l-58 -39l21 67l-58 44h71z" />
    <glyph glyph-name="uni2606" unicode="&#x2606;" 
d="M83 12l45 34l45 -33l1 1l-18 54l46 34h-57l-17 55h-1l-17 -55h-56l45 -34l-17 -55zM128 179l24 -70h71l-58 -44l21 -67l-58 40l-58 -40l20 67l-57 44h71z" />
    <glyph glyph-name="female" unicode="&#x2640;" 
d="M83 129q3 -42 45 -45q41 3 45 45q-4 41 -45 45q-42 -4 -45 -45zM84 19v12h38v42q-48 9 -51 56q5 51 57 57q51 -6 57 -57q-4 -47 -51 -56v-42h38v-12h-38v-29h-12v29h-38z" />
    <glyph glyph-name="male" unicode="&#x2642;" 
d="M83 46q3 -43 45 -46q41 3 45 46q-4 41 -45 45q-42 -4 -45 -45zM84 137l-3 5q33 22 45 43h5q8 -17 38 -39l6 -3l-2 -6q-23 9 -39 26v-61q46 -9 51 -56q-5 -50 -57 -55q-53 5 -57 55q3 46 51 56v60q-17 -15 -38 -25z" />
    <glyph glyph-name="uni3000" unicode="&#x3000;" 
 />
    <glyph glyph-name="uni3001" unicode="&#x3001;" 
d="M27 31l19 16q31 -23 56 -52l-19 -21q-25 31 -56 57z" />
    <glyph glyph-name="uni3002" unicode="&#x3002;" 
d="M64 44q-28 -3 -30 -30q2 -27 30 -30q28 3 31 30q-3 27 -31 30zM64 55q38 -4 42 -41q-4 -36 -42 -40q-38 4 -41 40q3 37 41 41z" />
    <glyph glyph-name="uni3003" unicode="&#x3003;" 
d="M130 132l-45 -87h-4l28 84q3 10 11 11q9 1 10 -8zM175 132l-45 -87h-4l28 84q2 10 10 11q12 0 11 -8z" />
    <glyph glyph-name="uni3005" unicode="&#x3005;" 
d="M109 189l24 -12q1 -1 1 -4t-6 -6l-3 -1q-7 -16 -17 -28h60q2 -1 7 3q5 3 8 3q16 -11 21 -22q-1 -7 -6 -7h-6q-3 0 -5 -5l-1 -1q-23 -33 -50 -63q37 -31 10 -41q-7 0 -22 25q-5 8 -6 11q-13 17 -27 29l1 2q19 -8 35 -19q30 34 52 74q-1 1 -2 1h-75q-26 -29 -47 -38
q-4 0 -3 4q62 56 51 89q1 7 6 6z" />
    <glyph glyph-name="uni3008" unicode="&#x3008;" 
d="M183 214l13 -7l-59 -117l59 -116l-13 -7l-64 123z" />
    <glyph glyph-name="uni3009" unicode="&#x3009;" 
d="M73 214l64 -124l-64 -123l-13 7l59 116l-59 117z" />
    <glyph glyph-name="uni300A" unicode="&#x300a;" 
d="M165 213l13 -7l-59 -116l59 -115l-13 -7l-64 122zM201 213l13 -7l-59 -116l59 -115l-13 -7l-64 122z" />
    <glyph glyph-name="uni300B" unicode="&#x300b;" 
d="M91 213l64 -123l-64 -122l-13 7l59 115l-59 116zM55 213l64 -123l-64 -122l-13 7l59 115l-59 116z" />
    <glyph glyph-name="uni300C" unicode="&#x300c;" 
d="M206 192h-70v-219h-16v235h86v-16z" />
    <glyph glyph-name="uni300D" unicode="&#x300d;" 
d="M50 -11h70v219h16v-235h-86v16z" />
    <glyph glyph-name="uni300E" unicode="&#x300e;" 
d="M188 206v-30h-45v-201h-29v231h74zM182 182v18h-62v-220h17v202h45z" />
    <glyph glyph-name="uni300F" unicode="&#x300f;" 
d="M69 -25v28h45v203h29v-231h-74zM75 -1v-18h62v220h-17v-202h-45z" />
    <glyph glyph-name="uni3010" unicode="&#x3010;" 
d="M116 -34v249h60q-31 -54 -36 -120v-9q1 -66 40 -120h-64z" />
    <glyph glyph-name="uni3011" unicode="&#x3011;" 
d="M140 -34h-64q38 54 40 120v9q-6 66 -36 120h60v-249z" />
    <glyph glyph-name="uni3013" unicode="&#x3013;" 
d="M55 157h146v-40h-146v40zM55 74h146v-40h-146v40z" />
    <glyph glyph-name="uni3014" unicode="&#x3014;" 
d="M179 212l6 -13l-50 -24v-171l50 -22l-6 -13l-58 29v185z" />
    <glyph glyph-name="uni3015" unicode="&#x3015;" 
d="M77 212l58 -29v-185l-58 -29l-6 13l50 22v171l-50 24z" />
    <glyph glyph-name="uni3016" unicode="&#x3016;" 
d="M116 -34v249h59q-33 -64 -35 -122q1 -73 40 -127h-64zM121 211v-240h50q-35 46 -36 122q-1 47 31 118h-45z" />
    <glyph glyph-name="uni3017" unicode="&#x3017;" 
d="M140 -34h-64q38 51 40 127q-3 58 -35 122h59v-249zM135 211h-45q30 -67 31 -118q-2 -75 -35 -122h49v240z" />
    <glyph glyph-name="uni3041" unicode="&#x3041;" 
d="M126 29l-19 -6q-2 3 -2 5q-3 -1 -4 -2q-32 -23 -50 -7q-8 5 -8 20v4q-1 11 10 29q9 14 23 25q10 8 23 13v1q0 4 1 15q1 4 2 7h-25h-18l-2 19q10 -2 22 -1h14h12v1v6q2 5 2 8v4q-2 5 -1 13h5q3 0 10 -1q8 -1 13 -1q-8 -14 -10 -28q22 3 45 9l2 -19q-26 -7 -51 -8
q-2 -9 -3 -18q10 1 23 2h3q0 1 1 5q0 4 1 6h2l22 -4q-2 -5 -3 -9q15 -4 28 -11q19 -15 20 -39v-5q-1 -23 -16 -39q-13 -15 -35 -21q-2 -2 -2 0l-14 13v3q15 2 29 13q16 13 17 30v5q-2 26 -33 35q-14 -34 -39 -58q1 -8 5 -14zM115 94v-9q-1 -10 1 -20h1q0 1 1 2q12 13 21 36
q-1 -1 -2 -1q-16 -1 -22 -4v-4zM97 78v11v2q-23 -13 -29 -27q-12 -22 -2 -28q6 -5 18 1q8 3 16 11q-3 15 -3 30z" />
    <glyph glyph-name="uni3042" unicode="&#x3042;" 
d="M56 157h15h17q6 1 8 1v13q1 12 2 18q0 4 -1 10h5q4 0 13 -2h13q0 -4 -3 -10q-1 -3 -1 -5q-1 -4 -2 -11q-2 -7 -2 -10q4 0 11 2q27 3 45 10v-24q-27 -8 -55 -11q-1 0 -3 -1t-2 0q0 -1 -1 -3q-1 -14 0 -21q11 3 30 6q-1 0 0 4q1 3 1 4v2q0 2 2 4l24 -4l1 -2q-2 -3 -3 -9
q24 -3 39 -15q22 -22 23 -49v-7q-2 -37 -39 -61q-15 -9 -24 -10h-1l-4 4q-11 11 -18 15q27 5 43 17q18 15 19 37v4q-2 23 -21 38q-3 1 -8 2q-4 2 -5 3q-6 1 -11 2q-14 -39 -43 -73q4 -13 7 -18q-4 -1 -21 -8q-4 1 -5 7q-7 -6 -11 -7q-22 -14 -37 -15h-4q-23 2 -25 35v4
q0 29 29 59q14 11 37 24q1 20 3 28q-5 0 -15 -1h-18h-15q-2 -1 -3 1q-2 1 -6 14q-1 0 -1 1q-2 6 0 9q10 -2 21 -1zM94 29v3q-4 22 -4 50q-22 -13 -37 -38q-7 -12 -6 -20q0 -14 13 -14q14 0 25 11l4 4q4 3 5 4zM114 93v-24q0 -5 1 -18q17 22 26 48q-17 -4 -24 -5q-1 -1 -3 -1
z" />
    <glyph glyph-name="uni3043" unicode="&#x3043;" 
d="M40 154l24 -5q-1 -5 -2 -8v-6q0 -38 13 -66v-2q6 -16 13 -19q1 -2 5 -1q3 0 9 5q2 1 4 3q6 6 12 14h2l11 -19v-3q-11 -11 -16 -15q-13 -12 -23 -11q-19 -1 -32 31q-12 21 -19 73q-1 9 -1 14q-2 7 -2 15h2zM219 77l-21 -8q-16 36 -38 69l17 8h2q27 -38 40 -69z" />
    <glyph glyph-name="uni3044" unicode="&#x3044;" 
d="M18 167l1 1q17 -3 4 -1q13 -2 30 -6q-4 -9 -5 -18q-2 -6 -1 -12v-7q0 -21 5 -42q4 -21 13 -39q7 -17 18 -17q7 0 14 7q9 8 17 20h2l12 -19v-2q-6 -12 -14 -19q-16 -15 -33 -15q-24 1 -38 32q-7 16 -11 34q-8 26 -10 55q-2 9 -2 20q-2 13 -2 28zM167 141l23 8h2
q22 -32 39 -66q0 -2 1 -4q6 -13 7 -18l-24 -11h-3q-13 39 -46 89z" />
    <glyph glyph-name="uni3045" unicode="&#x3045;" 
d="M173 175l-5 -21q-27 4 -51 14h-1q-7 2 -7 5l8 18q26 -13 56 -16zM184 91v-5q-2 -53 -51 -88l-16 15q31 18 42 48q2 12 3 22q0 2 1 3q-1 9 -5 19q-10 13 -28 8q-11 -5 -20 -9q-8 -5 -13 -7q-4 -3 -7 -2l-17 23q0 1 2 1h5q6 -1 30 8q2 0 7 2q19 6 29 6h4q15 -2 24 -12
q9 -16 10 -32z" />
    <glyph glyph-name="uni3046" unicode="&#x3046;" 
d="M102 183l9 24h1q41 -17 70 -21l1 -1q-1 -3 -2 -8q-4 -12 -3 -18l-2 -1q-7 0 -19 4q-2 0 -2 1q-27 7 -52 18zM60 119h6q9 0 26 5q2 0 3 1q11 2 25 7q19 6 32 6h4q20 -1 33 -19q8 -16 9 -33v-9q-2 -62 -56 -108q-2 0 -3 -1q-1 -2 -2 -2h-1q-11 10 -21 16v2q54 38 56 98v5
q-2 25 -22 27h-4q-8 0 -23 -6l-6 -2q-16 -6 -28 -15q-2 -1 -3 -2q-3 -3 -5 -2l-21 30z" />
    <glyph glyph-name="uni3047" unicode="&#x3047;" 
d="M167 165l-11 -19q-27 8 -51 22v2l11 16q30 -16 51 -21zM145 133l19 -11v-3q-13 -9 -31 -32q-4 -6 -6 -8h7q7 0 14 -5q4 -6 5 -12v-8q1 -13 4 -19q4 -12 17 -12h5q15 0 30 6v-24q-17 -3 -31 -3h-11q-16 0 -22 8q-7 7 -8 18q-2 4 -2 12q-1 7 -2 12q-4 7 -10 9h-4
q-1 0 -2 -1t-1 0q-9 -5 -19 -17q-6 -7 -16 -20q-4 -6 -6 -8q-1 -1 -2 -3q-2 -3 -6 -7l-19 15q42 41 76 91q-7 -3 -21 -5q-16 -2 -23 -5q-2 -1 -3 -2q-2 -1 -4 -1l-10 24q13 1 28 2q34 1 52 9h2z" />
    <glyph glyph-name="uni3048" unicode="&#x3048;" 
d="M110 205h2q3 -2 10 -6q25 -13 39 -17q0 -1 1 -1q7 -2 8 -4l-9 -21l-2 -1q-32 11 -60 28v2q4 9 11 20zM46 125h6q25 0 53 5q17 1 34 8q3 1 6 3h2l23 -14q1 -2 1 -5q-15 -9 -34 -35q-7 -9 -10 -13h7q9 -1 18 -7q6 -7 8 -20q1 -14 5 -26q4 -14 15 -14h12q17 0 35 5v-28
q-6 0 -17 -1t-15 -1h-21q-20 1 -27 13q-7 7 -10 31q-1 2 -1 4q-1 8 -3 12q-5 7 -13 8q-12 0 -21 -12q-25 -27 -43 -56h-2q-15 14 -24 16v2q29 28 69 77q2 2 4 5q15 17 21 29l-2 2q-10 -5 -31 -9q-15 -3 -22 -5q-2 -1 -5 -3q-2 -2 -5 -1z" />
    <glyph glyph-name="uni3049" unicode="&#x3049;" 
d="M164 138l10 16q21 -11 38 -24l-11 -16q-3 1 -5 3q-20 15 -32 21zM88 178l26 -3l2 -2q-6 -11 -7 -27q0 -6 0 -3q6 0 19 4q4 1 9 2v-19q-8 -3 -18 -5q-9 -2 -11 -2v-29q23 9 41 9h6q16 0 30 -8q15 -12 16 -29v-4q-1 -23 -19 -35q-13 -10 -40 -15l-2 1l-11 16v2q50 6 51 33
q-1 22 -31 23q-16 -1 -41 -13v-11q0 -7 1 -20t1 -18v-4q-1 -11 -11 -15t-23 2q-32 12 -32 32q-1 12 17 27q11 9 25 18v15q-1 3 0 10q1 6 1 10q-13 -2 -26 -1h-7l-2 21q7 -2 14 -1h4q9 -1 19 1v13v6l-2 18zM87 63q-23 -17 -22 -23q0 -5 6 -9q5 -5 14 -5q3 0 4 3q-1 16 -2 31
v3z" />
    <glyph glyph-name="uni304A" unicode="&#x304a;" 
d="M229 139l1 -2l-12 -20l-2 -1q-23 16 -49 29v2l12 17l2 1q25 -12 48 -26zM72 194h7q5 0 30 -3l1 -2q-4 -19 -7 -40h2q18 4 31 10l1 -25q-18 -6 -36 -10q-2 -10 -1 -17v-18q29 13 54 14h4q24 -1 40 -10q19 -14 20 -36v-4q0 -14 -6 -25q-6 -13 -18 -20q-24 -16 -53 -18
q-4 8 -13 18q-2 2 -3 5q20 1 33 7q22 8 28 20q6 11 0 25q-9 13 -30 14h-5q-22 0 -49 -14q1 -4 1 -8q3 -25 3 -47v-6q-1 -18 -15 -24q-9 -3 -29 4q-36 15 -36 35q-1 15 14 31q17 17 35 27v42q-18 -2 -36 -2h-7l-3 24l1 2q0 -1 2 -1q9 -1 20 -1q14 -1 24 2q-1 14 -2 27t-2 24z
M77 50q-2 -1 -3 -2q-17 -11 -20 -20t4 -15q11 -10 19 -4q3 2 3 9q-1 7 -2 17q0 2 -1 7t0 8z" />
    <glyph glyph-name="uni304B" unicode="&#x304b;" 
d="M171 149v2q3 2 9 7q5 4 9 7q2 1 8 -5h1q10 -11 19 -21q17 -21 31 -42v-3l-24 -15q-22 38 -53 70zM122 135h15q15 0 20 -7q6 -10 6 -20v-4q-1 -14 -3 -29t-6 -30q-9 -35 -28 -46q-12 -7 -34 -7h-5l-3 1q-5 12 -12 26v2q17 -4 21 -3h4q11 0 19 9q7 7 11 20q8 22 9 48v6
q-1 11 -10 12q-8 0 -23 -2q-6 -1 -9 -1q-15 -44 -39 -82q-9 -16 -21 -28q-4 0 -11 4q-4 2 -6 4h-3q-6 1 -6 5q21 18 39 54q10 19 19 39q-16 -1 -29 -8l-1 -1q-4 -3 -7 -2l-14 29l1 2q11 -3 33 1q3 0 5 1h2q8 1 18 2v4q1 4 2 6q5 18 6 40v4q0 2 -1 7q28 -5 33 -6q0 -4 -4 -10
l-1 -1q-2 -6 -4 -17v-2q-1 -1 -1 -3q-1 -8 -3 -19q10 1 21 2z" />
    <glyph glyph-name="uni304C" unicode="&#x304c;" 
d="M222 94l-1 -2l-21 -12q-20 37 -49 69v2l19 11q26 -24 52 -68zM229 161v-2l-13 -10h-2q-2 1 -3 3q-12 16 -21 22v2l12 10h2q17 -14 25 -25zM215 195v2l12 10h2q0 -1 2 -3q11 -9 17 -14q0 -1 1 -2q6 -5 5 -8l-12 -10h-2q-11 14 -25 25zM69 191l34 -8q-1 -3 -6 -12
q-2 -4 -3 -12v-5q-2 -12 -4 -22h7q6 1 9 2q2 -1 6 0q3 1 6 1h4q12 -1 19 -4q10 -8 10 -20v-12q0 -28 -9 -63q-7 -34 -27 -40q-14 -6 -31 -6h-7q-5 12 -12 26l1 2q17 -4 21 -3h4q14 0 21 13q5 10 9 27q6 22 6 46q-1 12 -14 12q-6 -2 -15 -3t-14 -2q-18 -62 -56 -112l-2 -1
q-7 5 -21 10q-2 1 -3 2v2q23 26 36 51q11 20 19 43l-30 -10q-5 -4 -9 -3l-11 28l2 2q2 0 6 -1t8 0q7 1 21 4q12 3 19 4q1 3 1 6q2 12 3 24t2 23v11z" />
    <glyph glyph-name="uni304D" unicode="&#x304d;" 
d="M168 186h2q8 -14 9 -21q-15 -8 -31 -13q6 -14 14 -28q18 6 36 14h3l9 -19l-1 -2q-11 -5 -23 -8q-4 -2 -11 -4h-2q1 -3 3 -6q13 -21 28 -39q0 -2 1 -3q4 -4 4 -7l-22 -21q-33 20 -80 21h-6q-14 -1 -21 -4q-14 -9 -9 -22q2 -6 11 -11q10 -7 23 -8q15 -3 30 -3h5q6 -1 12 1
l-2 -29h-7q-93 6 -97 55v5q0 16 20 29q18 8 40 9h10q21 0 50 -9l1 1q-3 4 -8 12q-8 14 -11 22q-11 -3 -21 -4q-27 -4 -55 -5l-2 1l-12 19l1 2h7q28 0 57 5q2 0 7 1q5 0 8 1q-4 5 -10 18q-3 6 -4 10q-21 -7 -43 -8l-10 14q-1 0 -2 2q-2 2 -2 5q23 2 47 8q-6 11 -12 25
q-1 0 -2 2q-2 5 -1 8l27 4q5 -17 13 -32q15 4 29 12z" />
    <glyph glyph-name="uni304E" unicode="&#x304e;" 
d="M205 172l-1 -2l-14 -10h-2l-6 6q-14 16 -23 23v2l15 10h3q15 -14 28 -29zM233 189v-2l-13 -11h-2q-12 16 -30 30v2l15 10h2q16 -13 28 -29zM137 184l11 -19v-3q-11 -8 -34 -15l8 -14q1 -3 3 -6q2 -4 4 -6q23 7 39 15l10 -20q-17 -11 -36 -16q10 -15 21 -30q9 -11 17 -21
l1 -2l-25 -16q-29 13 -59 14h-11q-16 -1 -28 -6q-17 -15 -5 -28q6 -6 19 -9q11 -2 22 -2h5h7h7h4q5 2 7 1v-27h-26q-23 0 -46 9q-29 14 -29 38v5q1 21 24 33q18 6 42 7h11q8 0 26 -2q6 -1 12 -1q-11 13 -19 29q-3 0 -6 -1q-4 -1 -6 0q-29 -6 -60 -6h-8l-11 24h12q33 0 66 6
q-8 13 -13 26q-21 -6 -42 -6h-4l-13 22h6q9 0 18 2q11 1 23 4q-17 30 -21 36l32 6h2q0 -15 10 -36q20 7 33 15z" />
    <glyph glyph-name="uni304F" unicode="&#x304f;" 
d="M144 205h3l26 -19v-3q-6 -6 -16 -19q-3 -4 -4 -6q-20 -26 -39 -50q-11 -12 -10 -20q0 -9 7 -15q9 -12 18 -22q4 -6 13 -17q8 -12 13 -17q12 -17 24 -33v-2l-26 -16h-2q-5 8 -13 23q-5 10 -10 18q-17 25 -25 35q-5 7 -10 15l-3 3q-13 15 -12 26v4q0 9 10 24q2 3 9 11
q3 5 8 11q16 20 30 46q6 10 9 23z" />
    <glyph glyph-name="uni3050" unicode="&#x3050;" 
d="M110 205h2q13 -9 28 -15v-2q-6 -7 -10 -14q-18 -31 -40 -59q-3 -3 -6 -8t-5 -7q-6 -10 -5 -12q0 -7 8 -15q1 -1 2 -1q44 -51 63 -77l1 -1q5 -6 4 -10l-24 -16h-2q-20 35 -59 84q-14 14 -18 24q-7 11 3 29q2 3 7 11q4 7 7 11q35 46 44 78zM144 139v2l13 13h2q13 -9 24 -19
q0 -1 1 -2q2 -1 3 -3q0 -2 -2 -3q-6 -6 -12 -10q-1 -2 -2 0q-6 4 -11 8q-11 9 -16 14zM168 164l12 14q5 -1 15 -9q1 -1 3 -2q2 -3 6 -6q3 -3 6 -5q1 -2 0 -2l-13 -13q-1 -2 -2 0q-14 10 -27 21v2z" />
    <glyph glyph-name="uni3051" unicode="&#x3051;" 
d="M49 93v-11q0 -28 8 -48h2q3 4 8 14l6 10h2l8 -6q-13 -33 -12 -57v-5q-11 -1 -22 -3q-7 11 -11 20q-13 33 -13 74v14q-1 21 8 63q6 20 0 33q12 0 32 -8q0 -5 -5 -18q-6 -22 -9 -40q-3 -17 -2 -32zM159 191l37 -2q0 -4 -3 -9q-1 -4 -1 -6q0 -3 -1 -7t0 -6v-8q-1 -4 0 -10
t1 -9q18 4 36 9l3 -24q-19 -6 -38 -9v-17q0 -25 -2 -37q-1 -15 -5 -25q-11 -32 -41 -55h-1q-3 2 -6 3q-6 4 -17 9h-1l-1 1q28 17 40 43q10 20 10 62v13q-20 -3 -41 -2h-13q-3 0 -3 1l-9 25l1 2q27 -4 33 -3h14q9 -1 18 1q-2 33 -10 60z" />
    <glyph glyph-name="uni3052" unicode="&#x3052;" 
d="M17 194l32 -8q-1 -6 -5 -14q-1 -3 -1 -5q-7 -22 -10 -41t-2 -35v-15q0 -23 10 -42h2q6 13 12 27l13 -11q-13 -24 -16 -60l-19 -3q-26 40 -26 93v13q-1 11 1 24q1 13 5 34q2 13 3 20q1 9 1 17v6zM185 185l14 12q3 -4 7 -7q13 -11 19 -17l-13 -14q-12 13 -27 26zM207 205
l13 13q4 -4 8 -7q15 -11 21 -17l-13 -13q-13 13 -29 24zM141 194h5q6 0 20 -2q4 -1 9 -1q-3 -12 -3 -24v-4v-14q1 -8 2 -12q16 3 33 8h2q0 -5 1 -10q2 -10 2 -15q-17 -5 -35 -7q-1 1 -1 2q0 4 0 1q0 -4 1 -12v-9q-1 -14 -2 -27q-2 -14 -4 -25q-5 -23 -25 -47
q-11 -14 -16 -17q-13 6 -26 7l-1 1q24 18 37 47q11 22 11 59v14q0 14 0 4q-5 -2 -11 -1q-17 -2 -33 -1h-15l-6 25l1 1q13 -2 27 -2h13q11 -1 22 1q-5 39 -8 60z" />
    <glyph glyph-name="uni3053" unicode="&#x3053;" 
d="M126 170h7q25 0 50 7v-28q-22 -3 -41 -3h-23q-22 0 -41 4l-2 1l-5 28l1 1q33 -11 54 -10zM120 29h21q37 0 74 9v-32q-38 -6 -76 -6h-16q-28 0 -47 8q-18 7 -34 26q-2 0 0 3l16 16h2q13 -16 28 -20q10 -5 32 -4z" />
    <glyph glyph-name="uni3054" unicode="&#x3054;" 
d="M53 151l-6 27q5 -1 15 -4q24 -5 38 -4h4q27 0 53 7v-31q-17 -3 -34 -3h-11q-20 -1 -59 8zM13 37l18 16h3q15 -17 27 -20q16 -7 39 -7h12q39 0 77 11v-35q-36 -2 -73 -2h-17q-20 0 -40 4q-19 4 -40 25q-1 0 -2 1q-5 3 -4 7zM178 139v2l13 13h2q13 -9 24 -19q0 -1 1 -2
q2 -1 3 -3q0 -2 -2 -3q-6 -6 -12 -10q-1 -2 -2 0q-6 4 -11 8q-11 9 -16 14zM202 164l12 14q5 -1 15 -9q1 -1 3 -2q2 -3 6 -6q3 -3 6 -5q1 -2 0 -2l-13 -13q-1 -2 -2 0q-14 10 -27 21v2z" />
    <glyph glyph-name="uni3055" unicode="&#x3055;" 
d="M187 162l2 -1l6 -20v-3q-17 -7 -34 -11q23 -41 49 -66v-2l-23 -17q-1 -2 -3 0q-16 10 -35 16q-20 6 -33 6h-4q-12 0 -27 -6q-15 -10 -15 -21q0 -6 4 -10q6 -9 18 -12q13 -7 36 -6h12q9 -1 17 1l1 -1l-3 -27h-17q-30 1 -60 13q-32 14 -32 42v4q1 22 20 35q16 8 36 9h13
q27 0 52 -11l1 2q-17 21 -31 45q-39 -8 -78 -10l-10 23l1 2q7 -2 14 -1h4q28 -1 57 7q-2 2 -4 7l-6 10q-5 10 -16 30v2q16 1 31 5q2 -22 18 -49q23 7 39 15z" />
    <glyph glyph-name="uni3056" unicode="&#x3056;" 
d="M166 178v2l13 13h2q12 -9 24 -19q0 -2 2 -3l2 -2q-1 -3 -2 -3q-6 -6 -12 -10q-2 -2 -2 0q-5 3 -14 11q-9 7 -13 11zM190 203l12 14q4 -1 12 -8q3 -2 6 -3q2 -3 6 -6q3 -3 6 -5v-2l-13 -13q-2 -2 -2 0q-14 10 -27 21v2zM169 162h2l8 -24q-21 -8 -41 -13q3 -6 8 -12
q19 -34 39 -52l-22 -22q-28 23 -67 24h-4q-16 -1 -31 -5q-15 -6 -15 -18q0 -22 36 -29q7 -3 16 -4q8 -1 19 0h17l-5 -25h-11q-34 1 -57 11q-36 15 -36 45v4q0 21 20 34q18 8 42 9h9q17 0 47 -8q-16 21 -29 43q-11 -2 -32 -4h-2q-18 -2 -36 -2h-5q-4 -1 -3 1l-11 23h20
q16 -1 30 0t27 4q-1 1 -2 4q-1 2 -1 4q-17 32 -21 39v1l34 3q0 -3 1 -6q0 -4 1 -6q3 -18 11 -34q22 4 44 15z" />
    <glyph glyph-name="uni3057" unicode="&#x3057;" 
d="M55 199h2l32 -6q-2 -6 -3 -12v-138q-1 -20 7 -28q7 -10 21 -10h5q9 -1 18 4q11 4 23 11q15 9 28 25h2l12 -23v-2q-22 -21 -42 -31q-22 -9 -44 -10h-4q-20 1 -33 9q-17 11 -19 30q-3 13 -2 29v131q0 3 -3 21z" />
    <glyph glyph-name="uni3058" unicode="&#x3058;" 
d="M47 199l34 -4l1 -3q-2 -5 -4 -12v-2v-2v-128q-1 -17 7 -31q8 -12 26 -12h4q34 -1 68 40h2l13 -21q1 -2 0 -2q-16 -20 -38 -31q-25 -11 -49 -12h-7q-31 2 -44 25q-10 18 -9 47v123q0 12 -4 25zM143 153v2l13 13h2q13 -9 24 -19q0 -1 1 -2q2 -1 3 -3q0 -2 -2 -3
q-6 -6 -12 -10q-1 -2 -2 0q-6 4 -11 8q-11 9 -16 14zM167 178l12 14q5 -1 15 -9q1 -1 3 -2q2 -3 6 -6q3 -3 6 -5q1 -2 0 -2l-13 -13q-1 -2 -2 0q-14 10 -27 21v2z" />
    <glyph glyph-name="uni3059" unicode="&#x3059;" 
d="M129 79v13q-1 10 -8 11q-6 -1 -10 -4q-9 -8 -9 -20v-5q1 -21 13 -21q8 0 12 11q2 4 2 15zM123 213l35 -6q-6 -14 -5 -31v-9h37h45v-29q-17 2 -35 3q-18 2 -40 2h-7v-31q9 -11 10 -35v-17q-1 -21 -10 -42q-8 -18 -22 -33q-8 -10 -19 -18q-1 -1 -2 0q-3 2 -6 3
q-14 9 -23 11v2q39 17 53 51q-21 -10 -39 0q-20 14 -20 40v5q5 41 42 46h5h7v18h-11q-43 -1 -85 -10l-2 1l-10 29l1 2q4 0 12 -2h11h12h17q30 2 55 3q-4 40 -6 47z" />
    <glyph glyph-name="uni305A" unicode="&#x305a;" 
d="M242 196l-13 -11q-15 14 -24 21l11 11q2 -3 8 -6zM225 179l-13 -11q-17 16 -27 24l13 11q10 -8 27 -24zM125 77v14q-1 11 -10 12q-6 0 -12 -7q-11 -12 -7 -29q3 -14 15 -14q13 0 14 24zM153 207l1 -2q-6 -12 -7 -35q0 1 0 -6h21q13 0 20 1h43v-27q-20 2 -37 3
q-18 2 -34 2h-14v2q0 5 0 2v-14v-23l3 -3q0 -1 1 -1q8 -12 9 -32v-7q-1 -48 -29 -80q-7 -7 -21 -19q-1 -1 -1 -2h-2q-20 11 -32 12v1q20 10 30 19q20 16 21 33q-6 -2 -12 -2h-4q-34 3 -38 43v4q4 41 42 46h4q3 0 7 -1q-1 3 0 11q1 7 1 11q-1 -1 -3 -1q-23 -1 -49 -3
q-24 -3 -47 -9l-12 30l1 2q2 -1 8 -2q10 -2 15 -1h5q10 -1 63 3q10 -1 19 1q-1 21 -8 47q18 -2 36 -3z" />
    <glyph glyph-name="uni305B" unicode="&#x305b;" 
d="M11 118l1 2q7 -2 16 -1h5q9 -1 20 1q12 1 22 2v21q-1 7 -2 15t-3 17l34 -2q0 -2 -2 -5v-2q-3 -11 -3 -21v-20q10 -1 14 1q7 0 24 2q17 1 25 2v7q1 10 1 14v17q0 4 -2 14q-1 4 -1 9q14 -2 31 -2l1 -1q-1 -9 -3 -25q-1 -20 -1 -31q13 -1 18 1q17 0 34 1q2 0 3 1l3 -29
q-14 3 -26 3h-15q-5 -1 -19 -1v-8q-2 -25 -6 -36q-8 -20 -21 -19h-4q-8 0 -13 2v24h6q5 0 9 10q0 2 1 3q1 8 3 19v4q-8 -1 -41 -3q-6 -1 -21 -2q-1 -44 2 -62q2 -22 18 -22h42q23 -1 47 5v-28q-9 0 -18 -1q-22 -2 -32 -2h-14q-22 0 -41 5q-23 6 -26 32q-3 10 -2 33v38
q-29 -4 -47 -8q-5 -2 -9 -2z" />
    <glyph glyph-name="uni305C" unicode="&#x305c;" 
d="M188 164v2l13 13h2q12 -9 24 -19q0 -2 2 -3l2 -2q-1 -3 -2 -3q-6 -6 -12 -10q-2 -2 -2 0q-5 3 -14 11q-9 7 -13 11zM212 189l12 14q4 -1 12 -8q3 -2 6 -3q2 -3 6 -6q3 -3 6 -5v-2l-13 -13q-2 -2 -2 0q-14 10 -27 21v2zM142 189l31 -3v-2l-2 -9q-1 -9 -2 -25v-24
q16 1 33 3q13 0 27 2v-26h-18q-11 1 -16 1h-12q-8 0 -15 -1q0 -5 -1 -12t0 -11q-1 -4 -1 -11q-1 -6 -1 -9q-3 -14 -13 -20q-11 -7 -27 0l-2 24h8q5 0 10 9q0 2 1 7q0 5 1 8q-1 6 1 13h-8q-28 -2 -53 -4v-37q-1 -9 1 -16q-1 -8 2 -16q5 -17 23 -17h25q30 0 61 8l-3 -31h-89
q-11 1 -21 5q-9 5 -13 11q-10 13 -10 39v52l-48 -6q-5 -2 -8 -1v27h24q15 -1 32 1q-1 12 -2 26t-3 29l31 -3q0 -5 -2 -13v-10v-27q13 0 27 2q16 0 31 1q2 0 3 1v42q0 3 -1 10q-1 8 -1 13z" />
    <glyph glyph-name="uni305D" unicode="&#x305d;" 
d="M113 145l-1 -2l-23 -11l-2 1q-11 27 -24 45q18 11 24 11q15 -22 26 -44zM172 199l31 -15v-2q-7 -3 -14 -15l-1 -1l-4 -6q-12 -19 -20 -28q-5 -7 -13 -15q7 1 21 2q13 1 21 3q25 3 30 3h5v-27h-9q-18 0 -45 -12q-18 -9 -30 -24q-14 -19 -9 -30q7 -19 30 -25q17 -4 34 -5
q-2 -4 -4 -10q-1 -9 -4 -18h-4q-12 0 -29 6q-13 5 -25 12q-24 15 -25 43v5q-1 17 18 37q10 10 22 18q-45 -7 -83 -24q-2 -1 -5 -3q-10 -6 -15 -5q-5 0 -9 11q-5 9 -8 21q11 -4 36 2q2 0 4 1q10 2 21 5q10 3 16 5q1 -1 2 0t3 1q12 9 21 21q28 33 38 69h3z" />
    <glyph glyph-name="uni305E" unicode="&#x305e;" 
d="M89 146l-24 -11l-24 48l21 8q9 -13 24 -40q1 -3 3 -5zM227 168l-13 -11l-26 26l13 11zM253 190l-13 -11l-26 26l13 11zM180 186v-2q-10 -8 -23 -27q-5 -7 -7 -10t-4 -5q-6 -9 -16 -20q-2 -3 -4 -4q6 1 18 2q11 1 18 3q21 3 42 5l2 -27h-8q-18 0 -43 -10q-22 -9 -32 -22
q-13 -15 -13 -28q-1 -14 10 -22q15 -14 46 -14h8l-8 -29q-35 6 -53 16q-29 15 -29 43v5q-1 16 16 36q13 15 24 22q-5 -1 -9 -2q-66 -14 -95 -33l-16 32h8q7 -1 16 1q9 1 22 5q12 2 31 7q5 2 9 3q7 9 17 21q27 34 38 67q6 -2 18 -7q11 -5 17 -6z" />
    <glyph glyph-name="uni305F" unicode="&#x305f;" 
d="M175 117h9q16 -1 31 -2h3l1 -27l-1 -1q-28 6 -43 6h-9q-13 0 -23 -3l5 25q4 -1 13 1q9 1 14 1zM234 18l-3 -28q-17 -3 -33 -3h-10q-11 0 -45 5q-2 1 -4 1q-7 1 -9 3l-1 25q18 -5 29 -7q13 -2 24 -1h5q22 -1 47 5zM98 202h2l30 -8v-3q-8 -7 -10 -16q-4 -9 -8 -23
q20 3 40 8l2 -1v-26q-25 -5 -47 -6q-2 -3 -2 -7q-26 -88 -53 -137l-28 8l-1 2q35 63 58 133q-7 -1 -20 -1q-13 -1 -19 -1l-2 1l-5 24l1 2q3 0 12 -1t14 -1h7q9 -1 19 1q0 2 1 5q9 28 9 41v6z" />
    <glyph glyph-name="uni3060" unicode="&#x3060;" 
d="M170 114h9q5 0 30 -3l-2 -26q-5 0 -9 1q-19 4 -28 4h-9q-7 0 -21 -2q-6 -1 -8 -1l3 24q3 0 10 1q16 2 25 2zM169 10h10q12 -1 22 1q10 1 19 4l-3 -28q-7 0 -13 -1q-15 -2 -22 -2h-7q-18 0 -53 10q-3 1 -6 1l3 23q17 -5 28 -7q12 -2 22 -1zM182 156v2l13 13h2
q12 -9 24 -19q0 -2 2 -3l2 -2q-1 -3 -2 -3q-6 -6 -12 -10q-2 -2 -2 0q-5 3 -14 11q-9 7 -13 11zM206 181l12 14q4 -1 12 -8q3 -2 6 -3q2 -3 6 -6q3 -3 6 -5v-2l-13 -13q-2 -2 -2 0q-14 10 -27 21v2zM84 199h3l32 -8v-2q-6 -7 -8 -14l-2 -6q-3 -7 -6 -20q19 3 31 6q4 1 7 2
l2 -1l-3 -26q-23 -5 -44 -6q-13 -40 -26 -77q-16 -42 -30 -67l-1 -1l-30 11q20 25 43 85q9 22 17 47h-21h-15q-2 -1 -3 1l-5 26q25 -4 30 -3h11h10q8 29 8 47v6z" />
    <glyph glyph-name="uni3061" unicode="&#x3061;" 
d="M115 199l1 -1q-7 -10 -8 -19q-1 -2 -2 -5q-2 -9 -3 -20q34 3 68 15v-27q-36 -11 -72 -13q-2 -15 -3 -28q-2 -10 -2 -17v-4q-1 -2 1 -2q46 26 74 25h6q23 -1 40 -16q14 -17 15 -37v-4q-1 -25 -22 -45q-22 -16 -50 -22q-6 0 -11 -1q-12 -2 -18 -2h-6q-6 11 -11 18
q-7 6 -5 8h13q12 -1 19 0q9 1 16 3q14 2 26 9q29 20 19 48q-9 16 -33 17h-4q-44 -2 -75 -45q-6 -1 -15 1q-4 1 -5 2q-2 1 -1 3v4q3 44 9 84h-5h-7q-18 0 -34 3l-3 26q19 -3 39 -3h13q0 3 1 6q4 19 4 30v4l-1 3v5q15 -2 32 -3z" />
    <glyph glyph-name="uni3062" unicode="&#x3062;" 
d="M246 181l-13 -13q-13 14 -28 28l13 12l6 -6q15 -13 22 -21zM223 163l-13 -13q-13 14 -28 28l13 12l6 -6q15 -13 22 -21zM157 169h2v-28q-16 -7 -48 -10q-12 -2 -24 -3q-4 -43 -5 -49v-5q12 11 28 19q21 9 42 10h6q28 -1 44 -13q18 -16 19 -38v-5q-1 -17 -13 -33
q-12 -15 -30 -24q-23 -11 -65 -15l-15 25h6q10 0 19 2q18 1 30 7q37 14 38 39v4v1q-4 14 -12 20t-19 6h-7q-52 -3 -77 -48l-21 6q4 45 9 89q-23 -2 -46 -1l-8 29q9 -1 19 -2q12 -1 18 -1h20v5q1 12 2 27v5q0 7 -3 14q6 -1 19 -3q12 -1 18 -1q0 -4 -4 -9l-1 -1q-7 -19 -8 -36
q13 1 26 5q27 5 41 12z" />
    <glyph glyph-name="uni3063" unicode="&#x3063;" 
d="M159 157h5q25 -1 42 -15q17 -17 18 -42v-4q0 -17 -9 -31q-7 -13 -27 -26q-28 -20 -60 -21l-16 19q37 5 60 19q29 17 30 43v4q-4 30 -41 35h-4q-12 0 -31 -6q-12 -5 -24 -9q-21 -9 -40 -21q-2 -1 -3 -2q-3 -3 -6 -2l-21 24q28 6 55 17l8 2q42 16 64 16z" />
    <glyph glyph-name="uni3064" unicode="&#x3064;" 
d="M158 165h5q35 -1 59 -19q24 -24 26 -53v-5q0 -25 -15 -43q-13 -16 -29 -26q-19 -13 -41 -19q-17 -6 -35 -8l-24 25v1q30 1 57 12q32 10 46 26q13 14 14 32v5q-1 18 -18 35q-15 12 -35 13h-5q-19 0 -50 -10q-27 -9 -54 -21q-3 -2 -5 -3q-13 -5 -17 -12h-3l-26 28v2
q20 3 58 17q27 10 42 14q2 0 4 1q31 8 46 8z" />
    <glyph glyph-name="uni3065" unicode="&#x3065;" 
d="M148 162h6q33 -1 58 -18q24 -20 26 -51v-7q-1 -22 -11 -39q-9 -16 -29 -28q-27 -19 -81 -28l-2 1q-9 12 -19 25q25 1 49 9q37 10 54 30q14 15 15 33v4q-2 22 -21 35q-16 9 -39 10h-4q-14 0 -39 -6q-6 -2 -15 -4q-10 -3 -15 -4q-34 -11 -54 -26l-24 29q17 1 50 14q5 2 8 3
q5 1 14 4q9 2 15 4q37 10 58 10zM187 183l11 14q16 -9 30 -21l-12 -14l-6 4q-14 12 -23 17zM212 204l11 14q16 -9 30 -21l-12 -14l-6 4q-14 12 -23 17z" />
    <glyph glyph-name="uni3066" unicode="&#x3066;" 
d="M24 151h3q30 5 86 17t87 18q15 3 30 5l2 -29h-6q-47 0 -69 -24q-26 -30 -26 -68v-4q0 -25 14 -39q13 -15 44 -14h17v-31h-15q-41 1 -63 23q-21 22 -21 59v9q0 38 32 78q-10 -2 -60 -15q-5 -2 -9 -3q-21 -6 -30 -11z" />
    <glyph glyph-name="uni3067" unicode="&#x3067;" 
d="M4 151h6q10 0 32 5q6 2 10 3q19 4 37 9q33 7 65 14q26 3 40 9q0 -4 2 -11q4 -11 3 -15q-5 -2 -15 -3q-23 -4 -33 -11q-21 -17 -29 -43q-4 -12 -5 -20q-2 -9 -1 -15v-6q0 -24 15 -39t39 -15h5q8 0 16 2v-31h-8q-37 1 -63 18q-29 22 -30 63v5q-1 38 31 82q-9 -3 -18 -5
q-40 -10 -62 -17q-4 -2 -7 -3q-11 -3 -14 -7l-16 29v2zM188 138l14 12q16 -17 24 -27l-14 -12q-14 18 -24 27zM215 157l14 12q13 -13 23 -26l-15 -12q-3 2 -5 5q-10 14 -17 21z" />
    <glyph glyph-name="uni3068" unicode="&#x3068;" 
d="M185 159l22 -25v-2q-62 -19 -97 -41q-19 -12 -31 -30q-7 -10 -6 -17v-4q0 -17 19 -27q12 -7 34 -6h7q29 0 58 8l2 -31h-25q-17 -2 -25 -2h-15q-34 0 -53 11q-26 15 -26 46v5q0 32 41 63q3 1 5 3q-9 35 -32 84l27 5q14 -31 30 -75l36 18q19 7 29 17z" />
    <glyph glyph-name="uni3069" unicode="&#x3069;" 
d="M168 175l15 9q13 -15 24 -31l-15 -10q-5 5 -12 16q-8 10 -12 16zM194 193l15 9q13 -15 24 -31l-15 -10q-5 5 -12 16q-8 10 -12 16zM163 154l19 -21v-2q-21 -5 -40 -13q-34 -14 -62 -31q-18 -11 -25 -24q-7 -10 -7 -20v-4q0 -17 21 -26q13 -6 32 -6h5q16 -1 46 4q8 2 13 3
l3 -30q-8 1 -21 -1q-14 -1 -21 -1h-21q-22 0 -41 7q-26 10 -34 25q-6 10 -6 24v5q0 23 22 47q7 8 27 22q-12 42 -33 82l26 4q13 -27 30 -73q0 -1 2 1q14 7 31 13q1 0 3 1q9 3 23 10l2 1q3 3 6 3z" />
    <glyph glyph-name="uni306A" unicode="&#x306a;" 
d="M220 103h-2q-19 23 -44 40l14 19h2q19 -14 35 -28q7 -6 9 -11zM145 168v-26q-22 -7 -40 -11h-3q-19 -59 -53 -110h-3l-23 8l-1 2q34 43 53 98q-6 -1 -17 -1q-12 -1 -17 -1l-3 27h8q11 -1 22 1q2 -1 7 0t8 1q6 25 6 43v6q4 -2 14 -4t15 -4q0 -7 -4 -18q-1 -2 -1 -4
q-2 -8 -3 -15q18 1 35 8zM147 125h2l23 -5q0 -6 -1 -12q-1 -14 1 -42q1 -17 2 -25q28 -8 53 -23v-3l-10 -23q-4 1 -9 5q-3 3 -4 3q-14 8 -30 13q0 -10 -3 -18q-2 -5 -7 -10q-10 -11 -33 -11h-6q-21 1 -34 13q-11 14 -7 30q3 11 14 19q16 8 36 9h7q4 0 9 -1q-2 40 -3 81z
M132 23h-4q-16 -1 -20 -10q-4 -15 13 -18h9q18 2 20 25q0 -1 0 1z" />
    <glyph glyph-name="uni306B" unicode="&#x306b;" 
d="M39 191l35 -10q0 -5 -9 -21q-15 -38 -15 -80v-8q-1 -28 9 -46h2q4 10 10 21l11 -2q-9 -32 -8 -47v-6l-24 -5q-14 14 -18 40q-6 24 -6 51v11q-1 12 1 27q2 13 7 37q5 25 5 33v5zM166 170h11q8 0 24 -2q7 -1 14 -1v-26q-7 -1 -18 1q-12 1 -18 1h-11q-11 0 -31 -3
q-16 -2 -23 -2l-3 26q11 0 23 2q15 3 32 4zM164 31h9q28 0 56 8l2 -27q-23 -8 -47 -7h-11q-46 0 -70 22q-9 5 -8 12l18 11q17 -19 51 -19z" />
    <glyph glyph-name="uni306C" unicode="&#x306c;" 
d="M142 160h7q37 -2 62 -23q22 -25 23 -56v-4q-1 -28 -13 -52q13 -6 26 -15l-12 -22q-14 11 -27 17q-20 -21 -55 -23h-5q-35 3 -37 30q3 28 44 33h5q15 0 39 -9q7 16 8 34v6q-1 25 -17 44q-17 14 -41 15h-4q-4 0 -7 -1q-5 -25 -13 -49q-7 -16 -14 -29q2 -3 7 -7q2 -2 4 -2
l-17 -18h-2q-1 0 -3 1q-3 2 -4 4q-3 -3 -7 -8t-6 -7q-23 -24 -43 -24h-4q-25 2 -26 35v5q0 20 12 43q7 13 17 27q-1 1 -3 5q-9 17 -12 28q-3 4 -3 11l24 10q3 -18 11 -36q28 26 62 34q1 6 1 13v7q0 3 -1 10t-1 12q9 -1 27 -5h5q0 -3 -2 -7l-1 -1q-3 -10 -3 -19q0 -1 -1 -3
v-4zM115 130q-14 -5 -25 -12q-12 -8 -20 -17q10 -17 24 -28q14 24 21 57zM34 36v-4q0 -11 10 -11q6 0 18 10q1 1 3 2q7 7 15 17q-15 14 -26 32q-4 -4 -5 -7q-15 -21 -15 -39zM154 26h-6q-7 0 -10 -3q-5 -4 -5 -9q1 -11 17 -12h5q15 0 31 15h-2q-2 1 -2 2q-14 6 -28 7z" />
    <glyph glyph-name="uni306D" unicode="&#x306d;" 
d="M60 202h3l32 -6q-1 -3 -6 -15q-6 -16 -7 -32q2 1 5 4l6 4h2q8 -8 19 -14q-18 -18 -30 -39q16 19 39 34q31 21 54 21h4q21 -1 36 -28q9 -20 9 -41v-6q-1 -24 -7 -42q17 -8 31 -21l-14 -21h-1q-3 0 -7 4q-9 8 -13 12q-3 1 -6 3q-18 -27 -50 -29h-5q-28 2 -37 19
q-10 22 13 40q13 8 32 9h4q13 -1 27 -5q3 15 3 31v16q-1 19 -11 29q-13 9 -30 3q-20 -8 -51 -36q-14 -12 -25 -24v-7q-1 -18 3 -50q1 -9 2 -13q-1 -4 1 -15q0 -2 1 -3l-29 -2q-1 12 0 32q1 21 1 33q-5 -6 -7 -11q-2 -3 -3 -5q-13 -19 -14 -29h-3l-24 16v3q6 5 16 19
q-1 -1 2 2q18 25 33 53v10q1 8 1 13q-3 -2 -10 -4q-22 -9 -31 -16l-11 27v2h5q32 6 49 12q-1 7 1 14v7q1 5 1 9v5q0 5 -2 17q-1 5 -1 11zM184 30q-14 3 -29 4q-21 -4 -16 -16q4 -8 15 -8q7 -1 15 4q7 5 14 13q-1 0 0 1t1 2z" />
    <glyph glyph-name="uni306E" unicode="&#x306e;" 
d="M247 94v-7q-1 -34 -26 -63q-24 -25 -50 -37h-2l-8 6q-10 7 -15 10v2q71 34 72 87v5q-1 23 -22 46q-20 16 -42 18q-9 -39 -22 -73q-2 -3 -3 -6q-16 -41 -27 -59q-15 -24 -33 -25q-29 1 -49 35q-10 15 -10 34v5q0 17 8 34q6 15 17 29q23 29 54 41q29 10 47 10h11
q44 -1 72 -27q27 -29 28 -65zM36 77v-5q0 -17 10 -30q7 -13 19 -13q9 -1 18 13q4 5 10 19q1 2 3 5q25 54 33 95q-20 -2 -37 -10q-26 -14 -41 -37q-15 -22 -15 -37z" />
    <glyph glyph-name="uni306F" unicode="&#x306f;" 
d="M41 199h3l27 -10q-1 -6 -6 -16q-3 -4 -3 -6q-5 -12 -11 -36q-1 -4 -2 -7q-4 -16 -5 -25q-2 -9 -1 -17v-8q0 -22 7 -48h2q6 10 11 21h2l8 -8v-2q-7 -26 -10 -50l-22 -5q-21 36 -21 89v15q-1 9 1 22q2 11 7 30q1 4 4 13q9 28 9 44v4zM148 194l35 -5q-3 -46 -2 -58v0v9
q21 1 42 6v-24q-20 -5 -41 -6v-55q1 -13 1 -17q9 -3 26 -11q17 -10 27 -18l-16 -19h-3q-8 6 -17 12l-18 10q-4 -14 -11 -20q-13 -14 -37 -15h-5q-19 1 -30 8q-14 9 -15 26v4q0 14 15 24q11 7 30 8h5q13 -1 25 -2q0 9 -2 28t-1 29v6h-9h-12q-22 0 -43 4l-3 25q9 -2 34 -4
q11 -2 20 -1h8h5q-3 34 -3 36v2q-1 11 -5 18zM132 31h-5q-14 0 -19 -5q-8 -10 6 -18q19 -8 37 4q5 2 7 14q-13 4 -26 5z" />
    <glyph glyph-name="uni3070" unicode="&#x3070;" 
d="M28 197h3l29 -11q0 -4 -9 -21q-20 -44 -20 -84v-7q-1 -33 10 -53q4 12 11 24l12 -7q-10 -29 -9 -47v-7l-22 -5h-2q-23 43 -22 93v9q-1 24 11 63q8 29 8 46v7zM227 170l-13 -12q-5 4 -14 11q-10 7 -14 12l13 13q5 -5 10 -9q10 -7 18 -15zM248 188l-13 -12q-5 4 -14 11
q-10 7 -14 12l13 13q5 -5 10 -9q10 -7 18 -15zM140 191l32 -2q-3 -16 -4 -32q0 -1 -1 -4v-13h1q2 1 4 1q20 1 40 8v-26q-23 -5 -45 -7v-8q1 -6 2 -8q1 -26 4 -50v-5q22 -8 55 -27l-16 -23q-2 1 -4 3q-22 13 -35 20q-3 -14 -11 -22q-15 -13 -40 -14h-4q-29 2 -39 21
q-9 23 10 40q12 9 35 10h4l22 -2q-2 11 -5 63h-14h-12q-12 -1 -22 0t-18 4v25q14 -4 22 -5q9 -2 17 -1h12q7 -1 15 1q0 4 -1 13t0 14q-1 3 -1 6q-1 13 -3 20zM124 31h-5q-14 -1 -19 -7q-8 -11 5 -19q17 -8 38 7q4 3 7 14q-13 4 -26 5z" />
    <glyph glyph-name="uni3071" unicode="&#x3071;" 
d="M25 197h3q15 -7 29 -11v-3q-6 -7 -8 -14q-8 -23 -14 -45q-4 -17 -5 -27q-2 -11 -1 -19v-11q0 -10 2 -17q2 -15 8 -27q5 10 10 22l14 -5q-1 -2 -2 -6q-10 -31 -9 -46v-4l-19 -5h-2q-9 13 -14 26q-10 29 -10 61v17q-1 16 9 57q0 2 1 4q8 31 8 47v6zM219 157q-30 1 -31 29
q2 27 31 29q28 -2 30 -29q-2 -28 -30 -29zM219 173q12 0 14 12q-1 13 -14 14q-15 -1 -15 -13q0 -13 15 -13zM122 136h12h9q-3 37 -6 55l34 -2v-2q-4 -4 -4 -13v-8v-15q1 -9 1 -12q0 -1 2 0q1 1 2 1q23 3 35 9v-25q-13 -4 -39 -8q-1 -8 0 -22q1 -15 1 -22v-10q1 -5 1 -13v-4
q25 -10 53 -24l-14 -26q-11 7 -34 18q-4 2 -5 4q-5 -16 -10 -20q-14 -14 -37 -15h-6q-41 5 -44 36q3 30 45 35h6q10 -1 21 -2l-1 4q-1 21 -1 49v10h-13h-10q-22 0 -42 3q-2 0 -2 1v25q23 -7 46 -7zM120 31h-5q-20 -2 -20 -14q0 -11 20 -12h4q10 0 18 6q8 7 8 16q-13 3 -25 4
z" />
    <glyph glyph-name="uni3072" unicode="&#x3072;" 
d="M19 170h6q37 0 72 21h2l22 -16v-2q-6 -5 -12 -9q-10 -8 -13 -11q-14 -14 -27 -41q-16 -30 -15 -52v-5q-1 -17 11 -29q14 -16 32 -16h5q25 0 41 18q16 19 20 50q1 16 2 35v13q-1 14 -3 30q-1 10 -1 22l24 5q0 -6 2 -10q1 -10 6 -17q2 -3 5 -9q2 -6 5 -8q6 -12 23 -30
q4 -4 6 -5q7 -7 6 -9l-21 -16h-3q-15 19 -27 40v-28q-1 -48 -21 -77q-26 -30 -63 -32h-4q-27 1 -49 18q-20 17 -20 48v8q0 48 40 101q-6 -3 -16 -6q-11 -4 -16 -6q-2 -1 -3 -2q-3 -3 -5 -2l-11 26v3z" />
    <glyph glyph-name="uni3073" unicode="&#x3073;" 
d="M81 191h1l22 -15v-2q-22 -13 -39 -38q-16 -23 -25 -48q-6 -14 -6 -29v-4q4 -44 47 -48h4q17 -1 31 10q13 10 21 26q13 28 14 67v9q0 21 -10 59q12 1 24 3q17 -51 55 -86l-21 -16q-16 15 -26 35l-2 -20q-2 -46 -13 -66q-25 -44 -73 -46h-6q-29 2 -50 20q-19 17 -19 49v6
q0 31 33 86q4 7 7 11q-6 -3 -17 -5q-15 -3 -20 -8l-11 26q8 1 16 3q36 6 54 16q1 0 3 2q3 3 6 3zM190 180l14 11q15 -16 27 -32l-16 -13q-12 17 -25 34zM213 199l13 14q4 -5 8 -9q15 -13 21 -21l-13 -13q-14 15 -29 29z" />
    <glyph glyph-name="uni3074" unicode="&#x3074;" 
d="M84 191l20 -15v-2q-20 -12 -37 -41q-2 -3 -4 -7q-13 -24 -18 -38q-4 -10 -5 -16q-2 -7 -1 -12v-5q5 -43 46 -48h5q26 0 43 21q12 14 18 47q3 15 3 32v7q-1 11 -2 24q-2 12 -4 23q-1 2 -3 7t-2 10q13 1 27 5q6 -43 53 -88l-21 -16q-8 7 -20 26q-5 8 -7 12v-17l-2 -22
t-3 -22q-6 -25 -16 -39q-27 -34 -66 -35h-4q-27 1 -48 18q-24 22 -24 48v4q0 10 5 29q0 2 1 3q4 12 9 24q12 24 27 48q-4 -2 -13 -4q-14 -4 -19 -7l-2 -2q-2 -4 -5 -2l-11 29h6q21 0 41 7q16 4 31 14h2zM225 146h-4q-25 2 -27 29q2 27 27 30h4q25 -2 27 -31q-2 -27 -27 -28z
M236 175q-1 13 -13 14q-12 -1 -13 -14q0 -13 13 -13q12 0 13 13z" />
    <glyph glyph-name="uni3075" unicode="&#x3075;" 
d="M92 173l17 19q25 -13 48 -31l-18 -20q-23 18 -47 32zM96 125h24v-3q3 -17 8 -27q6 -15 14 -28l2 -4q17 -30 13 -46q-9 -23 -31 -25q-6 0 -17 2q-4 1 -6 1l-1 1l-4 23l1 2q16 -8 26 3q6 8 -3 27q-8 12 -13 26q-14 24 -13 44v4zM3 58l24 8q3 -11 8 -21q2 -8 9 -8q2 0 8 4
q0 -1 2 1q9 7 18 16q3 -14 8 -27l-8 -8q-14 -15 -24 -17q-20 -6 -34 21q-8 14 -11 31zM182 74l20 12q26 -22 52 -57l-22 -16h-2q-23 31 -48 61z" />
    <glyph glyph-name="uni3076" unicode="&#x3076;" 
d="M93 173l16 18q1 -1 3 -2q32 -17 45 -30l-16 -18q-23 18 -48 32zM71 55l11 -21v-3q-11 -11 -21 -19q-11 -7 -20 -7h-4q-15 0 -23 20q-7 13 -12 33l24 8v-4q4 -10 7 -14q3 -12 12 -11q7 0 18 11q5 5 8 7zM255 23l-22 -13h-2q-25 39 -49 62l17 11h3q0 -1 2 -3q13 -11 20 -17
q4 -5 11 -14t12 -13l2 -4q6 -6 6 -9zM184 158l15 12q14 -14 26 -31l-16 -12h-2q-3 3 -5 6q-5 9 -18 25zM255 157l-16 -11q-12 16 -25 31l15 9q13 -14 26 -29zM95 125h24v-3q3 -17 8 -27q6 -15 14 -28l2 -4q17 -30 13 -46q-9 -23 -31 -25q-6 0 -17 2q-4 1 -6 1l-1 1l-4 23
l1 2q16 -8 26 3q6 8 -3 27q-8 12 -13 26q-14 24 -13 44v4z" />
    <glyph glyph-name="uni3077" unicode="&#x3077;" 
d="M155 159l-16 -18q-17 13 -45 30l13 20q25 -14 48 -32zM120 124v-4v-2q3 -18 12 -34q3 -8 10 -21t11 -20v-2q5 -11 5 -15v-4q-4 -28 -31 -32h-4q-3 0 -7 1h-4q-2 1 -5 1q-4 1 -5 1l-3 25l13 -3q13 -2 16 12v4q0 8 -10 24q-2 4 -3 8q-21 34 -19 62q12 -2 24 -1zM70 55
l13 -21q-11 -13 -21 -23q-6 -7 -12 -8q-11 -3 -20 2t-13 13q-14 17 -14 37l23 11q1 -9 5 -18q4 -14 14 -14q2 0 8 4q0 -1 2 1q7 6 15 16zM180 73l21 12q33 -31 53 -62l-22 -13q-23 33 -52 63zM221 119q-30 1 -31 31q2 27 31 30q28 -2 30 -31q-2 -29 -30 -30zM221 135
q13 0 14 14q-1 14 -14 15q-15 -1 -15 -14q0 -15 15 -15z" />
    <glyph glyph-name="uni3078" unicode="&#x3078;" 
d="M245 62l1 -2l-16 -26h-3q-39 20 -96 69q-4 2 -10 8q-7 5 -10 8h-2q-11 8 -16 5q-3 -2 -9 -7l-4 -4q-12 -11 -21 -22q-15 -16 -18 -26h-2l-28 25v3q9 0 24 14q1 1 3 2q10 8 21 19l4 4q19 19 35 19q11 0 32 -16l4 -2q3 -3 11 -9q23 -18 37 -26q30 -20 63 -36z" />
    <glyph glyph-name="uni3079" unicode="&#x3079;" 
d="M245 50l1 -2l-16 -26h-3q-39 20 -96 69q-4 2 -10 8q-7 5 -10 8h-2q-11 8 -16 5q-3 -2 -9 -7l-4 -4q-12 -11 -21 -22q-15 -16 -18 -26h-2l-28 25v3q9 0 24 14q1 1 3 2q10 8 21 19l4 4q19 19 35 19q11 0 32 -16l4 -2q3 -3 11 -9q23 -18 37 -26q30 -20 63 -36zM173 149v2
l13 13h2q12 -9 24 -19q0 -2 2 -3l2 -2q-1 -3 -2 -3q-6 -6 -12 -10q-2 -2 -2 0q-5 3 -14 11q-9 7 -13 11zM197 174l12 14q4 -1 12 -8q3 -2 6 -3q2 -3 6 -6q3 -3 6 -5v-2l-13 -13q-2 -2 -2 0q-14 10 -27 21v2z" />
    <glyph glyph-name="uni307A" unicode="&#x307a;" 
d="M202 127q-30 1 -31 31q2 29 31 31q29 -2 31 -31q-2 -30 -31 -31zM202 143q14 0 15 14q-1 15 -15 16q-14 -2 -15 -15q0 -15 15 -15zM245 49l1 -2l-16 -26h-3q-39 20 -96 69q-4 2 -10 8q-7 5 -10 8h-2q-11 8 -16 5q-3 -2 -9 -7l-4 -4q-12 -11 -21 -22q-15 -16 -18 -26h-2
l-28 25v3q9 0 24 14q1 1 3 2q10 8 21 19l4 4q19 19 35 19q11 0 32 -16l4 -2q3 -3 11 -9q23 -18 37 -26q30 -20 63 -36z" />
    <glyph glyph-name="uni307B" unicode="&#x307b;" 
d="M42 75v-11q0 -11 2 -21q1 -11 6 -20h2l8 30l14 -4q-1 -6 -4 -17q-5 -26 -4 -38v-10l-22 -5h-2q-22 30 -22 83v18q0 33 8 66l2 10q6 23 6 35v6l14 -4q12 -3 18 -4q-12 -27 -21 -72q-2 -8 -4 -27q-2 -9 -1 -15zM204 191l3 -23q-8 -3 -24 -5h-1q-2 -8 -2 -16v-20q9 0 27 4
q7 1 11 2l3 -22l-1 -2q-20 -4 -39 -5q0 -8 1 -16q2 -17 4 -43q27 -9 50 -27l-11 -23h-2q-21 16 -37 23q-1 -18 -17 -28q-13 -5 -27 -6h-4q-43 5 -46 36q2 29 45 33h4l20 -2q-1 3 -1 9q-1 6 -1 10q0 5 -2 18v14q-23 -2 -45 -1h-12q-2 -1 -3 1l-5 23l1 2q4 -1 12 -2
q15 -2 23 -1h10h18q0 1 -1 5q0 18 1 31q-19 -2 -38 -1h-13l-7 24v3q17 -3 34 -3h12q29 0 60 8zM145 31h-4l-14 -2q-12 -5 -11 -10q1 -12 18 -14h6q11 0 18 10q3 5 4 17q-4 -2 -13 -2q-3 0 -4 1z" />
    <glyph glyph-name="uni307C" unicode="&#x307c;" 
d="M21 202h2q15 -5 30 -8v-3q-6 -4 -9 -16q-1 -2 -1 -3q-7 -23 -11 -43v-3q-6 -28 -6 -53v-15q0 -14 5 -27q6 10 14 23l13 -6q-12 -33 -11 -53v-8q-12 -1 -24 -3q-21 41 -21 84v11q0 15 3 32q2 20 8 41q8 27 8 45v5zM231 146l-16 -11q-11 15 -21 30l14 10q3 -5 8 -10
q10 -12 15 -19zM218 183l13 11q4 -6 9 -11l15 -18l-13 -11q-5 5 -12 14q-8 9 -12 15zM191 191v-24l-24 -2q-2 -11 -1 -16v-20q18 1 36 6l3 -24q-20 -4 -39 -5v-6q0 -26 1 -50q0 -2 1 -2q25 -10 53 -30l-14 -22q-17 13 -38 24q-2 -16 -12 -22q-15 -9 -34 -10h-4q-40 4 -42 31
v4q0 16 15 25q9 7 30 7h6q6 0 14 -1v50q-9 -2 -16 -1h-14q-6 -1 -15 0q-10 1 -15 1l-7 25l2 1q21 -4 44 -4h15h5v16v21q-21 -2 -42 -2h-9l-8 25v3q14 -4 31 -4h12q9 -1 22 1q22 2 44 5zM124 34h-4q-21 -2 -22 -14q0 -12 21 -13q8 0 14 4q8 6 9 21z" />
    <glyph glyph-name="uni307D" unicode="&#x307d;" 
d="M49 191v-2q-4 -5 -8 -16v-2q-8 -24 -13 -48q-4 -17 -5 -27q-2 -11 -1 -19v-9q0 -23 6 -42q8 13 16 27l11 -3q-5 -17 -8 -33q-4 -21 -3 -26v-7l-22 -3q-3 0 -6 8v1q-1 3 -3 7q-5 11 -6 17q-6 22 -6 47v20q-1 10 1 23q2 11 6 32l6 32q3 11 3 25v4q5 -1 16 -3q10 -3 16 -3z
M227 128q-26 2 -28 28q1 26 28 28q26 -2 28 -28q-1 -28 -28 -28zM213 156q0 -14 14 -14q13 0 14 14q-1 13 -14 14q-14 -1 -14 -14zM107 182h12q29 0 66 7l4 -22l-1 -2q-12 -2 -24 -3l-1 -1q-2 -14 -2 -28v-8q17 2 32 5l3 -21q-15 -4 -35 -6q1 -30 5 -58v-1q19 -9 52 -29
l-11 -21l-2 -1q-12 9 -39 25q-1 -16 -12 -24q-12 -9 -31 -10h-5h-3q-40 8 -42 35q2 29 47 34h6q4 -1 15 -1q-2 25 -2 49h-15h-22q-12 -1 -24 1l-2 1q-2 12 -3 24q22 -3 45 -3h17h3q-2 15 -1 31v5q-21 -2 -42 -1h-9l-8 24q5 -1 15 -1q9 -1 14 0zM121 31h-6q-18 -2 -18 -13
q0 -12 18 -13h4q11 0 18 9q2 2 4 12l1 2l-10 2q-6 0 -11 1z" />
    <glyph glyph-name="uni307E" unicode="&#x307e;" 
d="M122 202l31 -4l1 -1q-4 -6 -5 -12q-1 -3 -2 -15v-7q9 0 28 3q10 2 16 3l-2 -23q-21 -4 -42 -5q-1 -6 0 -16q1 -11 1 -16h2q22 1 44 8l-3 -24q-17 -6 -41 -7q0 -17 3 -48q31 -11 57 -31l-13 -19q-14 12 -43 24q-1 -20 -19 -30q-16 -6 -31 -6h-9q-24 1 -38 13q-16 14 -7 34
q5 10 18 16q16 6 35 6h9q8 -1 14 -2h3q0 7 -1 20q-2 13 -1 21q0 -1 0 1h-21q-20 -1 -37 1l-2 1l-4 22v2q17 -4 37 -4h20h6q0 4 -1 14v20h-7q-10 -1 -22 0q-11 0 -28 2l-2 1l-5 23q6 -1 18 -2q17 -3 27 -2h19v11q-1 6 -2 19q-1 4 -1 9zM100 26h-5q-23 -2 -24 -16q0 -8 9 -10
q7 -2 16 -2h5q12 1 22 5q7 5 7 16v4q-26 3 -30 3z" />
    <glyph glyph-name="uni307F" unicode="&#x307f;" 
d="M9 31v4q-1 12 10 32q7 12 18 21q26 20 57 21h2q4 6 7 12q11 21 25 42l-2 2q-35 -6 -48 -16q-4 5 -9 15q-5 9 -8 15l1 2h12q18 0 35 4q16 3 31 9h2l26 -25q0 -4 -5 -8h-1q-10 -7 -17 -14q-3 -3 -12 -18q-3 -4 -7 -11q-4 -8 -6 -11l22 -6q20 -8 40 -17q6 27 6 44v7h2l27 -8
v-2q-5 -10 -9 -28q-2 -6 -3 -12q-2 -6 -3 -12q24 -14 45 -31l-12 -24h-2q-16 15 -35 29q-2 1 -5 3q-5 -14 -13 -25q-19 -28 -49 -46h-2q-12 12 -21 15v1q32 17 47 35q13 14 19 31l-1 1q-35 18 -64 24q-12 -24 -25 -46q-24 -42 -51 -37q-23 6 -24 28zM40 60q-9 -12 -9 -15
q-4 -19 9 -19q7 -1 13 8q5 5 10 13q12 19 21 40q-25 -3 -44 -27z" />
    <glyph glyph-name="uni3080" unicode="&#x3080;" 
d="M177 148v3l10 17q29 -12 52 -30l-14 -21h-2q-21 17 -46 31zM65 75v5v1q-1 0 -1 1q-2 11 -7 11q-4 0 -8 -3q-8 -7 -8 -23v-4q1 -16 10 -16q9 1 12 10q2 5 2 18zM60 202l32 -5q-5 -16 -6 -40q21 2 41 8l-3 -27q-20 -4 -39 -5q-2 -1 -1 -11v-11q-1 -5 1 -12q1 -3 2 -4
q1 -5 1 -11q1 -5 1 -14v-9q0 -15 -6 -27q-2 -3 -2 -6v-4q0 -10 9 -17q5 -6 19 -5h21q13 0 26 3q11 1 16 9q10 12 11 39v5l26 -13v-4q-1 -24 -12 -41t-38 -19l-40 -2h-20q-19 1 -29 9q-13 12 -13 29v4q-36 0 -40 42v4q0 19 10 32q10 12 35 15q-1 -5 1 18q-14 -2 -29 -1h-8
q-2 -1 -3 1l-6 25q9 -2 18 -1h23h5q0 3 -1 11t0 12v6q-1 7 -2 17z" />
    <glyph glyph-name="uni3081" unicode="&#x3081;" 
d="M138 197h4h2l26 -6q-3 -20 -6 -37q34 -2 52 -17q25 -24 26 -58v-6q-1 -28 -14 -48q-14 -20 -34 -31q-14 -8 -28 -13q-3 0 -6 6l-2 2q-7 7 -14 11q64 15 69 71v4q-1 25 -19 42q-15 11 -35 13q-12 -42 -33 -75q7 -9 18 -16l-20 -18q-2 -2 -2 0q-3 2 -7 6q-4 3 -6 6
q-7 -8 -14 -15q-26 -23 -46 -23h-4q-28 2 -30 40v5q0 21 14 44q11 18 23 29q-13 22 -23 46l27 14v-5v-2q4 -20 14 -38q35 22 69 25v2q1 9 2 21v4q0 8 -3 17zM133 129q-29 -5 -51 -21q2 -5 8 -12q1 -2 2 -2q7 -12 17 -22q6 10 12 22q7 16 12 35zM40 41v-4q0 -13 6 -15
q4 -4 16 2q11 6 26 21l6 6q-9 8 -15 19q-8 10 -15 22q-8 -9 -14 -19q-10 -16 -10 -32z" />
    <glyph glyph-name="uni3082" unicode="&#x3082;" 
d="M101 207h5l29 -8v-2q-4 -3 -7 -11q-1 -2 -1 -3q-5 -14 -8 -27q-1 -2 -1 -4q-1 -2 -1 -3h7h12q10 0 23 2l-6 -25q-2 -2 -3 -1h-22h-17q-1 -7 -3 -20q-1 -14 -2 -21q26 -4 48 -1v-4l-4 -20q-2 -2 -2 -1h-21q-12 -1 -24 1v-14v-10q-1 -18 10 -26q9 -9 23 -9h5q19 0 30 11
q9 10 10 26v4q0 17 -20 47q-1 2 -2 5l28 2q22 -24 23 -56v-5q-1 -28 -21 -45q-20 -14 -45 -15h-5q-25 1 -43 17q-17 14 -17 46v10q-1 7 1 17q-17 3 -33 10l3 24q16 -8 33 -10v1q1 2 1 4q0 3 1 11q2 16 5 24q-12 3 -22 6q-7 0 -7 4l2 24q14 -6 31 -9q1 10 4 21q0 2 1 7
q2 12 2 19v7z" />
    <glyph glyph-name="uni3083" unicode="&#x3083;" 
d="M146 159l-14 -13q-15 13 -32 24l14 13q4 -4 8 -7q16 -11 24 -17zM76 157v-4v-2q2 -5 8 -14q5 -9 8 -13q16 7 34 15q35 15 55 15h5q36 -4 40 -38v-5q-1 -23 -30 -36q-18 -9 -46 -10l-2 1l-10 16v3h11q21 -1 35 6q17 7 18 25v4q-1 5 -3 9q-5 5 -10 7q-2 -1 -4 0q-3 1 -4 1
q-7 0 -20 -4q-3 -1 -5 -1q-7 -2 -18 -7q-2 -1 -3 -1q-8 -3 -21 -10q-7 -3 -13 -6q3 -7 10 -20q6 -14 10 -20q12 -26 22 -53l-19 -8q-7 18 -14 37q-14 27 -27 54q-4 -2 -9 -5l-4 -2l-4 -2q-11 -6 -14 -12h-2l-19 18v3q22 6 42 17q-4 5 -11 17q-7 11 -10 17l22 8h2z" />
    <glyph glyph-name="uni3084" unicode="&#x3084;" 
d="M96 181l16 16q23 -12 40 -30l-19 -16q-12 12 -37 30zM68 167v-6v-2q9 -19 18 -35q2 0 4 2q5 2 11 5q26 13 41 18q31 10 50 10h5q19 -1 33 -9q17 -13 18 -35v-6q-1 -30 -31 -44q-22 -11 -62 -12l-14 22v2h6q29 -1 48 6q32 14 21 39q-8 12 -27 13h-4q-20 0 -51 -14
q-18 -8 -36 -17l-1 -1q2 -6 8 -15q5 -10 8 -15q25 -49 36 -75v-3l-23 -11h-2q-22 54 -49 108q-4 -2 -6 -4q-21 -10 -30 -17q-2 -1 -3 -2q-4 -4 -7 -3l-21 27q15 0 42 14q2 1 3 2q2 0 6 2l4 2q-5 8 -10 19q-6 12 -16 25l1 2l28 8h2z" />
    <glyph glyph-name="uni3085" unicode="&#x3085;" 
d="M125 186l24 -5q0 -12 3 -24h5q26 -1 43 -18q14 -19 15 -39v-4q-1 -30 -20 -48q-18 -17 -42 -17h-4q-7 -1 -11 1q-9 -15 -19 -27l-18 8q2 2 4 5q12 12 17 21q-2 0 -3 2q-17 11 -23 31l15 10q5 -18 19 -26q1 3 2 10q2 5 3 9q3 12 3 26v9q-1 8 -1 16q-1 8 -2 14
q-23 -5 -43 -26q-23 -25 -23 -50v-5q0 -14 5 -25l-19 -8q-14 38 -13 79v14v16q2 11 2 18v5q0 2 -1 7q-2 5 -1 8l27 -6q-1 -3 -3 -6q-2 -4 -2 -6q-2 -9 -3 -20q-1 -9 0 -26v-14q21 46 71 60q-1 4 -4 13q-2 11 -3 18zM149 50h4q19 0 31 16q9 12 10 29v5q-1 18 -15 32
q-11 7 -25 9q3 -14 3 -28v-9q-1 -29 -11 -54h3z" />
    <glyph glyph-name="uni3086" unicode="&#x3086;" 
d="M120 197l31 -4l1 -2q0 -3 1 -8q3 -11 5 -21h4q31 -1 52 -19q20 -22 21 -51v-7q-1 -30 -19 -52q-22 -25 -54 -26h-4q-8 -1 -14 2q-11 -18 -26 -35l-24 13q15 13 26 33q-18 12 -30 28l13 17q9 -12 21 -21q0 -1 1 -1l3 -3q8 27 8 56v21q0 7 -1 11v10q-5 -2 -9 -3
q-14 -5 -25 -12q-26 -17 -37 -43q-8 -17 -8 -33v-8q0 -17 8 -32l-24 -9l-2 2q-10 22 -13 49q-3 18 -3 36v13q-1 7 1 21q1 13 1 21v13q-1 13 -2 25v3l32 -6q-6 -20 -6 -24q-5 -27 -5 -54v-12q30 59 90 75q-5 19 -13 37zM155 31h5q19 0 33 15q14 16 15 41v6q-1 18 -13 32
q-14 13 -34 16q1 -16 2 -29v-17q0 -34 -10 -64h2z" />
    <glyph glyph-name="uni3087" unicode="&#x3087;" 
d="M117 186h3l25 -6q2 -4 1 -5t-2 -3q-4 -9 -3 -13v-10v-8q35 1 53 8l6 -22q-17 -5 -57 -6q-1 -17 3 -57q6 -2 11 -4q19 -10 42 -27l1 -2l-14 -18l-2 -1q-15 14 -38 29q-3 -14 -15 -24t-32 -10h-6q-16 0 -26 9q-11 9 -11 25q2 26 40 30h14l18 -2q-1 6 -2 20q-1 13 -1 20
q-2 29 -3 44q-2 18 -5 33zM93 26h5q28 1 30 23q-3 0 -19 5q-21 2 -29 -3q-8 -7 -5 -16t18 -9z" />
    <glyph glyph-name="uni3088" unicode="&#x3088;" 
d="M149 194l1 -2q-7 -13 -6 -32v-12v-5q43 3 70 14l2 -33q-33 -5 -66 -5h-5v-11q1 -6 2 -9q-1 12 3 -51q31 -12 69 -38l-16 -23h-2q-9 8 -18 13q-17 10 -33 20q-2 -14 -10 -22v-1q-14 -13 -27 -18q-10 -1 -19 -2h-4q-17 1 -33 11q-19 12 -19 30v4q0 15 18 28q12 7 33 8h9
q14 0 28 -3q-1 8 -2 24q-2 15 -2 24q-2 21 -2 42v20q0 4 -1 15t-1 17q14 -2 31 -3zM92 37h-4q-25 -2 -26 -18q2 -17 24 -19h6q15 0 24 7q9 8 10 20v4q-22 6 -34 6z" />
    <glyph glyph-name="uni3089" unicode="&#x3089;" 
d="M72 189l16 19q26 -12 52 -26v-2l-17 -18q-24 16 -51 27zM51 154l27 -5q-7 -38 -8 -75q36 28 71 29h8q26 -1 44 -11q19 -17 21 -38v-5q-1 -25 -21 -44q-14 -11 -45 -23q-13 -4 -25 -6l-13 22v2q20 3 3 0q17 3 37 10q33 11 34 35v4q-3 26 -36 30h-5q-21 -1 -39 -10
q-25 -13 -32 -32l-29 10q1 18 3 37q4 29 5 59v11z" />
    <glyph glyph-name="uni308A" unicode="&#x308a;" 
d="M85 124v-5q0 -15 4 -24h2l10 16h3l11 -10q-2 -3 -4 -9q-13 -26 -12 -41v-4q-12 -2 -24 -2q-7 12 -10 26q-4 14 -5 25q-2 11 -1 20v8q0 18 3 36q3 17 5 34q15 -2 29 -3q-2 -11 -5 -20q-1 -1 -1 -3q-6 -29 -5 -44zM155 194l33 3l2 -1q-2 -8 0 -25q1 -6 2 -9q0 -6 1 -12
q4 -25 4 -37v-16q0 -32 -11 -61q-17 -40 -42 -62h-3l-23 11l-1 2q24 23 36 45q15 29 16 68v19q0 45 -14 75z" />
    <glyph glyph-name="uni308B" unicode="&#x308b;" 
d="M52 178h14q45 -1 74 10q2 0 4 1q4 1 6 2h1l26 -20v-2q-13 -10 -23 -22q-6 -7 -17 -19q-11 -13 -16 -19q4 -1 12 1q7 1 11 1h5q26 -1 44 -16q18 -18 19 -42v-4q-1 -31 -30 -50q-23 -15 -50 -15h-4q-47 5 -49 35v4q3 26 34 30h5q23 0 49 -32q15 10 16 30v5q-3 27 -37 31h-5
q-40 -1 -67 -35q-1 -2 -2 -3q-2 -4 -4 -4l-24 18v3q50 39 85 93q-36 -2 -55 -12q-2 -1 -3 -2q-3 -3 -6 -2l-13 33v2zM119 7h5q7 0 13 2q1 5 -7 12q-14 10 -24 7q-9 -6 -5 -13q5 -8 18 -8z" />
    <glyph glyph-name="uni308C" unicode="&#x308c;" 
d="M71 181v4q-1 6 -2 14q0 -1 2 -1q15 -1 32 -1v-3q-4 -4 -6 -11q-1 -2 -1 -3q-2 -5 -6 -30q0 -1 1 1l18 -13q0 -4 -3 -6l-1 -1q-3 -3 -6 -8q-3 -6 -5 -8q4 3 14 12q33 33 57 32h4q8 -1 17 -4q6 -4 10 -17h1v-1v-4q0 -20 -6 -58q-2 -14 -3 -27q-3 -15 1 -21q4 -9 16 -5
q9 2 24 17l3 3l1 2q5 6 10 6l8 -27q-2 -2 -4 -5q-14 -13 -22 -18q-16 -9 -28 -10h-4q-15 1 -23 11q-7 11 -7 30v4q0 15 5 49q1 8 2 13q3 17 3 21v4q-2 12 -20 10q-14 -7 -25 -16q-19 -16 -35 -32q-2 -3 -6 -7t-5 -6v-7q0 -26 2 -51q2 -22 3 -34h-29v38q-1 12 1 26
q-17 -22 -30 -43h-2l-22 13v2q52 55 61 99q-39 -15 -45 -21l-14 30l1 2q31 0 59 12q0 5 1 14t2 15q1 7 1 15z" />
    <glyph glyph-name="uni308D" unicode="&#x308d;" 
d="M62 178h6q18 0 35 4q30 3 45 11q1 0 3 1q4 3 6 3h3l22 -16v-4q-10 -4 -26 -28q-19 -24 -38 -46q25 8 40 8h4q25 -1 45 -12q24 -18 25 -45v-4q-2 -39 -33 -58q-27 -16 -60 -18l-11 24h4q23 0 43 9q26 14 28 40v4q-1 13 -12 26q-11 9 -29 10h-5q-35 -1 -62 -20
q-15 -12 -41 -40l-6 -6l-24 21q31 26 58 55q36 35 52 68q-8 -3 -21 -6q-18 -4 -27 -7l-4 -2q-3 -2 -4 -1l-17 27z" />
    <glyph glyph-name="uni308E" unicode="&#x308e;" 
d="M110 185l1 -2q-5 -11 -5 -23v-9l8 3h2l11 -8q0 -4 -6 -10q-3 -2 -3 -3q-8 -9 -12 -18q13 9 29 16h1q17 7 26 7h5q17 -1 33 -14q17 -19 18 -35v-5q-1 -29 -31 -52q-15 -11 -30 -18q-2 -2 -2 0l-17 15q16 5 32 16q23 16 24 37v5q-4 29 -30 32h-4q-10 0 -27 -9l-2 -1
q-17 -9 -29 -20q-1 -17 1 -36q1 -17 5 -48h-26v61q-5 -7 -12 -18q-8 -11 -12 -17l-19 14q21 23 45 61v2v14q-16 -6 -29 -13l-8 24q19 4 39 12q-1 1 0 6t1 8v14q0 8 -3 16q3 -1 11 -2q7 -2 15 -2z" />
    <glyph glyph-name="uni308F" unicode="&#x308f;" 
d="M112 162l16 -11v-2q-6 -6 -10 -12q-15 -24 -18 -27q37 28 68 28h5q25 -1 43 -13q23 -18 24 -43v-4q-2 -35 -25 -58q-19 -20 -55 -30h-2l-22 20q24 4 44 17q30 21 31 45v4q-1 11 -9 24q-7 9 -17 14q-17 6 -42 -3q-14 -6 -25 -13q-12 -8 -22 -17q0 -27 2 -52q1 -26 4 -50
h-30v76q-7 -7 -33 -45h-2l-21 19q33 31 50 61q3 3 5 10l2 4q1 9 1 18q-5 -3 -15 -5q-10 -3 -14 -5l-2 -2q-4 -2 -6 -1l-10 26v3q24 2 49 10v7q1 9 1 20v9q-1 10 -2 21q17 -2 34 -3q-1 -8 -4 -15q-2 -6 -3 -16l-3 -15q7 3 13 6z" />
    <glyph glyph-name="uni3090" unicode="&#x3090;" 
d="M152 5h4q6 -1 12 1q-5 9 -12 15q-11 8 -21 2q-5 -6 -2 -11q4 -7 19 -7zM147 130h5q31 -1 56 -17q24 -19 25 -55v-5q-1 -33 -22 -52q-22 -18 -55 -19h-5q-14 1 -28 9q-15 11 -15 24v4q2 24 32 28h5q24 -1 45 -31l3 3q13 12 14 33v4q-1 23 -15 37q-15 12 -39 13h-6
q-8 -1 -17 -2q-1 -2 -1 -3q-1 -1 -1 -2q-3 -7 -5 -13q-18 -55 -35 -78q-10 -14 -22 -21q-23 -9 -37 12q-6 10 -6 24v8q0 29 25 58q23 24 62 35h1q8 20 13 43q-7 -2 -13 -3q-28 -4 -40 -13l-14 30v2h9q32 0 71 14h3l24 -13v-3q-3 -3 -6 -9q-2 -2 -3 -4q-10 -18 -16 -39
q4 1 8 1zM91 92q-26 -14 -40 -41q-12 -24 0 -33q9 -7 18 3q8 11 13 25q10 23 20 51q-3 -2 -6 -3t-5 -2z" />
    <glyph glyph-name="uni3091" unicode="&#x3091;" 
d="M130 79q-1 7 -9 8q-9 -2 -6 -11q3 -6 8 -5q7 0 7 8zM154 199l22 -18v-3l-12 -10q-25 -19 -36 -30l6 2q12 6 19 6h4q18 -1 32 -9q17 -13 19 -30v-4q-2 -25 -26 -39q-21 -11 -51 -11h-5h-5q-28 -9 -49 -27q3 1 7 2q17 0 35 -18q24 35 56 37h5q49 -4 65 -57l-28 -7l-2 1
q-6 20 -14 30q-17 18 -35 14q-11 -5 -18 -14q-10 -14 -10 -32l-30 -3q-1 4 -2 7q-2 15 -8 21q-13 11 -29 0q-10 -7 -19 -28l-28 11l-1 2q20 44 85 74q-5 6 -5 14v4v1q3 10 9 15q7 5 18 6q26 -3 26 -29q26 -1 29 26q0 7 -11 16q-23 15 -60 -8q-12 -7 -35 -34h-3l-21 13v3
q45 34 83 78q-7 -3 -21 -5q-17 -3 -25 -6q-1 -1 -2 -1q-3 -3 -5 -2l-12 32l11 -2h2h7q7 -1 16 0q8 1 20 4q13 1 30 8h2z" />
    <glyph glyph-name="uni3092" unicode="&#x3092;" 
d="M98 207l32 -8v-2l-6 -8q-3 -5 -6 -13q-2 -6 -3 -8q21 2 41 10v-27q-25 -7 -50 -8q-7 -16 -14 -29q15 8 27 8h5q2 0 12 -3q7 -5 12 -11q5 -10 7 -20q8 4 17 7q1 0 3 1q11 3 25 10q1 0 3 2q4 3 7 3l21 -24v-2q-43 -11 -72 -20q1 -8 2 -17v-6q0 -5 -1 -14q-2 -9 -1 -13h-26
q-1 3 1 10q1 7 1 11v10v9q-12 -5 -22 -12q-20 -16 -14 -29q4 -14 34 -14h5q16 0 47 6q2 0 3 1l3 -30q-8 0 -15 -1q-18 -2 -26 -2h-14q-26 0 -41 9q-21 14 -21 30v4q1 26 29 47q13 8 30 16q-3 16 -11 20q-8 2 -18 -2q-27 -12 -52 -59l-26 11q35 47 54 91h-11h-17l-8 24v2
q10 -2 21 -2h13h12q0 1 1 2q0 1 1 3q6 19 6 31v6z" />
    <glyph glyph-name="uni3093" unicode="&#x3093;" 
d="M232 55l12 -25v-3q-3 -3 -7 -8q-37 -41 -67 -40h-5q-17 1 -27 16q-7 9 -9 34q-2 9 -3 20q-1 14 -1 21q-3 9 -7 9q-6 0 -16 -6q-2 -1 -3 -1q-11 -8 -19 -16q-19 -20 -33 -56q-5 -9 -7 -18l-27 8q9 33 68 133q3 5 6 11q8 16 13 24q14 25 17 41h3l34 -16v-2q-21 -21 -33 -40
q-7 -11 -13 -20q-5 -11 -8 -15q-6 -11 -12 -20q1 0 4 2q3 3 13 8q29 11 42 -7q4 -11 5 -21v-10q1 -20 4 -30q2 -16 9 -20q8 -7 21 0q15 8 37 36q4 6 9 11z" />
    <glyph glyph-name="uni30A1" unicode="&#x30a1;" 
d="M65 167h115l8 6h3l26 -16v-3q-9 -4 -20 -19q-5 -6 -7 -9q-12 -16 -35 -33q-1 -2 -2 0l-21 11v2q29 15 46 43h-113q-4 0 -13 -1h-13v20q13 -2 26 -1zM111 127l26 -5q-1 -4 -4 -9q-1 -2 -1 -3q-3 -13 -6 -23q-12 -44 -55 -77q-2 -2 -7 3q-1 1 -1 2q-2 1 -7 4q-3 2 -4 4v2
q41 25 53 70q2 7 3 23q0 4 1 9h2z" />
    <glyph glyph-name="uni30A2" unicode="&#x30a2;" 
d="M109 122l35 -5q0 -3 -3 -6q-2 -2 -2 -3q-2 -5 -4 -14q-1 -7 -1 -9q-9 -36 -22 -58q-19 -29 -46 -51h-2q-15 10 -30 17v2q70 35 75 121v6zM16 145v30q0 -1 2 -1q18 -1 38 -1h142l8 5h5l29 -19q1 -8 -2 -7q-1 -2 -5 -3h-2q-38 -47 -69 -72q-1 -2 -2 0q-11 7 -24 15v2
q37 22 54 52h-145q-5 0 -14 -1h-15z" />
    <glyph glyph-name="uni30A3" unicode="&#x30a3;" 
d="M180 189l21 -19v-3l-9 -2q-3 -4 -9 -11q-15 -18 -24 -27v-88v-20q1 -12 1 -17h-24v14q1 6 1 20v71q-14 -12 -28 -20q-26 -17 -40 -21h-2l-12 19v2q32 10 67 38q36 28 55 64h3z" />
    <glyph glyph-name="uni30A4" unicode="&#x30a4;" 
d="M191 202h3l29 -27v-2q-17 -7 -39 -31l-8 -8l-9 -9v-44q0 -54 4 -107h-34q-1 16 0 42q1 28 1 44v42q-39 -29 -81 -51q-2 -2 -2 0l-21 20v3q38 16 80 48q55 40 77 80z" />
    <glyph glyph-name="uni30A5" unicode="&#x30a5;" 
d="M111 186h4l24 -5q-1 -2 -1 -5q-1 -2 -1 -3v-24h40l3 1t5 1l24 -17v-2l-6 -3q-17 -88 -85 -128q-2 -1 -2 0q-4 2 -10 7q-6 4 -9 7v1q71 34 82 111h-109v-30q-1 -13 1 -23h-23v10q1 8 1 13v53q9 -2 18 -1h46v18q0 2 -1 8q-1 7 -1 11z" />
    <glyph glyph-name="uni30A6" unicode="&#x30a6;" 
d="M141 173v-6q-1 -5 1 -10h50q1 -1 4 1q5 2 7 1q3 -3 7 -5q13 -8 19 -13q0 -4 -4 -9q-1 -1 -1 -2q-2 -4 -6 -21q-11 -39 -34 -71q-27 -38 -72 -64h-2q-2 2 -5 4q-13 10 -21 13v1q42 21 67 51q27 33 40 87h-135l1 -64h-30v15q1 7 1 22v28q0 9 -1 14v12h85v16q-1 13 -2 29
q18 -2 35 -3q0 -4 -2 -10q-1 -2 -1 -3q0 -3 -1 -7t0 -6z" />
    <glyph glyph-name="uni30A7" unicode="&#x30a7;" 
d="M100 154h55q19 0 37 1q2 0 3 1v-25q-7 0 -18 1t-16 1h-22v-78h34q19 0 41 2v-25q-8 0 -23 1q-14 1 -20 1h-87q-8 0 -22 -2h-19v25q21 -2 42 -2h33v78h-21q-7 0 -20 -2h-18v25q19 -2 41 -2z" />
    <glyph glyph-name="uni30A8" unicode="&#x30a8;" 
d="M91 162h76q10 -1 32 1q12 1 18 2v-32q-8 0 -21 1q-13 0 -19 1h-32v-93h31q10 -1 24 0q12 0 35 2v-31q-11 -1 -30 1q-20 1 -30 1h-97q-10 0 -29 -2h-27v31q27 -2 54 -2h39v93h-20q-10 0 -27 -2h-25v32q40 -4 48 -3z" />
    <glyph glyph-name="uni30A9" unicode="&#x30a9;" 
d="M161 141h16q18 0 38 2v-26q-7 0 -20 1q-13 0 -18 1h-15v-9q2 -44 2 -66v-10q-1 -15 -11 -23q-12 -7 -27 -7h-7q-2 -1 -2 1l-7 21l1 2h11q17 1 19 16v36q0 11 -1 31l-3 -8q-4 -7 -14 -19l-1 -1q-13 -17 -29 -27q-16 -11 -32 -19q-3 -2 -3 0l-16 16v2q51 17 80 64h-31
q-8 0 -22 -2q-13 -1 -19 0v26q19 -2 39 -2h50q-2 21 -2 45q13 -2 27 -3q0 -3 -2 -8q-1 -3 -1 -4v-30z" />
    <glyph glyph-name="uni30AA" unicode="&#x30aa;" 
d="M168 141h9q10 -1 24 0q12 0 35 2v-30q-10 -1 -29 0t-28 1h-11q0 2 0 -13q1 -33 3 -92v-5q-2 -16 -21 -25q-17 -4 -33 -5l-2 1q-3 9 -9 25q-1 1 -2 4v1q1 0 4 -1q16 0 23 3q9 4 10 13v42q0 -9 -1 35q-12 -19 -37 -42q-31 -30 -60 -41q-5 2 -7 7q-3 2 -8 7q-5 4 -7 7v2
q61 23 100 77h-36q-10 0 -29 -2h-27v31q27 -2 54 -2h56q-1 3 -1 10q0 8 -2 46q16 -2 35 -3q-4 -13 -3 -15q0 9 0 -38z" />
    <glyph glyph-name="uni30AB" unicode="&#x30ab;" 
d="M114 191h8q4 0 13 -1t15 -1q-1 -6 -2 -10q-2 -7 -3 -18v-8q-2 -5 -1 -9q13 0 41 1q27 1 41 2q2 -1 3 -3q-1 -15 -2 -29q-1 -57 -7 -86q-7 -29 -28 -37q-15 -4 -42 -6q-6 14 -8 29l1 1l26 -1q8 -2 17 11q4 9 7 20q2 10 3 32q0 5 1 11q-1 3 0 10t1 11v9q-30 -2 -58 -1
q-5 -23 -12 -43q-14 -34 -42 -63q-11 -12 -32 -25h-2q-12 11 -24 17v2q18 8 40 30q18 17 27 36q11 21 16 46l-52 -2q-15 -1 -26 -1v31q14 -2 31 -2h34h17q1 7 1 15v8q0 4 -1 12q-2 7 -1 12z" />
    <glyph glyph-name="uni30AC" unicode="&#x30ac;" 
d="M219 167l-13 -11q-5 7 -19 18q-4 3 -7 7l13 11q15 -11 26 -25zM242 188l-13 -11q-5 7 -19 18q-4 3 -7 7l13 11q15 -11 26 -25zM101 194h4q7 0 22 -2q5 -1 10 -1q-2 -9 -5 -16q-5 -17 -6 -34h9q13 -1 28 0q14 0 39 2q3 -1 4 -3v-14q-1 -26 -2 -51q-2 -44 -11 -63
q-6 -15 -22 -22q-15 -6 -47 -8l-3 1q-2 11 -4 20q-1 1 -1 3q-2 4 0 7q15 -4 18 -3h5q16 0 26 12q9 9 11 27q1 12 2 27q2 15 2 33v10h-49h-9q0 -3 -1 -5q-1 0 0 0q-17 -82 -77 -127h-2q-14 8 -27 13l-1 2q36 23 53 49q20 32 29 67q-18 0 -54 -2q-13 -1 -25 -1v28q39 -2 77 -2
h6v2q1 15 2 32v7q0 6 -1 12z" />
    <glyph glyph-name="uni30AD" unicode="&#x30ad;" 
d="M201 162h3l2 -31q-36 -2 -66 -5h-5q3 -17 5 -33v-4l1 -1q45 4 90 13h2l3 -31q-17 -1 -47 -4q-21 -3 -31 -3q-3 -1 -7 -1q-4 -1 -6 -1q1 -20 5 -40q1 -13 5 -32q2 -6 3 -10q-6 -1 -18 -2q-11 -2 -16 -3q-3 32 -4 48q-2 20 -4 36q-47 -5 -94 -11l-2 31q47 2 94 7q-1 1 -2 5
v5q-1 4 -2 14q-1 9 -1 14q-11 -1 -32 -4l-36 -3l-4 28l1 2q34 1 67 4q-4 25 -11 49l38 3q-5 -12 -2 -35q0 -6 1 -8q-1 -2 0 -4t1 -3q34 2 69 10z" />
    <glyph glyph-name="uni30AE" unicode="&#x30ae;" 
d="M213 172l-13 -11q-17 16 -27 24l13 11q10 -8 27 -24zM234 196l-13 -11q-15 14 -24 21l11 11q2 -3 8 -6zM190 157l2 -30q-10 -2 -30 -5q-18 -2 -26 -3q0 -5 2 -15q3 -15 5 -24q42 6 84 15l5 -28l-84 -12q7 -38 17 -74v-1l-30 -8q-3 23 -11 62q-2 8 -3 17q-17 -3 -47 -8
q-31 -5 -47 -7l-5 30l1 1q47 3 94 9q-1 1 -2 3v5q-2 15 -5 31q-12 -2 -34 -5q-23 -4 -34 -5l-1 1l-3 26q33 3 67 9q-4 25 -11 48v2l36 3q0 -4 -2 -10q-2 -5 -1 -7q1 -19 5 -32q5 1 17 3q27 5 41 9z" />
    <glyph glyph-name="uni30AF" unicode="&#x30af;" 
d="M119 202h2l32 -11v-2q-7 -4 -12 -14q-2 -4 -2 -5q-2 -5 -5 -8h13h36q8 0 16 3h2q15 -11 27 -22v-2l-9 -10l-2 -1q-6 -13 -13 -23q-44 -78 -113 -120q-13 -7 -26 -13h-2q-17 14 -30 18q106 42 151 143h-70q-10 -14 -20 -24q-17 -17 -36 -30q-10 4 -20 9h-3q-6 1 -7 5
q66 40 91 107z" />
    <glyph glyph-name="uni30B0" unicode="&#x30b0;" 
d="M217 170l-13 -11q-17 16 -27 24l13 11q10 -8 27 -24zM238 194l-13 -11q-15 14 -24 21l11 11q2 -3 8 -6zM130 186v-3q-6 -5 -14 -18l-3 -6q-1 -1 -1 -2t-1 -2q35 -3 54 2q3 0 6 2h2l26 -18v-3q-7 -4 -13 -17q-2 -4 -2 -5q-25 -60 -49 -87q-28 -31 -64 -55q-2 0 -4 -2
q-6 -4 -9 -4q-6 10 -24 19v1q95 47 127 142h-66q-22 -31 -50 -53q-1 -2 -3 0q-11 6 -24 11v2q45 30 69 78q7 14 11 31q12 -1 32 -13z" />
    <glyph glyph-name="uni30B1" unicode="&#x30b1;" 
d="M93 199h3l31 -10q0 -4 -4 -8q-2 -2 -2 -3q-5 -8 -11 -23q-5 -10 -7 -15q-1 -2 -2 -3t-1 -2h82q12 -1 27 0q13 0 38 2v-29q-10 -1 -28 0q-17 1 -25 1h-15q-6 -41 -26 -74q-23 -35 -58 -59h-2q-14 8 -27 14v2q38 26 54 47q22 28 28 70h-64q-23 -30 -50 -53l-2 1l-6 4
q-10 10 -16 14q66 52 83 124z" />
    <glyph glyph-name="uni30B2" unicode="&#x30b2;" 
d="M223 172l-13 -11q-22 20 -27 24l13 11q5 -4 27 -24zM244 196l-13 -11q-20 18 -24 21l11 11q3 -3 7 -6q12 -9 19 -15zM120 183v-2q-7 -5 -12 -19q-1 -6 -2 -8q-5 -11 -9 -19h78q13 -1 40 1q14 1 22 2v-29q-11 -1 -30 1q-20 1 -30 1h-8q-4 -47 -17 -72q-17 -31 -53 -57h-2
q-13 8 -25 14v2q9 3 25 19q3 2 6 5q13 13 21 27q14 27 16 62h-58q-3 -5 -6 -9q-19 -25 -41 -44q-2 -2 -2 0q-4 2 -10 7q-7 5 -10 8v2q44 36 64 89q0 2 1 4q6 16 7 26q8 -1 24 -7q7 -3 11 -4z" />
    <glyph glyph-name="uni30B3" unicode="&#x30b3;" 
d="M73 165h70q33 -1 66 1v-98q-1 -35 1 -68h-30v11q-68 -1 -133 -2v31q19 -2 39 -1h33q29 -1 61 1v95h-77q-10 0 -29 -1h-27v33q12 -2 26 -2z" />
    <glyph glyph-name="uni30B4" unicode="&#x30b4;" 
d="M210 170l-14 -13q-3 2 -7 6q-11 14 -17 20l14 11q17 -15 24 -24zM196 202l12 13q14 -10 25 -22l-12 -15q-15 16 -25 24zM189 -2h-30v6q-23 -1 -69 -2h-67v30q29 -2 58 -1h23q10 -1 23 0q11 0 32 2v95q-23 -1 -69 -2h-67v29q27 -2 53 -1h52q11 -1 25 0q13 0 34 2v-34
q0 -16 1 -46v-46q0 -18 1 -32z" />
    <glyph glyph-name="uni30B5" unicode="&#x30b5;" 
d="M187 179v-38q0 -6 0 -3q29 0 59 2v-31q-8 0 -23 1q-14 1 -20 1h-17q-2 -42 -12 -68q-16 -41 -56 -70h-2q-11 8 -22 14v3q58 44 65 103v9q1 6 1 9h-58v-66h-31v24q2 17 2 26v16h-15q-9 0 -25 -2h-22v32q40 -4 48 -3h14v30q0 5 -2 16q-1 5 -1 10q16 -2 34 -2q0 -3 -1 -7
q-2 -5 -1 -7v-40h59v3q0 13 -4 41q-1 7 -1 15q16 -2 34 -3q0 -3 -2 -8t-1 -7z" />
    <glyph glyph-name="uni30B6" unicode="&#x30b6;" 
d="M232 165l-13 -11q-17 16 -27 24l13 11q10 -8 27 -24zM253 189l-13 -11q-15 14 -24 21l11 11q2 -3 8 -6zM67 197l31 -3q0 -4 -1 -9q-2 -6 -1 -9v-41h59v3v13q-1 22 -4 43v3h7q6 0 18 -2q4 -1 8 -1q1 -6 -3 -13v-46q11 -1 25 0q13 0 34 2v-26q-11 0 -30 1t-29 2
q-1 -4 -2 -9v-9q-1 -26 -11 -50q-19 -42 -67 -73h-2l-19 21q25 10 45 35q21 24 26 57q-1 -7 4 28h-59v-69h-29q1 26 2 55v14h-7q-13 0 -39 -2q-10 -1 -20 -1v26q30 -2 60 -2h6v41q-1 10 -2 21z" />
    <glyph glyph-name="uni30B7" unicode="&#x30b7;" 
d="M20 111l16 22q27 -15 52 -32q-4 -4 -9 -11q-5 -8 -8 -11h-2q-29 20 -49 30v2zM120 162l1 -2l-4 -6q-8 -13 -12 -18q-32 25 -50 36v1q8 9 16 20q26 -13 49 -31zM236 110l-1 -3q-27 -28 -58 -50q-46 -36 -82 -54q-3 -2 -10 -3q-13 -7 -19 -12q-7 -7 -9 -6q-5 6 -12 17
q-8 8 -12 14v2q57 14 112 53q50 33 78 67h2q4 -14 11 -25z" />
    <glyph glyph-name="uni30B8" unicode="&#x30b8;" 
d="M54 170l16 19q19 -10 51 -35l-19 -19q-23 19 -48 35zM16 108l17 19h2q3 -3 7 -5q26 -16 39 -27l-21 -21q-21 19 -44 34zM230 119l11 -24v-2q-35 -33 -76 -57q-36 -23 -90 -42q-4 -1 -11 -3q-9 -3 -12 -6q-2 0 -4 -3q-3 -3 -4 -3l-16 34l2 2q13 1 26 6q18 4 54 21
q21 9 42 21q42 22 78 56zM160 145v2l13 13h2q12 -9 24 -19q0 -2 2 -3l2 -2q-1 -3 -2 -3q-6 -6 -12 -10q-2 -2 -2 0q-5 3 -14 11q-9 7 -13 11zM184 170l12 14q4 -1 12 -8q3 -2 6 -3q2 -3 6 -6q3 -3 6 -5v-2l-13 -13q-2 -2 -2 0q-14 10 -27 21v2z" />
    <glyph glyph-name="uni30B9" unicode="&#x30b9;" 
d="M186 177l23 -15q1 -1 1 -5q-5 -5 -9 -7q-3 -3 -6 -8l-1 -2q-12 -23 -27 -43q-3 -5 -6 -9q16 -14 31 -27q23 -23 44 -46v-2q-12 -11 -22 -21h-2q-33 38 -68 75q-2 -2 -5 -6q-2 -2 -9 -8q-34 -36 -85 -59h-2q-11 9 -23 18v1q100 45 135 120q3 5 4 13h-59q-8 0 -23 -1
q-15 -2 -22 -1v31q29 -2 58 -2h47q8 0 16 3h2q5 2 8 1z" />
    <glyph glyph-name="uni30BA" unicode="&#x30ba;" 
d="M230 170l-13 -11q-17 16 -27 24l13 11q10 -8 27 -24zM251 194l-13 -11q-15 14 -24 21l11 11q2 -3 8 -6zM170 170l24 -21v-2q-3 -2 -9 -12q-16 -32 -38 -59q42 -29 76 -66l-24 -23l-9 9q-40 41 -63 60q-46 -42 -91 -63q-2 0 -3 -1q-5 -2 -7 -2q-5 8 -18 17q-2 2 -3 4v2
q19 6 36 16q79 42 112 109h-48q-12 0 -33 -1q-22 -2 -33 -1v28q34 -2 69 -1h17q13 0 26 2q6 -1 12 3q1 0 2 1q1 0 3 1h2z" />
    <glyph glyph-name="uni30BB" unicode="&#x30bb;" 
d="M88 194h17q2 0 7 -1h9q0 -4 -3 -10q-2 -6 -2 -8v-46q38 7 79 15q3 0 10 6q1 0 2 2q1 1 3 2h1l30 -19v-2q-9 -7 -20 -25q-2 -3 -4 -5q-20 -26 -41 -48q-5 0 -14 5q-4 3 -5 4q-10 1 -10 5q32 24 47 51l-1 1q-22 -5 -44 -9q-17 -4 -33 -7v-13q0 -29 2 -55q1 -18 21 -19h38
h24q17 2 26 2v-28h-90q-20 1 -32 11q-13 12 -14 31q-3 13 -2 29v36q-7 -2 -18 -4l-18 -3q-22 -4 -28 -10q-5 14 -9 31l1 2q27 2 55 7q7 1 17 3v34q0 5 -1 16v19z" />
    <glyph glyph-name="uni30BC" unicode="&#x30bc;" 
d="M227 166l-10 -15q-6 4 -12 9q-13 11 -20 15l12 14q2 -2 5 -4q17 -12 25 -19zM209 197l10 13q16 -11 30 -24l-12 -13q-7 5 -12 10zM73 189l33 -3q-4 -9 -1 -3q-3 -6 -3 -14v-47q10 1 31 4q20 3 31 5q15 2 26 7q3 1 6 3h2l27 -19v-3q-9 -6 -19 -23q-3 -4 -5 -7
q-19 -26 -40 -47q-3 -2 -3 0l-24 12v1q31 24 46 54q-39 -8 -78 -13v-64q1 -16 23 -17h34q10 0 23 2q10 0 31 4q4 0 6 1v-31h-18q-11 -1 -16 -1h-60q-26 0 -37 9q-13 9 -13 35v58q-13 -3 -25 -4q-13 -1 -25 -3q-2 -1 -5 -2q-4 -2 -6 -1l-6 30l1 2h13q18 0 36 3q7 0 17 2v54
q-1 7 -2 13v3z" />
    <glyph glyph-name="uni30BD" unicode="&#x30bd;" 
d="M27 159l24 15q27 -29 48 -63l-24 -16h-2q-20 34 -46 64zM193 181h2l35 -19v-3q-12 -8 -22 -32q-2 -4 -2 -6q-17 -38 -42 -70q-21 -26 -45 -45q-17 -12 -36 -22h-2l-4 4q-3 4 -10 9q-2 1 -3 2q-5 1 -5 3q19 8 36 22q36 27 53 51q15 19 30 52q14 33 15 54z" />
    <glyph glyph-name="uni30BE" unicode="&#x30be;" 
d="M15 150v2l22 14h2q24 -26 42 -55l-26 -16q-18 29 -40 55zM169 167h3l32 -16q0 -3 -5 -7q-1 -2 -2 -3q-2 -4 -4 -10q-3 -6 -4 -9q-32 -75 -85 -118q-18 -14 -39 -25h-2l-4 4q-12 10 -19 13l1 2q31 15 47 29q19 16 35 37q38 46 46 103zM180 178l12 14q17 -9 31 -19l-11 -16
q-8 5 -23 15q-5 3 -9 6zM201 205l8 13q12 -5 32 -21l-10 -14q-14 11 -30 22z" />
    <glyph glyph-name="uni30BF" unicode="&#x30bf;" 
d="M117 205h2q15 -7 30 -11v-3q-9 -5 -16 -21h53l8 3h3q2 -2 5 -4q14 -9 21 -15v-2q-11 -11 -16 -23q-3 -5 -12 -27q-20 -43 -52 -76q-32 -30 -71 -52h-2q-4 3 -8 5q-6 5 -8 6t-3 2q-6 3 -6 5q59 29 94 72q-21 16 -44 29l19 18q29 -14 43 -24q15 24 24 54v2h-63
q-28 -42 -57 -64q-3 -2 -3 0l-24 16q66 49 83 110z" />
    <glyph glyph-name="uni30C0" unicode="&#x30c0;" 
d="M223 173l-13 -14q-19 20 -30 30l14 13q16 -14 29 -29zM204 205l13 12q15 -13 27 -26l-13 -13q-17 18 -27 27zM90 202h2q15 -8 30 -13v-3q-6 -4 -12 -16q-1 -4 -2 -5q-2 -3 -3 -6h27h22q8 -1 14 4l2 1q3 1 5 1l27 -19v-3q-9 -6 -17 -24v-1q-24 -55 -52 -84
q-33 -35 -88 -61q-2 2 -6 5q-1 2 -2 3q-7 8 -14 13v1q34 9 68 37q15 11 27 25q-14 10 -45 27q-3 1 -5 3l16 19q19 -6 51 -26q3 4 6 9q18 27 20 46h-72q-23 -31 -50 -56q-1 -2 -2 0l-24 12l-1 2q63 49 78 109z" />
    <glyph glyph-name="uni30C1" unicode="&#x30c1;" 
d="M191 199l21 -24v-2q-8 -2 -22 -6q-11 -4 -16 -5q-9 -3 -18 -4v-27v-15q42 1 86 5v-34q-11 0 -30 1t-28 1h-31q-4 -28 -9 -40q-15 -38 -55 -68q-7 -5 -9 -5h-1q-2 1 -4 3q-14 10 -23 12v1q31 20 47 37q20 23 25 60h-43q-12 0 -33 -1q-22 -2 -33 -1v30q10 0 23 -1h32h56v10
q1 5 1 15v12q-16 -3 -32 -4q-16 -2 -32 -2q-3 0 -6 6q-1 2 -1 3q-2 2 -5 7q-4 5 -5 8l1 2h14q33 0 68 5q34 3 54 17l1 1q4 3 7 3z" />
    <glyph glyph-name="uni30C2" unicode="&#x30c2;" 
d="M237 151l-14 -10q-11 13 -24 26l14 11q16 -15 24 -27zM255 173l-12 -13l-22 26l11 12q13 -11 23 -25zM170 191l20 -20q1 -3 1 -6q-9 -1 -24 -4q-7 -2 -10 -2q-9 -2 -16 -3v-39h36q27 0 54 2v-29q-16 0 -45 1t-43 1h-2q-5 -41 -22 -64q-21 -28 -61 -52h-3l-21 19
q50 26 70 61q7 13 9 34q0 4 0 2h-5q-26 0 -72 -2q-17 -1 -34 -1v30q20 -2 33 -2q14 -1 26 0h53v6q0 6 -2 19q-1 4 -1 9q-32 -4 -64 -5l-13 27h32q27 0 56 5q22 3 45 13h3z" />
    <glyph glyph-name="uni30C3" unicode="&#x30c3;" 
d="M84 109l-24 -8q-7 22 -19 45l24 7q1 -4 3 -8q8 -14 16 -36zM101 162l24 5q10 -23 15 -45l-24 -5q-8 29 -15 45zM188 167l27 -10v-3q-7 -4 -12 -18q-1 -6 -2 -8q-7 -17 -16 -32q-13 -23 -32 -42q-20 -23 -55 -45q-1 -2 -2 0l-17 17q47 25 73 59q28 36 33 82h3z" />
    <glyph glyph-name="uni30C4" unicode="&#x30c4;" 
d="M43 94l-1 1q-9 30 -22 59q5 1 16 3q8 3 12 4q11 -23 23 -60q-2 -1 -5 -1q-9 -2 -23 -6zM95 170l27 5q13 -29 18 -58q-14 -5 -29 -6q-5 30 -16 59zM199 173h3q17 -9 34 -19v-3l-8 -5q-2 -4 -3 -8l-6 -15q-28 -62 -60 -89q-29 -28 -75 -52h-2l-22 18v2q120 56 139 171z" />
    <glyph glyph-name="uni30C5" unicode="&#x30c5;" 
d="M54 103l-25 -11l-2 1q-4 10 -8 21q-3 5 -5 10q-6 18 -11 27q4 1 13 3q8 1 13 3q11 -21 25 -54zM122 118l-28 -8l-1 1l-4 10q-9 30 -16 46l28 7l2 -1q1 -5 3 -11q12 -28 16 -44zM179 165h2l30 -19v-3q-9 -3 -14 -17q-8 -18 -16 -34q-11 -20 -24 -36q-23 -31 -55 -53
q-19 -12 -41 -22h-2q-10 12 -22 19v1q19 5 35 16q38 22 64 58q14 18 25 39q13 24 18 51zM192 175l13 13q18 -11 27 -21l-11 -13q-6 5 -21 14q-4 3 -8 7zM211 199l13 11h3q1 -2 4 -4q16 -9 22 -15l-13 -13q-18 16 -29 21z" />
    <glyph glyph-name="uni30C6" unicode="&#x30c6;" 
d="M106 185h43q22 0 44 2v-30h-18q-13 1 -19 1h-48q-9 0 -24 -1q-16 -1 -24 0v29q23 -2 46 -1zM92 125h72q36 0 72 2v-34q-11 -1 -30 0q-20 1 -30 1h-25q-1 -20 -5 -34q-13 -51 -73 -87h-2q-2 2 -6 5q-11 9 -18 12v2q35 15 51 36q20 25 21 61v5h-30q-12 0 -35 -1t-34 0v34
q36 -2 72 -2z" />
    <glyph glyph-name="uni30C7" unicode="&#x30c7;" 
d="M82 181h42q26 0 52 2v-29q-7 -1 -20 0q-13 2 -20 2h-51q-8 0 -21 -1q-14 -2 -21 -1v29q19 -2 39 -2zM227 164l-13 -11q-17 16 -27 24l13 11q10 -8 27 -24zM248 188l-13 -11q-15 14 -24 21l11 11q2 -3 8 -6zM67 125h94q11 -1 24 0q12 0 34 2v-31h-30q-21 1 -31 2h-22
q-1 -5 -2 -9q-2 -24 -6 -35q-15 -48 -64 -75h-2q-10 10 -23 16v2q27 10 46 33q21 26 22 65v3h-36q-10 0 -21 -1l-42 -2v32q30 -2 59 -2z" />
    <glyph glyph-name="uni30C8" unicode="&#x30c8;" 
d="M77 199l36 -2q-1 -6 -4 -15l-1 -2v-2v-63l13 14q27 -14 57 -39l1 -2l-18 -25h-2q-27 26 -51 42v-23q0 -32 2 -63q2 -28 3 -43h-34q1 36 1 81q1 39 0 114q0 14 -3 28z" />
    <glyph glyph-name="uni30C9" unicode="&#x30c9;" 
d="M178 158l-13 -11q-22 20 -27 24l13 11q5 -4 27 -24zM199 182l-13 -11q-20 18 -24 21l11 11q3 -3 7 -6q12 -9 19 -15zM58 202l35 -4q-1 -3 -3 -8q-2 -6 -2 -9v-68q5 9 13 17q25 -13 58 -41q-6 -8 -11 -15q-5 -8 -7 -11h-2q-5 4 -10 9q-26 25 -41 35v-52q-1 -16 0 -34
q0 -16 2 -42h-32q1 20 2 39q1 11 1 20v138q0 5 -2 16q-1 5 -1 10z" />
    <glyph glyph-name="uni30CA" unicode="&#x30ca;" 
d="M149 157v-24h9q19 -1 55 1q18 1 27 2v-32h-32q-21 2 -32 2h-27q-2 -28 -10 -49q-11 -32 -34 -55q-12 -14 -28 -26q-2 -1 -6 3l-2 1q-10 7 -20 11l-1 2q38 22 57 59q11 22 15 54h-30q-17 0 -49 -2q-13 -1 -25 -1v32q37 -2 73 -2h31v5q0 18 -6 56q20 -2 40 -3q-1 -4 -3 -9
q-1 -2 -1 -4q-2 -11 -1 -21z" />
    <glyph glyph-name="uni30CB" unicode="&#x30cb;" 
d="M109 163h60q13 0 29 2v-32q-8 -1 -23 1q-15 1 -22 1h-45q-9 0 -26 -1q-17 -2 -25 -1v31q25 -2 52 -1zM93 45h68q13 -1 29 0q13 0 40 2v-34q-12 -1 -33 1q-22 1 -33 1h-71q-12 0 -33 -1q-22 -2 -33 -1v34q33 -2 66 -2z" />
    <glyph glyph-name="uni30CC" unicode="&#x30cc;" 
d="M196 178l29 -19v-2q-6 -7 -10 -14l-18 -30q-12 -20 -25 -38q22 -15 43 -33l-23 -22q-20 16 -39 33l-6 -6q-9 -10 -15 -14q-34 -29 -74 -46h-2q-12 11 -25 18v2q56 20 98 63q-27 19 -56 37l16 19q31 -16 60 -35q9 11 17 25q10 15 17 33h-70q-8 0 -23 -1q-15 -2 -22 -1v27
q25 -2 53 -2q28 1 64 3l8 3h3z" />
    <glyph glyph-name="uni30CD" unicode="&#x30cd;" 
d="M170 74l16 19h2q17 -9 26 -15q3 -3 9 -8q11 -8 17 -12l-19 -21q-24 19 -51 37zM152 165v-14h11h2q9 1 17 6h2l24 -18v-3q-12 -10 -22 -20q-15 -17 -32 -29v-56q-1 -13 1 -33q1 -12 2 -19h-32q1 21 2 44v37v8q-30 -21 -62 -35q-20 -11 -31 -11q-5 7 -12 15q-1 0 -2 1
q-5 3 -4 7q43 12 82 35q38 20 60 45h-31q-13 0 -39 -1h-40v27h77v14q0 13 -3 29q16 -2 33 -3q0 -5 -2 -14q-1 -9 -1 -12z" />
    <glyph glyph-name="uni30CE" unicode="&#x30ce;" 
d="M180 183h3l32 -16v-3q-10 -8 -19 -27q-2 -6 -3 -8q-23 -44 -55 -80q-34 -39 -67 -59h-3q-5 4 -13 9q-8 3 -12 7l-1 1q79 45 124 138q9 17 14 38z" />
    <glyph glyph-name="uni30CF" unicode="&#x30cf;" 
d="M31 25h-2q-12 7 -25 12v2q28 29 42 52q16 26 25 63q8 -3 25 -8q4 -2 9 -3q-1 -4 -5 -10q-2 -3 -2 -4q-6 -14 -12 -25q-23 -44 -55 -79zM253 52v-2l-26 -17h-2q-6 9 -11 18q-34 62 -54 94l23 12h2q24 -29 59 -91q4 -7 9 -14z" />
    <glyph glyph-name="uni30D0" unicode="&#x30d0;" 
d="M76 146h3l29 -16v-3q-7 -6 -16 -20l-4 -8q-28 -45 -60 -69q-1 -2 -3 0l-21 18v2q52 40 72 96zM223 37h-2q-29 51 -68 96l22 16q43 -44 77 -94q-7 -4 -18 -11q-8 -5 -11 -7zM188 170l11 11q8 -6 21 -20q2 -2 5 -4l-13 -11q-7 9 -24 24zM249 178l-13 -13q-17 16 -27 24
l13 13q0 -1 1 -2q18 -14 26 -22z" />
    <glyph glyph-name="uni30D1" unicode="&#x30d1;" 
d="M75 149l32 -16v-3q-7 -5 -14 -18q-2 -4 -3 -5q-27 -44 -68 -73l-19 22q57 44 70 93h2zM152 135l24 15q43 -43 74 -94v-3l-25 -17l-2 1q-5 6 -9 13q-35 60 -62 85zM224 215q27 -2 29 -29q-1 -28 -29 -29q-28 1 -29 29q2 26 29 29zM240 186q-1 15 -16 16q-15 -2 -16 -16
q0 -16 16 -16q15 0 16 16z" />
    <glyph glyph-name="uni30D2" unicode="&#x30d2;" 
d="M45 189h4l30 -6q0 -2 -2 -4v-2q-2 -5 -1 -9v-56q14 1 42 12q38 12 61 27h2q7 -9 15 -18v-1q5 -7 5 -10q-6 -1 -30 -9q-60 -22 -95 -29v-29q-1 -17 4 -23q7 -12 22 -12h27q25 -1 45 1q20 1 38 5v-32q-7 1 -20 -1q-12 -1 -17 -1h-69q-27 1 -43 14q-15 11 -14 37v112
q0 6 -1 14t-3 20z" />
    <glyph glyph-name="uni30D3" unicode="&#x30d3;" 
d="M161 173l13 12q11 -9 27 -26q1 -2 0 -2l-12 -13q-14 14 -28 29zM182 194l14 11q16 -11 29 -24l-13 -14q-18 19 -30 27zM62 168v-59q19 4 39 10h3q24 8 36 15q7 3 18 12h2l20 -26q2 -3 0 -6h-4h-2q-12 -5 -25 -9q-42 -15 -87 -22v-20q-1 -30 12 -37q4 -4 12 -3h43
q10 -1 24 1q24 2 48 5l-3 -31q-12 0 -24 -1q-33 -2 -50 -2h-33q-8 1 -16 1q-7 1 -13 2q-19 5 -23 16q-3 7 -3 17v74q0 13 -2 29q0 11 -2 31q-1 14 -1 21q18 -2 35 -3q0 -3 -2 -8q-3 -5 -2 -7z" />
    <glyph glyph-name="uni30D4" unicode="&#x30d4;" 
d="M195 191q-13 -2 -14 -14q1 -13 14 -14q12 1 14 14q-2 12 -14 14zM195 205q25 -3 28 -28q-3 -26 -28 -28q-27 2 -29 28q2 25 29 28zM34 183h4q4 0 13 -1q10 -1 16 -1q0 -4 -3 -11v-3v-60q23 5 46 13q25 8 50 23h1h2q3 -3 9 -10q3 -4 6 -6q0 -2 2 -3q4 -5 4 -7l-9 -1
q-19 -9 -37 -15q-37 -14 -74 -21v-35q-1 -14 13 -19q6 -3 23 -3q4 1 6 1h21q17 0 52 3q12 1 19 2l-3 -29q-8 0 -21 -1q-13 0 -19 -1h-73q-20 1 -31 6q-14 8 -15 31q-2 8 -1 19v98q0 4 -1 14v17z" />
    <glyph glyph-name="uni30D5" unicode="&#x30d5;" 
d="M87 165h66q29 -1 43 5h1l26 -15q1 -2 1 -3q-1 -5 -4 -8q-5 -3 -8 -13q-2 -4 -2 -5q-25 -53 -63 -89q-28 -27 -75 -50h-3l-24 18v2q103 44 138 134h-105q-8 0 -23 -1h-23v26q28 -2 55 -1z" />
    <glyph glyph-name="uni30D6" unicode="&#x30d6;" 
d="M73 157h61q14 -1 28 2q2 0 4 1q4 2 7 2h1l25 -21q0 -4 -4 -10q-2 -2 -2 -3q-4 -15 -11 -28q-10 -18 -17 -30q-14 -23 -34 -41q-34 -29 -73 -49h-2l-24 18v2q108 52 130 130h-94q-9 0 -27 -1h-28v29q30 -2 60 -1zM195 194l26 -24l-13 -13l-27 26zM243 189l-14 -11l-26 24
l13 11z" />
    <glyph glyph-name="uni30D7" unicode="&#x30d7;" 
d="M65 157h88q4 0 10 2l6 3h2l25 -20q-1 -3 -3 -7q-2 -3 -2 -4q-5 -12 -9 -24q-6 -14 -13 -26q-14 -23 -31 -42q-29 -32 -67 -50q-4 -1 -8 -3l-12 -6q-3 0 -8 6q-2 1 -3 2q-10 7 -17 11v1q99 35 137 131h-94q-10 0 -27 -1h-25v29q25 -2 51 -2zM213 213q27 -3 30 -30
q-2 -28 -30 -29q-28 1 -29 29q2 28 29 30zM227 183q-1 13 -14 14q-13 -1 -13 -14t13 -13t14 13z" />
    <glyph glyph-name="uni30D8" unicode="&#x30d8;" 
d="M32 63l-24 22v2q21 11 56 41q6 6 10 9q1 1 4 3q11 9 18 9q8 0 23 -11q3 -2 6 -3q7 -6 22 -17q63 -45 101 -63v-2l-17 -29h-2q-52 35 -101 76q-2 1 -4 3q-13 11 -20 15q-11 3 -26 -12l-1 -1q-27 -29 -42 -42q-1 -2 -3 0z" />
    <glyph glyph-name="uni30D9" unicode="&#x30d9;" 
d="M31 63l-21 25v2q28 18 57 40q1 1 4 3q12 9 20 12q10 3 27 -7q23 -16 33 -23q7 -5 14 -9q48 -37 82 -53l-16 -30h-2q-41 28 -79 59q-15 11 -19 14q-6 5 -9 8q-15 11 -18 12q-12 2 -21 -5q-5 -4 -13 -12t-12 -11q-14 -14 -27 -25zM170 159l14 10q13 -11 26 -23l-13 -13
q-8 9 -17 16q-5 4 -10 10zM234 165l-13 -14q-22 23 -27 27l12 12q14 -12 28 -25z" />
    <glyph glyph-name="uni30DA" unicode="&#x30da;" 
d="M251 54v-2l-20 -27h-3q-6 2 -18 10q-5 3 -7 5q-26 16 -71 54q-12 10 -17 15q-2 0 -3 1q-7 7 -12 7q-4 0 -11 -7q-2 -1 -3 -2q-5 -5 -15 -13q-4 -4 -8 -7q-5 -5 -13 -12t-12 -11q-2 -2 -6 -7q-2 -1 -4 0l-23 24v2q25 15 48 33l22 18q7 6 17 10q12 3 32 -10q2 -3 8 -7
q10 -7 15 -10q61 -49 104 -64zM202 195q27 -2 29 -29q-2 -29 -29 -30q-29 1 -30 30q2 26 30 29zM217 166q-2 13 -15 15q-14 -2 -15 -15q0 -15 15 -15q14 0 15 15z" />
    <glyph glyph-name="uni30DB" unicode="&#x30db;" 
d="M60 90l27 -13v-3q-6 -5 -16 -18q-3 -6 -5 -8q-14 -20 -31 -36q-1 -2 -2 0q-3 1 -6 4l-9 6h-1q-7 2 -8 6q33 27 51 62zM173 72l18 19h2q28 -26 54 -52v-2l-22 -19h-2q-4 3 -7 7q-26 32 -43 47zM110 191l38 -2q0 -4 -2 -9q-3 -5 -2 -8v-32h39q24 -1 48 1v-28h-25
q-17 1 -25 1h-37v-17v-46q1 -29 1 -43v-5v-1q-4 -9 -9 -14q-5 -3 -10 -5q-6 -1 -14 -2l-16 -2h-4q-4 12 -8 23q-4 5 -1 8q15 -3 24 0q8 2 9 12v71q0 -6 0 21h-44q-8 -1 -24 -1h-25v28q22 -2 44 -1h48q-1 1 -1 6q-2 28 -4 45z" />
    <glyph glyph-name="uni30DC" unicode="&#x30dc;" 
d="M61 93h2l26 -14v-2q-5 -4 -11 -13q-4 -7 -6 -9q-16 -21 -34 -40q-3 -1 -8 3q-2 1 -2 2q-4 2 -13 5q-2 1 -2 2v2q35 34 48 64zM169 77l19 15q28 -25 47 -55l-20 -17h-2q-6 6 -10 13q-21 29 -34 44zM179 173l12 11q14 -11 25 -22l-10 -13q-17 16 -27 24zM203 197l12 12
q16 -10 28 -23l-13 -13q-12 13 -27 24zM112 191h4q5 0 15 -1q9 -2 15 -1q0 -3 -2 -6v-1q-2 -5 -1 -10v-32h35q23 -1 46 1v-30h-21q-15 1 -22 1h-38v-75v-10q3 -22 -4 -28q-4 -4 -16 -8q1 0 -1 -1q-6 -1 -18 -2q-4 0 -8 -1l-8 26v2h16q13 0 14 18v79h-42q-9 0 -26 -1h-26v30
q25 -2 50 -1h44q-3 40 -6 51z" />
    <glyph glyph-name="uni30DD" unicode="&#x30dd;" 
d="M59 90h3l24 -12q1 -3 0 -5q-6 -4 -14 -16q-2 -4 -3 -5q-11 -14 -33 -36q-2 -2 -2 0l-23 16v2q26 20 48 56zM169 77l18 17q24 -20 51 -55q-15 -15 -20 -23h-2q-22 32 -47 61zM187 189q2 26 30 29q27 -3 29 -29q-2 -29 -29 -30q-29 2 -30 30zM233 188q-2 14 -16 16
q-17 -1 -17 -16q0 -16 17 -16q15 0 16 16zM112 189h4q6 0 18 -2q5 -1 11 -1q0 -4 -2 -9t-1 -8v-31q39 -1 80 2l3 -29q-9 -1 -24 1q-16 1 -24 1h-35v-96q-1 -21 -15 -28q-8 -3 -27 -4q-3 0 -6 -1q-5 11 -7 18q-1 0 -1 2q-3 6 -1 9h16q12 1 14 18v82h-38q-10 0 -27 -2h-25v29
l90 -2v13q0 8 -2 24q-1 7 -1 14z" />
    <glyph glyph-name="uni30DE" unicode="&#x30de;" 
d="M241 143v-2q-11 -5 -24 -21q-41 -47 -74 -72q13 -14 26 -27l-24 -19h-2q-40 45 -75 67l-1 1l21 19h2q14 -9 26 -19q3 -4 7 -5q29 22 63 66h-112q-10 0 -29 -1q-20 -1 -30 -1v30q22 -2 44 -1h76q33 -1 66 1l6 6h2z" />
    <glyph glyph-name="uni30DF" unicode="&#x30df;" 
d="M102 194h3q36 -11 69 -27l-12 -26l-2 -1q-36 16 -73 30l-1 1zM86 128h2q24 -8 68 -30q4 -2 7 -3l-15 -26q-37 19 -76 35l-1 1zM81 54h2q52 -17 99 -43l2 -2q5 -2 6 -4q-4 -5 -10 -12q-7 -8 -10 -13l-3 1q-51 30 -100 47l-1 2z" />
    <glyph glyph-name="uni30E0" unicode="&#x30e0;" 
d="M107 183h3q20 -6 37 -14v-3l-6 -5q-6 -4 -10 -17q-2 -5 -3 -7q-23 -60 -45 -99q4 -1 8 1q61 5 92 12q-13 19 -29 36v2l19 15h2q33 -30 68 -78q1 -2 0 -2l-18 -18q-6 -5 -9 -5q-4 4 -9 13t-8 14q-43 -9 -124 -20l-27 -3q-5 -2 -10 -3q-2 -2 -4 -2q-3 0 -4 -2q-5 -4 -6 -3
l-11 37l1 2h5q16 -1 32 1q46 88 56 148z" />
    <glyph glyph-name="uni30E1" unicode="&#x30e1;" 
d="M189 189h2l32 -16v-3q-6 -4 -9 -8q-5 -7 -10 -20q-1 -2 -1 -3q-12 -24 -25 -45l24 -18q8 -7 13 -10l-18 -26h-2q-18 14 -35 28q-7 -7 -11 -13q-41 -46 -88 -69h-2q-4 4 -12 10q-3 2 -4 3q-2 1 -3 1q-6 1 -6 5q58 24 102 78q-1 0 1 1q-9 5 -24 15q-15 9 -23 15l16 21
q24 -12 48 -27q27 42 35 81z" />
    <glyph glyph-name="uni30E2" unicode="&#x30e2;" 
d="M92 171h64q24 0 50 2v-30h-26q-17 1 -24 1h-25v-40h38q33 0 66 2v-29h-34q-21 1 -31 1h-39v-40q0 -14 19 -15h25q21 0 42 2v-29q-4 1 -11 0t-10 -1h-23q-20 0 -38 3q-21 2 -27 13q-7 7 -6 21v46h-28q-10 0 -27 -1h-25v29q28 -2 58 -2h22v40h-10q-9 0 -24 -1h-22v30
q22 -2 46 -2z" />
    <glyph glyph-name="uni30E3" unicode="&#x30e3;" 
d="M86 181h29q-1 -5 -2 -8v-4q-1 -7 0 -14t4 -16q-1 -3 1 -5q27 4 54 9q20 1 31 8h3q10 -8 21 -16v-2q-8 -4 -15 -16q-18 -28 -38 -50h-2l-16 12q20 20 35 46v2q-12 -4 -69 -15q3 -22 8 -43q4 -31 11 -59l-25 -5q-8 51 -17 102h-2q-8 -2 -16 -3q-21 -4 -31 -6q-8 -4 -9 -3
l-11 24v3h6h2q23 2 56 8q-2 10 -3 19q-4 15 -5 32z" />
    <glyph glyph-name="uni30E4" unicode="&#x30e4;" 
d="M111 194l-2 -11v-1v-5v-1q1 -7 3 -18q2 -13 5 -24q37 6 75 15q15 1 21 6q2 1 3 2h2q17 -8 31 -16v-3q-8 -5 -20 -25q-20 -30 -43 -57l-2 -1q-5 2 -12 5q-8 3 -12 6v3q10 9 19 21q14 16 25 36q-14 -4 -41 -9q-28 -5 -41 -8q12 -62 26 -124l-28 -7l-2 1q-12 68 -24 125
q-7 -2 -13 -3q-27 -6 -66 -16l-8 32q16 0 35 3q16 2 47 8l-2 10q-2 5 -3 11q-6 27 -10 42z" />
    <glyph glyph-name="uni30E5" unicode="&#x30e5;" 
d="M87 149h81q5 -1 5 -3l-7 -89h27q13 -1 26 1v-25h-14q-9 1 -14 1h-126q-5 0 -14 -1h-14v25q13 -2 26 -1h79l6 70h-61q-3 -1 -10 -1h-10v24q10 -2 20 -1z" />
    <glyph glyph-name="uni30E6" unicode="&#x30e6;" 
d="M97 165h93l-12 -121q31 -1 64 1v-32q-13 0 -38 1t-36 1h-81q-13 0 -36 -1q-24 -1 -36 0v31q34 -2 69 -1h63l9 94h-67q-8 0 -21 -1q-14 -1 -21 0v29q24 -2 50 -1z" />
    <glyph glyph-name="uni30E7" unicode="&#x30e7;" 
d="M89 159h102v-96q1 -27 3 -48h-24v14h-81q-5 0 -13 -1h-10v20q10 -2 23 -1h81v38h-81q-5 0 -13 -1h-10v20q10 -2 23 -1h81v35h-81q-5 0 -14 -1h-12v25q2 -1 7 -2q12 -2 19 -1z" />
    <glyph glyph-name="uni30E8" unicode="&#x30e8;" 
d="M112 170h94v-145q0 -17 2 -30h-31v12h-66q-11 0 -32 -2h-30v31q29 -2 61 -2h67v42h-78q-9 0 -26 -2h-24v31q27 -2 54 -2h74v40h-84q-8 0 -23 -1h-21v29q31 -2 63 -1z" />
    <glyph glyph-name="uni30E9" unicode="&#x30e9;" 
d="M88 186h76q19 0 39 2v-31q-8 0 -22 1q-13 1 -19 1h-64q-8 0 -23 -2h-21v31q16 -2 34 -2zM80 127h115l2 1q4 2 6 2q16 -9 24 -18v-4l-5 -4q-6 -4 -11 -16l-3 -6q-10 -18 -20 -33q-8 -11 -24 -27q-30 -27 -66 -45h-2q-3 3 -6 5q-13 9 -18 14v2q85 35 114 102h-103
q-10 0 -28 -2q-17 -1 -25 0v31q17 -2 28 -2q12 -1 22 0z" />
    <glyph glyph-name="uni30EA" unicode="&#x30ea;" 
d="M94 172v-66q0 -26 2 -51h-30q-1 7 0 21q1 13 1 21v55q0 5 -1 17v20q15 -2 32 -1q-1 -3 -3 -8q-1 -4 -1 -8zM187 177v-44q0 -37 -6 -73q-8 -35 -27 -61q-14 -16 -28 -31h-2q-9 6 -18 10q-10 5 -9 6q2 3 5 5q21 15 30 26q25 31 26 84v64q0 5 -1 16t-1 18q16 -2 35 -3
q-1 -3 -2 -8q-2 -6 -2 -9z" />
    <glyph glyph-name="uni30EB" unicode="&#x30eb;" 
d="M59 170h4q5 0 15 -1q9 -2 15 -1q0 -4 -1 -9q-2 -5 -1 -8v-11q0 -7 -3 -39l-2 -10q-2 -18 -5 -26q-16 -41 -49 -65h-2q-12 7 -23 15l-1 2q31 17 44 45q13 29 14 65v9q-1 7 -2 16t-3 18zM152 157v-111q-1 -2 1 -2q30 10 78 55l7 7l13 -24q-30 -33 -83 -64q-24 -13 -26 -18
q-5 -1 -8 4q-8 7 -14 16q-2 0 0 3q6 23 6 37v92q0 3 -1 10v13q5 -1 15 -2h16q-1 -3 -2 -7q-2 -6 -2 -9z" />
    <glyph glyph-name="uni30EC" unicode="&#x30ec;" 
d="M38 173l37 -6q0 -3 -3 -7t-2 -6v-115h2q28 7 69 31q38 23 73 55l8 -25v-2q-41 -41 -113 -74l-12 -6q-13 -5 -19 -8q-11 -5 -16 -12h-3l-24 26v1q0 1 2 4q1 3 2 5v3q1 3 1 5v111q0 2 -1 9t-1 11z" />
    <glyph glyph-name="uni30ED" unicode="&#x30ed;" 
d="M207 159v-104q-1 -14 1 -39q1 -12 2 -16h-31v15h-100v-15h-32q0 8 1 17q2 26 2 41v101h157zM79 42h100v91h-100v-91z" />
    <glyph glyph-name="uni30EE" unicode="&#x30ee;" 
d="M51 167h128l3 1q3 2 5 2l12 -9q4 -3 7 -4v-3q-3 -4 -6 -14q-1 -3 -1 -4q-2 -6 -4 -19q-4 -16 -6 -23q-4 -14 -15 -33q-20 -35 -53 -56l-19 15v2q32 16 52 47q18 28 24 77h-106v-33v-13q1 -7 1 -10h-23v9q1 4 1 14v54z" />
    <glyph glyph-name="uni30EF" unicode="&#x30ef;" 
d="M36 181h148l11 2h3l22 -14q1 -1 0 -5v-1q-2 -3 -3 -5q-1 -5 -2 -6q-4 -36 -9 -55q-6 -24 -18 -45q-25 -44 -64 -72h-2l-22 17v2q49 34 67 70q20 43 21 84v4h-125l1 -75h-28v99z" />
    <glyph glyph-name="uni30F0" unicode="&#x30f0;" 
d="M78 149h63q-1 22 -5 43q0 4 -3 10q19 -2 39 -1q0 -3 -3 -8q-2 -4 -2 -6v-38h1h20q16 0 32 2v-29h-52l-1 -1q0 -8 1 -22q0 -15 1 -22h39q18 0 36 2v-32h-74v-1q1 -38 2 -75h-32q0 36 2 75l-1 1q-33 -1 -65 -2q-24 -1 -37 -2h-27v33h43v1v44q-1 -1 -6 -1h-18v31
q24 -2 47 -2zM132 77h10v22v22v1h-60v-1v-44h1h49z" />
    <glyph glyph-name="uni30F1" unicode="&#x30f1;" 
d="M196 175l20 -16q1 -1 1 -5q-7 -3 -16 -15q-3 -5 -4 -6q-17 -23 -36 -41l-20 10q0 -1 -1 -2t0 -1v-64h43q28 0 56 2v-32h-26q-18 1 -27 2h-110q-10 0 -29 -1q-20 -1 -30 -1v32q31 -2 61 -2h35v58q-1 10 -2 21q6 -1 15 -2t16 -1q14 12 31 34h-92q-6 0 -17 -1t-17 -1v30
q25 -2 49 -1h42q24 -1 47 1q1 0 4 1q5 2 7 1z" />
    <glyph glyph-name="uni30F2" unicode="&#x30f2;" 
d="M219 158v-1l-5 -5q-3 -7 -5 -15q-1 -6 -1 -8q-17 -69 -53 -102q-36 -32 -92 -46h-2q-6 11 -15 19q-1 0 -2 1q-5 3 -4 7q56 3 97 42q17 17 28 40h-75q-9 0 -26 -1h-27v26q19 -2 37 -1h101q4 16 7 32h-100q-8 0 -21 -1q-14 -2 -21 -1v29q20 -2 40 -1h70q17 -1 34 1q1 0 4 1
q2 1 4 1q13 -6 24 -13q3 -2 3 -4z" />
    <glyph glyph-name="uni30F3" unicode="&#x30f3;" 
d="M97 133l-18 -18h-2q-23 23 -47 44l19 16h3q17 -14 45 -40v-2zM217 143l12 -26v-2q-53 -55 -160 -111q-18 -6 -17 -12h-3q-12 15 -21 34v2q11 0 33 9q82 30 156 106z" />
    <glyph glyph-name="uni30F4" unicode="&#x30f4;" 
d="M224 170l-13 -11q-22 20 -27 24l13 11q5 -4 27 -24zM245 194l-13 -11q-20 18 -24 21l11 11q3 -3 7 -6q12 -9 19 -15zM128 185v-28h50q1 -1 4 1q5 2 7 1l26 -18v-3q-5 -4 -7 -13q-1 -3 -1 -4q-13 -43 -28 -68q-22 -35 -52 -59l-28 -20h-2q-14 10 -27 16v2q86 44 107 138
h-135v-64h-30q-1 11 0 34t1 35v22h85v16q0 6 -2 18q-1 5 -1 11q6 -1 18 -2h19l-2 -6q-3 -6 -2 -9z" />
    <glyph glyph-name="uni30F5" unicode="&#x30f5;" 
d="M74 141h47v2q1 12 2 27v8q15 -2 29 -3q0 -3 -3 -7q-2 -3 -2 -4q-2 -11 -3 -20v-3h34q16 -1 33 1v-12q0 -21 -3 -40q-1 -23 -8 -44q-4 -16 -14 -23q-13 -11 -36 -10h-6l-3 22q7 -2 13 -1h4q10 0 15 7q6 7 9 21q5 17 5 46v11h-46l-1 -1q-15 -65 -76 -105l-19 16
q55 29 72 89v1h-43q-4 0 -11 -1t-10 0v24q10 -2 21 -1z" />
    <glyph glyph-name="uni30F6" unicode="&#x30f6;" 
d="M103 183l24 -10q0 -4 -4 -9q-1 -2 -1 -3q-5 -9 -7 -16l-6 -12h83q14 -1 31 1v-24h-17q-10 1 -14 1h-23q-6 -36 -16 -54q-16 -31 -50 -56q-2 -1 -2 0l-19 13v2q55 34 63 95h-49q-20 -26 -46 -42l-16 15v2q52 31 67 97h2z" />
    <glyph glyph-name="uni3105" unicode="&#x3105;" 
d="M104 198q0 7 8 3q10 -10 17 -21q-1 -4 -6 -6q-5 -1 -25 -27q-13 -20 -27 -34q54 9 107 23q2 1 7 2q25 -14 30 -26q0 -3 -4 -6q-6 -4 -9 -9q-46 -113 -82 -111q-3 1 -3 3t1 10q-2 9 -21 26q-2 2 -3 4q-1 7 7 8q19 -16 27 -17q30 9 52 84q2 12 -19 11q-62 -8 -95 -22
q-2 -1 -5 -3q-5 -3 -6 -3q-23 18 -9 27q48 34 58 84z" />
    <glyph glyph-name="uni3106" unicode="&#x3106;" 
d="M49 -11q-7 3 -2 8q46 13 86 50q-24 21 -52 38q-4 3 -2 6t6 2q35 -16 61 -31q23 26 31 58q0 4 -2 5q-50 -6 -80 -17q-3 -3 -8 -5q-11 6 -13 22q33 19 46 64q-5 14 4 14q14 -10 21 -21q0 -5 -10 -9q-7 -8 -16 -22q-12 -17 -21 -26q68 12 79 20q2 1 4 1q16 -6 30 -24
q0 -4 -8 -8q-4 -3 -5 -4q-15 -35 -36 -58q22 -16 33 -26q15 -16 13 -28q-6 -16 -20 -4l-42 42q-38 -34 -97 -47z" />
    <glyph glyph-name="uni3107" unicode="&#x3107;" 
d="M67 171h7q35 0 93 13q2 0 4 1q4 2 7 2q15 -5 33 -25q0 -3 -4 -7q-3 -5 -3 -8v-5q0 -14 1 -28q2 -34 2 -52v-40q-1 -22 -11 -26q-15 4 -17 16q0 3 1 10q6 24 6 55v37q0 40 -8 47q-5 9 -34 2q-5 -2 -17 -4q-34 -9 -40 -8h-2q-5 1 -7 4q-1 -3 -1 -7q-2 -9 -1 -14v-41
q0 -34 -3 -65q-1 -30 -10 -32q-16 7 -18 19q0 3 3 11q13 35 13 83v11q0 29 -11 55q-1 3 4 4q5 -2 13 -9v1z" />
    <glyph glyph-name="uni3108" unicode="&#x3108;" 
d="M73 160v-7q0 -7 -1 -19v-16q-2 -35 -1 -95v-6q-2 -4 4 -4q44 0 93 12q6 1 20 1q29 -15 13 -26q-7 0 -13 1q-19 2 -28 2h-10q-37 -2 -72 -6q-14 -3 -15 -3q-10 4 -15 15l1 6q7 29 8 51v42q-2 49 -9 70q0 1 4 2q6 -2 12 -6q45 3 90 17q8 3 14 4q13 -3 17 -13q1 -9 -11 -9
q-50 -4 -86 -13l-4 -1q-5 0 -12 5q1 -2 1 -4z" />
    <glyph glyph-name="uni3109" unicode="&#x3109;" 
d="M135 104q3 -4 1 -7q-1 -2 -5 -4l-2 -2q-2 -4 -4 -7q-29 -70 -83 -89q-7 -2 -7 3q1 2 -1 2q66 37 72 112q-17 -2 -23 -4q-5 -2 -11 -7t-8 -4q-5 1 -12 12q-4 7 -1 9q29 17 50 59q2 6 4 16q1 6 2 9t5 2q21 -17 20 -26q-2 -2 -5 -3q-5 -1 -7 -4q-4 -5 -9 -11
q-22 -29 -32 -38q11 2 34 5q40 7 63 12h2q8 3 13 3q13 -3 31 -21q0 -5 -6 -10q-5 -6 -16 -38q-31 -86 -55 -83q-2 0 -3 6l-1 4q-1 8 -23 21q-2 1 -2 2q-4 5 3 8q1 -1 6 -3q15 -7 21 -6q26 5 43 88q1 12 -14 12q-19 -1 -53 -7q5 -4 13 -11z" />
    <glyph glyph-name="uni310A" unicode="&#x310a;" 
d="M41 114h2q8 -1 26 1q19 2 42 6q5 25 5 47q0 10 -5 19v3h-1q0 5 4 5q24 -5 33 -19q0 -2 -4 -6q-3 -3 -3 -5q-2 -17 -8 -41q15 2 38 7q6 1 9 2q2 0 5 1q5 2 8 2q16 -4 24 -19q-1 -8 -5 -8q-5 -1 -13 1q-9 1 -13 1h-12q-13 0 -34 -3h-11q-16 -55 -35 -92h3q26 3 74 13
q-4 5 -13 16l-6 9q-2 5 4 6q51 -29 51 -51q-2 -9 -15 -13q-5 0 -8 8q-1 3 -1 5q-2 2 -3 5q-2 3 -3 6q-39 -9 -76 -21q-3 -1 -7 -5q-5 -6 -7 -6q-13 6 -20 21q22 13 42 95q-22 -4 -35 -8q-10 -2 -12 -2q-15 6 -20 20z" />
    <glyph glyph-name="uni310B" unicode="&#x310b;" 
d="M49 188q3 0 14 -1h6q36 0 91 12q16 -1 29 -16q0 -7 -3 -7q-9 -2 -17 -8q-13 -12 -43 -46q-4 -4 -5 -6q40 5 53 11q2 2 4 2q15 -6 29 -24q3 -3 0 -6q-1 -3 -6 -5q-6 -2 -8 -6q-54 -99 -81 -98q-8 0 -7 3q2 9 -19 33q-6 4 -4 7q3 3 9 0q3 -3 8 -7t17 -11q21 -5 61 82
q4 14 -7 14q-24 0 -45 -11q-6 -4 -7 -3q-15 3 -19 14q0 2 5 7l2 2q35 35 45 58v2q1 1 -1 1q-47 -7 -72 -14q-7 -2 -10 -2q-7 0 -16 10q-6 8 -3 13z" />
    <glyph glyph-name="uni310C" unicode="&#x310c;" 
d="M78 100l-2 -2q-5 -6 -8 -5q-13 5 -17 17q0 2 4 4q2 1 4 3q21 31 18 69q1 4 6 4q15 -10 23 -18q0 -4 -1 -5q-12 -3 -27 -50l28 4q15 2 23 4q8 28 7 55q0 1 -2 6q-1 8 -1 11q1 3 5 4q16 -7 28 -16q2 -2 0 -7q-1 -2 -4 -4q-2 -2 -2 -3q-3 -22 -10 -41q13 2 25 6q2 0 4 1
q3 2 6 2q23 -11 29 -24q0 -5 -7 -8q-5 -2 -5 -4q-3 -8 -5 -18q-19 -94 -55 -98q-11 -2 -10 9q-3 9 -15 20q-5 5 -5 8q-1 5 5 5q2 -2 7 -5q13 -9 18 -9q27 -2 42 97q0 6 -7 7q-17 -4 -33 -5q-34 -84 -95 -120q-4 -2 -6 1q-3 3 0 5q52 36 81 111q-40 -5 -46 -11z" />
    <glyph glyph-name="uni310D" unicode="&#x310d;" 
d="M113 189q16 -8 21 -19q-1 -4 -4 -5q-5 -3 -24 -28q-31 -40 -48 -56q23 -23 37 -35q35 -28 32 -44q-2 -7 -12 -10q-6 1 -15 11q-1 1 -1 2q-17 30 -54 75v2q46 51 63 101q-2 6 5 6zM126 89v2q56 55 57 87q1 6 7 6q14 -9 21 -23q0 -4 -5 -6q-5 -1 -7 -4q-26 -35 -59 -62
q71 -58 71 -81q1 -10 -13 -14q-5 1 -12 9q-26 51 -60 86z" />
    <glyph glyph-name="uni310E" unicode="&#x310e;" 
d="M45 176h11q32 0 113 16q21 5 24 5q30 -11 16 -21h-3q-7 1 -17 2q-19 -2 -67 -9q9 -8 12 -13v-3q-1 -3 -8 -8l-1 -1q-2 -2 -23 -32q-2 -2 -2 -3q3 0 11 1q31 3 47 11q1 0 3 1q3 2 5 2q23 -8 31 -21q0 -3 -4 -5t-4 -4q-3 -5 -8 -16q-40 -94 -66 -92q-3 1 -4 5q0 3 -1 5
q-1 1 -1 2q-4 6 -20 18q-3 7 4 8q0 -1 1 -1q10 -9 22 -10q26 3 52 84q0 6 -5 6q-43 -4 -55 -10l-8 -4q-8 -4 -9 -4q-10 3 -16 17q0 2 3 5l1 1q16 10 29 44q1 3 2 10q0 3 1 6q-18 -3 -43 -7l-10 -1q-7 0 -14 8q-6 7 1 8z" />
    <glyph glyph-name="uni310F" unicode="&#x310f;" 
d="M86 178l5 1q50 0 96 13q8 2 11 3q30 -14 17 -23q-6 -2 -22 0l-3 1q-29 -1 -74 -8l-4 -2q-6 -2 -9 -1q-5 0 -9 4q-2 -3 -1 -2q0 -132 -49 -168q-4 -2 -6 0q-3 2 -1 4q37 31 36 131v4q0 28 -4 48q1 1 3 2q7 -1 14 -7z" />
    <glyph glyph-name="uni3110" unicode="&#x3110;" 
d="M180 156v-151q-2 -10 -8 -11q-12 6 -15 17q0 1 1 4q6 19 6 43v16q-5 -2 -11 -5q-51 -22 -57 -27q-3 -2 -6 -6q-4 -4 -6 -4q-12 7 -16 18q0 3 3 7q5 5 6 9q4 20 5 67q0 13 -4 21q-2 2 -1 5q0 1 4 2q21 -7 22 -17q0 -2 -2 -4q-3 -5 -4 -11q-1 -12 -4 -37q-2 -23 -2 -32
q12 4 35 11q25 7 38 12v80q0 15 -6 26q-1 4 -1 7t4 4q25 -7 27 -16q-1 -2 -3 -5q-6 -9 -5 -23z" />
    <glyph glyph-name="uni3111" unicode="&#x3111;" 
d="M59 77v3q76 69 79 113q4 3 6 2q14 -12 20 -24q1 -4 -2 -6q-2 -2 -5 -2q-2 -1 -4 -3q-44 -53 -79 -80q14 -7 31 -15q94 -41 92 -58q-1 -16 -18 -13q-5 4 -9 6q-28 30 -111 77z" />
    <glyph glyph-name="uni3112" unicode="&#x3112;" 
d="M137 119v-40q0 -35 3 -65l1 -7q-1 -7 -8 -10q-13 6 -18 26q0 1 1 5q7 19 7 64v69q-33 -5 -55 -9l-4 -2q-5 -3 -7 -2q-11 3 -16 18q1 1 3 1q43 0 133 18q12 3 15 3q31 -12 19 -23q-4 -1 -12 0q-6 1 -15 2q-9 0 -43 -4h-4q-2 -11 -1 -30q1 -10 1 -14z" />
    <glyph glyph-name="uni3113" unicode="&#x3113;" 
d="M126 58v5q-30 -4 -35 -10t-8 -5q-11 4 -16 19q0 1 2 3q6 4 6 13v41q0 12 -8 31q-2 6 -2 8q15 5 29 -10q-1 -2 -3 -5q-3 -4 -2 -10v-65q19 0 37 3v74q0 20 -7 36q-1 2 -1 5q-2 3 0 5q1 0 1 1q-1 4 16 -4q14 -7 15 -11q-5 -8 -6 -12q-1 -11 -2 -36t-1 -32v-23q9 0 28 4
q-12 -3 6 1q3 -1 6 -4q1 4 1 8q1 14 2 48q0 9 -4 17q-1 2 -1 4q0 4 4 5q23 -8 24 -16q-1 -1 -1 -2q1 0 0 -1q-6 -7 -6 -11q-3 -71 -10 -81h-3l-3 3q-7 10 -6 15q-8 -1 -37 -3v-10q-1 -8 0 -21t1 -20q27 3 54 8h7q11 -1 19 -12q6 -11 -4 -11q-4 0 -13 1q-12 2 -18 2
q-64 -3 -120 -10q-18 -3 -19 -3q-18 7 -15 14q22 2 45 4q22 1 44 4q2 16 3 26q1 11 1 20z" />
    <glyph glyph-name="uni3114" unicode="&#x3114;" 
d="M151 198h2q18 -15 20 -23q0 -4 -7 -5q-5 -1 -6 -2q-40 -46 -93 -74q-5 -3 -8 -1q-3 5 2 7q61 42 84 85q0 1 1 4q1 6 5 9zM160 69v-37q-1 -39 -8 -44q-12 4 -17 19l1 4q6 11 6 21v35v11q-48 -39 -85 -51q-7 1 -3 7q79 39 125 118v1q2 8 6 8q11 -8 18 -18q1 -4 0 -5
q-1 -2 -5 -4q-5 -1 -5 -2q-16 -22 -40 -44q6 -4 10 -7q2 -4 -2 -10q-1 -1 -1 -2z" />
    <glyph glyph-name="uni3115" unicode="&#x3115;" 
d="M184 175q1 9 -4 9q-54 -5 -91 -12q-11 -1 -12 -1q-15 6 -19 22q0 -1 1 0t2 1q33 -3 69 0q35 4 59 12q23 -10 27 -22q-1 -2 -4 -4q-13 -9 -18 -39q-5 -18 -13 -21q-5 2 -6 6q-22 -2 -41 -9q-17 -4 -22 -4t-11 4q-2 -84 -53 -129q-3 -2 -7 1q-2 2 0 5q40 44 39 114
q0 6 -3 19q-1 6 -1 8q3 6 20 -8q16 1 49 9q13 4 15 4q4 0 14 -6l4 18q4 11 6 23z" />
    <glyph glyph-name="uni3116" unicode="&#x3116;" 
d="M189 161v-31q0 -31 1 -78q1 -22 1 -23q-1 -23 -13 -27q-6 0 -9 9h-8q-12 2 -50 -4q-15 -2 -18 -2q-2 0 -8 4q-2 3 -3 4q-2 1 -3 2v-1q-1 -13 -6 -16q-11 3 -14 19q-1 1 1 5q9 20 9 79v37q-1 15 -5 29q-1 9 -1 11t3 2q3 -2 8 -6q78 8 96 21q22 -7 28 -18q0 -3 -4 -6
q-6 -6 -5 -10zM107 119q0 1 3 3q1 0 2 1q34 -23 35 -37q-6 -23 -18 -13q-10 27 -18 36q-5 7 -4 10zM79 24h10q21 -2 61 6q4 1 5 1q5 -1 12 -5q0 4 1 10q5 27 5 40v45q1 25 -2 42q-4 8 -13 8q-18 0 -70 -12q-1 0 -5 3v-19q0 -52 -4 -114v-5z" />
    <glyph glyph-name="uni3117" unicode="&#x3117;" 
d="M107 119v-103q-2 -17 -9 -23q-10 7 -12 19q0 3 1 13q4 30 4 57v42q0 14 -1 22q-1 9 -2 17h-2q-5 -1 -12 -4q-6 -1 -9 -1q-14 3 -17 19l2 1q67 1 116 16q2 0 4 1q5 1 7 2q23 -9 31 -24q0 -3 -5 -6q-4 -3 -4 -5q-26 -92 -50 -93q-3 0 -5 5q-1 4 -2 6h-1q-2 5 -19 16
q-6 3 -6 6q0 4 6 6q2 -2 7 -4q14 -7 17 -6q20 -1 32 69q1 8 -11 9q-15 0 -69 -11q12 -12 13 -19q0 -2 -1 -5q-3 -8 -3 -22z" />
    <glyph glyph-name="uni3118" unicode="&#x3118;" 
d="M213 120h-19q-20 0 -33 -2q-14 -1 -25 -3l-12 -50v-3q12 2 23 5q12 3 19 5h1q8 5 10 5q12 -6 21 -17q1 -2 1 -3v-1q0 -3 -8 -6l-3 -2q-2 -2 -8 -11q-13 -24 -30 -43q-4 -4 -8 -2q-4 3 -1 6q12 14 24 47q2 11 -4 10q-31 -2 -40 -10q-2 -1 -5 -4q-7 -5 -9 -4q-10 3 -13 16
q-1 3 4 6q8 6 11 16q3 7 10 37q-32 -8 -47 -14q-1 -1 -2 -1q-7 -3 -10 -2q-6 -1 -18 17q-1 1 -1 2q-2 0 -2 1q1 1 3 2q9 -1 63 7q11 2 17 3q6 33 6 46q0 9 -5 19v3q-1 3 2 4q0 -1 2 -1q32 -7 32 -12l-1 -4q-2 -2 -5 -4q-2 -2 -2 -3q-3 -8 -6 -23t-5 -22q16 3 28 6q11 2 15 3
q10 3 12 3q26 -11 18 -22z" />
    <glyph glyph-name="uni3119" unicode="&#x3119;" 
d="M78 25h2q44 4 97 14q-11 17 -22 29q-2 3 0 5q3 2 6 1q51 -38 54 -57q-2 -14 -13 -16q-6 0 -11 11q-2 3 -2 5q-3 5 -6 13q-52 -12 -100 -26q-6 -2 -12 -6q-5 -4 -7 -4q-20 8 -23 21q0 2 6 5q3 1 4 2q22 19 78 102q-14 37 -34 60q-3 3 -1 6q4 4 31 -1q2 -1 2 -6
q-1 -1 -2 -3q-1 -3 0 -5q3 -10 16 -34l8 -15q0 -1 -19 -27q-39 -55 -52 -74z" />
    <glyph glyph-name="uni311A" unicode="&#x311a;" 
d="M72 187q23 -21 40 -39q6 -7 5 -12t-7 -2q-9 6 -33 21q-19 13 -23 17q-10 9 -2 18q8 6 20 -3zM138 135q35 34 42 55q-1 4 4 6q10 -5 23 -19q1 -4 -2 -6q-1 -1 -5 -2l-4 -1q-4 -3 -15 -12q-26 -20 -38 -26q-3 0 -5 5zM136 34v-19q-2 -17 -10 -22q-12 7 -15 18q0 3 2 8
q8 20 8 73v17q-1 6 -4 13q-1 3 -1 5q-2 3 3 4q19 -8 24 -15v-3q-1 -2 -4 -5l-2 -2q0 -13 -1 -36q-1 -24 0 -36z" />
    <glyph glyph-name="uni311B" unicode="&#x311b;" 
d="M138 153v-17q0 -8 3 -20q1 -5 2 -7q-1 -5 -10 -9h-4q-4 2 -12 2q-42 -3 -44 -46q3 -44 49 -47q32 -4 45 20q4 7 10 3q5 -5 2 -12q-17 -28 -57 -28q-62 5 -65 65q3 56 66 60v8q0 30 -4 45q-20 -2 -28 -3q-3 -1 -11 -2q-17 -3 -20 -3q-9 2 -19 16q-1 0 0 1t1 2q39 0 71 3
t60 9q3 0 6 1q10 3 15 3q10 -2 18 -14q6 -9 -4 -9h-5q-6 1 -13 2q-14 0 -58 -4q10 -6 10 -9t-3 -7q-1 -2 -1 -3z" />
    <glyph glyph-name="uni311C" unicode="&#x311c;" 
d="M125 103v8v25q-32 -4 -51 -8q-15 -2 -17 -2q-11 3 -17 15q0 4 5 5q33 -3 79 5q-1 15 -2 32q0 2 -4 13q-1 3 -1 4q-1 4 12 2q14 -5 16 -9q0 -3 -3 -6q-3 -4 -2 -6q0 -6 -1 -17v-11h2q11 1 27 4q3 0 11 1q8 2 11 2q21 -5 26 -19q-1 -5 -5 -5q-3 0 -9 1q-13 2 -26 2
q-15 0 -22 -1h-14q0 -25 4 -38l1 -3q-2 -10 -10 -11h-5q-9 1 -12 1q-38 -2 -39 -37q3 -40 47 -42q25 -1 36 11q5 8 9 3q3 -6 -2 -14q-17 -20 -46 -22q-56 7 -61 60q3 53 63 57z" />
    <glyph glyph-name="uni311D" unicode="&#x311d;" 
d="M107 103v-44q-3 -51 38 -47q10 0 21 2q4 0 6 1q12 -3 19 -15q2 -7 -27 -7q-48 0 -61 17q-15 16 -12 73v18q-2 -1 -5 -1q-3 -1 -4 -1q-11 -2 -23 -6q-5 -1 -7 -1q-16 6 -17 17q14 0 39 3q11 2 17 3v54q0 5 -3 14q-1 1 -1 4q0 5 3 6q19 -4 26 -13q0 -2 -1 -3v-1
q-1 -1 -2 -3q-7 -7 -6 -23v-33q33 6 48 8q3 21 3 41q-1 8 -4 24q0 4 3 5q13 -2 27 -11q1 -2 1 -4q0 -1 -3 -4q-4 -4 -4 -6q-2 -24 -6 -42q17 3 29 4q11 -2 18 -14q4 -9 -6 -10q-4 0 -15 2q-7 2 -8 2q-4 0 -11 -1h-11q-14 -49 -27 -74q-6 -4 -7 2q10 30 18 70q-32 -4 -45 -6z
" />
    <glyph glyph-name="uni311E" unicode="&#x311e;" 
d="M79 160l3 2q12 -7 18 -17q1 -2 -1 -5q-2 -2 -5 -4l-3 -2l-6 -10q-7 -14 -12 -22q-1 0 9 1q19 2 40 6q8 28 10 65q-34 -5 -52 -10q-8 -1 -9 -1q-17 5 -18 21h14q67 0 110 14q6 2 8 2q9 -3 18 -15q5 -8 -1 -10q-12 1 -29 2q-12 0 -18 -1h-12l4 -4q14 -9 14 -13q0 -2 -3 -4
q-6 -5 -7 -16q-2 -5 -4 -14q-3 -9 -4 -13q27 4 34 7q2 0 4 1q4 3 7 3q10 -5 24 -19q1 -2 1 -3q-1 -1 0 -1q0 -4 -4 -6q-5 -3 -6 -6q-13 -45 -50 -87q-13 -8 -16 -2q36 42 45 94q-1 10 -9 10q-6 0 -27 -3q-4 -1 -8 -1q-36 -85 -86 -106q-5 1 -3 6q43 29 69 96q-40 -6 -46 -9
q-4 -2 -10 -6q-5 -4 -6 -3q-10 4 -13 19q0 4 5 6q16 7 29 42q0 1 1 8q0 6 1 8z" />
    <glyph glyph-name="uni311F" unicode="&#x311f;" 
d="M38 177q0 3 8 3q62 5 74 13q1 0 2 1q3 3 5 3q20 -8 28 -17v-2q0 -2 -1 -3t-4 -3q-7 -5 -6 -8q-6 -89 65 -149q8 -7 9 -8q-3 -18 -27 -9q-63 52 -62 170q-1 11 -8 10q-28 -6 -48 -12q-16 -4 -18 -4q-14 6 -17 15z" />
    <glyph glyph-name="uni3120" unicode="&#x3120;" 
d="M76 95l55 -2q36 47 35 60q2 3 5 3q18 -14 22 -23q-1 -2 -3 -5q-2 -1 -7 -3q-6 -2 -6 -3q-59 -69 -97 -106q23 4 91 21q-2 2 -4 5q-4 9 -6 12q-7 9 -6 13q2 3 9 -1q43 -38 46 -56q-1 -11 -13 -13q-10 0 -13 11l-5 10q-2 5 -3 10q-91 -27 -108 -40q-2 -1 -5 -1q-4 0 -16 23
q-2 3 1 6q1 0 6 2q10 3 14 6q19 16 54 58q-10 -2 -17 -2q-24 -2 -43 -9q-9 3 -15 23q0 4 6 5q10 3 16 9q53 53 53 83q0 1 4 6q14 -7 23 -19q1 -4 -1 -5q-3 -3 -7 -5h-1q-3 -3 -5 -6q-39 -48 -59 -66q-3 -1 0 -1z" />
    <glyph glyph-name="uni3121" unicode="&#x3121;" 
d="M56 181h12q63 0 89 15q3 2 5 3q26 -14 26 -22q-1 -4 -4 -5q-1 -1 -3 -2q-1 -1 -2 -3q-11 -41 -30 -76q59 -61 60 -81q-3 -10 -11 -11q-9 0 -19 13v2q-19 30 -41 58q-27 -40 -66 -68q-1 -1 -2 -1q-16 -8 -21 -6q-3 3 0 3q43 28 77 87q-29 33 -49 54q-6 5 -6 8q1 5 7 3
q25 -18 57 -47q12 24 20 55q5 17 -14 13h-1q-57 -12 -70 -13q-11 4 -17 15q-3 5 3 6z" />
    <glyph glyph-name="uni3122" unicode="&#x3122;" 
d="M96 168h-1q-8 -2 -18 7q-11 12 -3 14h33q35 0 62 11q1 1 2 1q17 -5 30 -21q2 -4 -2 -7q-6 -3 -8 -5q-4 -5 -12 -19q-11 -18 -16 -25q-8 -5 -11 0q15 31 19 52l-1 1q-2 6 -3 5q-19 0 -54 -11q-5 -1 -9 -2q13 -14 14 -22q0 -4 -5 -8l-6 -6q-5 -8 -16 -22t-13 -18
q-1 -2 -3 -4q-3 -3 -3 -4q58 5 92 13q2 0 8 4q5 3 7 3q21 -11 28 -22v-2q1 0 -1 -2t-6 -4q-4 -3 -5 -5q-24 -53 -45 -74q-4 -4 -7 -3q-4 3 -2 7q21 36 28 66v3q5 14 -2 14q-63 -10 -82 -12q-6 -2 -14 -5l-4 -1q-10 1 -18 19q-1 2 5 5q3 1 5 3q34 40 37 76z" />
    <glyph glyph-name="uni3123" unicode="&#x3123;" 
d="M58 198q-2 1 3 4q17 -5 30 -15q2 -2 2 -4v-1q0 -2 -4 -6q-4 -3 -4 -5q-3 -6 -8 -60q-1 -11 -1 -14q3 0 11 1q77 8 85 14q1 0 3 2q4 3 7 3q14 -8 26 -19q1 -4 0 -7q-1 -1 -4 -3q-4 -3 -5 -4q-23 -82 -37 -93q-8 -3 -7 2q18 51 20 87q1 12 -11 11q-61 -2 -89 -13l-2 -2
q-2 -2 -4 -2q-12 2 -22 18q0 2 4 6q5 6 7 10v4q6 40 5 62q-1 4 -4 19q-1 4 -1 5z" />
    <glyph glyph-name="uni3124" unicode="&#x3124;" 
d="M139 83v-51q-2 -23 23 -20q15 0 30 5q6 2 9 2q12 -3 17 -15q-2 -7 -36 -8h-34q-26 1 -26 22v63q0 10 -5 21v3q-16 -79 -72 -114q-4 -1 -6 1t0 5q51 41 62 119q-18 -4 -38 -10l-3 -1q-7 1 -15 8q-6 6 -3 10q35 3 61 8q1 19 2 42l-3 18q-1 3 -1 5q0 4 3 5q1 -1 3 -1
q27 -7 25 -13q-1 -2 -3 -4q-3 -3 -3 -5q0 -9 -1 -20q-1 -9 -3 -24q23 4 46 10q7 2 9 2q13 -4 18 -16q2 -7 -13 -6q-24 1 -62 -5q0 -1 -1 -4v-4q23 -4 28 -11q0 -4 -4 -8t-4 -9z" />
    <glyph glyph-name="uni3125" unicode="&#x3125;" 
d="M152 194q-1 4 6 4q10 -7 25 -23q2 -4 -1 -7q-4 -1 -7 -4q-39 -63 -100 -146q52 1 102 8q5 1 6 1q28 -11 20 -27h-3q-32 7 -62 6q-55 -2 -66 -9q-3 -2 -4 -3q-5 -3 -7 0q-9 12 -11 21q-1 4 1 5q1 1 4 2q3 2 6 5q56 62 91 150v17z" />
    <glyph glyph-name="uni3126" unicode="&#x3126;" 
d="M79 169q-2 4 2 6q25 -7 29 -15v-3q-1 -2 -3 -5q-2 -2 -2 -3q4 -116 -60 -160q-4 -2 -7 1q-2 2 1 4q50 45 48 139q-1 19 -7 31q-1 3 -1 5zM153 158v-92q0 -49 38 -51q3 0 7 1q2 1 3 1q10 -2 18 -13q0 -9 -18 -10q-63 3 -64 72v99q-1 10 -6 19q-1 4 -1 6q-1 4 4 5
q17 -5 27 -17q0 -4 -1 -5q-7 -8 -7 -15z" />
    <glyph glyph-name="uni3127" unicode="&#x3127;" 
d="M137 175v-127v-14v-21q-1 -23 -10 -24q-8 7 -14 30q0 1 2 4q4 6 4 12v22q2 35 2 62v49q-2 19 -7 29q-1 5 -1 7q1 4 4 5q18 -6 26 -18v-2v-2q-6 -7 -6 -12z" />
    <glyph glyph-name="uni3128" unicode="&#x3128;" 
d="M48 -7q-4 0 -6 2q-1 2 2 4q45 35 80 87q-33 33 -71 66q-3 2 -2 3q1 2 5 3q32 -20 77 -57q32 54 33 97q-1 4 4 5q10 -5 25 -19q2 -2 0 -7q-1 -2 -3 -3q-4 -4 -5 -8q-12 -36 -39 -77q64 -57 66 -82q-1 -8 -10 -11q-8 -2 -13 5q-18 31 -55 72q-43 -55 -88 -80z" />
    <glyph glyph-name="uni3129" unicode="&#x3129;" 
d="M197 168v-24q1 -51 6 -96q3 -22 3 -25q-1 -19 -6 -25q-2 -2 -4 -2q-11 4 -15 20l-1 1t0 2l-10 -2q-51 -7 -77 -12q-13 -3 -20 -7q-4 -4 -7 -4q-9 3 -16 19q-1 4 3 7q4 2 6 5q16 38 18 123q0 19 -6 31q-1 2 -1 4q-1 6 4 6q28 -10 30 -20q0 -2 -2 -4q-3 -3 -4 -7
q-8 -91 -24 -134q33 0 96 4q6 0 10 1q-1 14 -1 32q1 81 -6 107q-2 7 -11 19q-1 5 3 7q26 -5 35 -13q1 -2 1 -3q0 -2 -2 -5q-3 -4 -2 -5z" />
    <glyph glyph-name="uni3220" unicode="&#x3220;" 
d="M36 206l6 -3q-34 -48 -34 -115q-1 -64 32 -109l-6 -4q-34 50 -34 113q0 70 36 118zM222 -25l-6 4q32 45 32 109q-1 68 -33 115l5 3q35 -46 36 -118q0 -65 -34 -113zM53 101h150v-22h-150v22z" />
    <glyph glyph-name="uni3221" unicode="&#x3221;" 
d="M36 206l6 -3q-34 -48 -34 -115q-1 -64 32 -109l-6 -4q-34 50 -34 113q0 70 36 118zM222 -25l-6 4q32 45 32 109q-1 68 -33 115l5 3q35 -46 36 -118q0 -65 -34 -113zM56 135v20h144v-20h-144zM53 47h150v-22h-150v22z" />
    <glyph glyph-name="uni3222" unicode="&#x3222;" 
d="M36 206l6 -3q-34 -48 -34 -115q-1 -64 32 -109l-6 -4q-34 50 -34 113q0 70 36 118zM222 -25l-6 4q32 45 32 109q-1 68 -33 115l5 3q35 -46 36 -118q0 -65 -34 -113zM57 160h143v-21h-143v21zM57 82v21h142v-21h-142zM54 20v23h148v-23h-148z" />
    <glyph glyph-name="uni3223" unicode="&#x3223;" 
d="M36 206l6 -3q-34 -48 -34 -115q-1 -64 32 -109l-6 -4q-34 50 -34 113q0 70 36 118zM222 -25l-6 4q32 45 32 109q-1 68 -33 115l5 3q35 -46 36 -118q0 -65 -34 -113zM56 17v146h144v-125q2 -24 -20 -21h-124zM97 79v63h-17v-69h12q5 -1 5 6zM134 70v72h-13v-70
q1 -21 -17 -19h-24v-14h89q5 -1 5 5v9h-22q-21 -3 -18 17zM175 74v68h-18v-62q-1 -7 6 -6h12z" />
    <glyph glyph-name="uni3224" unicode="&#x3224;" 
d="M36 206l6 -3q-34 -48 -34 -115q-1 -64 32 -109l-6 -4q-34 50 -34 113q0 70 36 118zM222 -25l-6 4q32 45 32 109q-1 68 -33 115l5 3q35 -46 36 -118q0 -65 -34 -113zM100 142h-46v21h148v-21h-77l-2 -26h74v-77h7v-22h-152v22h38l5 56h-39v21h42zM115 39h57v56h-51z" />
    <glyph glyph-name="uni3225" unicode="&#x3225;" 
d="M36 206l6 -3q-34 -48 -34 -115q-1 -64 32 -109l-6 -4q-34 50 -34 113q0 70 36 118zM222 -25l-6 4q32 45 32 109q-1 68 -33 115l5 3q35 -46 36 -118q0 -65 -34 -113zM115 153v13h26v-13h62v-20h-149v20h61zM76 122h24v-88q1 -22 -19 -20h-28v22h17q6 0 6 6v80zM156 32v90
h26v-81q-1 -6 6 -5h15v-22h-28q-21 -2 -19 18z" />
    <glyph glyph-name="uni3226" unicode="&#x3226;" 
d="M36 206l6 -3q-34 -48 -34 -115q-1 -64 32 -109l-6 -4q-34 50 -34 113q0 70 36 118zM222 -25l-6 4q32 45 32 109q-1 68 -33 115l5 3q35 -46 36 -118q0 -65 -34 -113zM77 143v22h25v-22h100v-20h-99v-82q0 -5 6 -5h91v-21h-104q-18 0 -18 19v89h-24v20h23z" />
    <glyph glyph-name="uni3227" unicode="&#x3227;" 
d="M36 206l6 -3q-34 -48 -34 -115q-1 -64 32 -109l-6 -4q-34 50 -34 113q0 70 36 118zM222 -25l-6 4q32 45 32 109q-1 68 -33 115l5 3q35 -46 36 -118q0 -65 -34 -113zM169 142h-107v22h133v-122q0 -5 3 -4h5v-22h-15q-21 -2 -19 23v103zM64 44v91h24v-96q-2 -22 -19 -23
h-16v22h5q6 -1 6 6z" />
    <glyph glyph-name="uni3228" unicode="&#x3228;" 
d="M36 206l6 -3q-34 -48 -34 -115q-1 -64 32 -109l-6 -4q-34 50 -34 113q0 70 36 118zM222 -25l-6 4q32 45 32 109q-1 68 -33 115l5 3q35 -46 36 -118q0 -65 -34 -113zM54 153h12v12h26v-12h101v-109q-1 -9 6 -8h3v-20h-12q-23 -1 -22 22v95h-76v-93q-1 -24 -24 -25h-14v20
h5q7 -1 7 8v90h-12v20z" />
    <glyph glyph-name="uni3229" unicode="&#x3229;" 
d="M36 206l6 -3q-34 -48 -34 -115q-1 -64 32 -109l-6 -4q-34 50 -34 113q0 70 36 118zM222 -25l-6 4q32 45 32 109q-1 68 -33 115l5 3q35 -46 36 -118q0 -65 -34 -113zM115 111v55h26v-55h62v-22h-62v-75h-26v75h-62v22h62z" />
    <glyph glyph-name="uni4E00" unicode="&#x4e00;" 
d="M15 111h230v-33h-230v33z" />
    <glyph glyph-name="uni4E01" unicode="&#x4e01;" 
d="M13 175v30h228v-32h-37v-166q-2 -26 -28 -29h-135v29h118q6 1 8 7v161h-154z" />
    <glyph glyph-name="uni4E03" unicode="&#x4e03;" 
d="M57 173v34h39v-34h152v-31h-151v-125q0 -9 9 -9h139v-31h-159q-27 2 -28 29v136h-36v31h35z" />
    <glyph glyph-name="uni4E07" unicode="&#x4e07;" 
d="M23 206h221v-33h-158l-2 -34h160v-134q1 -25 -19 -24h-78v31h51q9 -2 9 12v83h-125l-9 -107q-1 -19 -17 -19h-34v29h11q7 -2 8 9l11 154h-29v33z" />
    <glyph glyph-name="uni4E08" unicode="&#x4e08;" 
d="M17 182h154l12 23h40l-10 -24h30v-29h-45l-46 -83l32 -53q5 -15 22 -12h33v-27h-62q-19 0 -24 13l-24 40l-17 -35q-7 -17 -33 -17h-62v27h50q10 -2 15 12l26 45l-46 76h45l23 -37l28 51h-141v30z" />
    <glyph glyph-name="uni4E09" unicode="&#x4e09;" 
d="M22 204h218v-32h-218v32zM22 79v32h217v-32h-217zM16 -20v34h226v-34h-226z" />
    <glyph glyph-name="uni4E0A" unicode="&#x4e0a;" 
d="M83 9v198h38v-51h124v-32h-124v-115h124v-31h-229v31h67z" />
    <glyph glyph-name="uni4E0B" unicode="&#x4e0b;" 
d="M17 174v31h228v-31h-114v-196h-37v196h-77zM152 133h35l13 -55q1 -14 12 -12h21v-35h-42q-19 -3 -22 22z" />
    <glyph glyph-name="uni4E0C" unicode="&#x4e0c;" 
d="M40 168h-20v33h222v-33h-12v-190h-38v191h-114v-167q-1 -22 -26 -23h-32v29h15q4 -1 5 5v155z" />
    <glyph glyph-name="uni4E0D" unicode="&#x4e0d;" 
d="M249 204v-31h-125l-5 -19h37v-174h-38v143q-3 1 -7 0l-33 -116q-8 -30 -31 -28h-27v31h9q6 -1 9 9l44 154h-62v31h229zM193 17l-17 136l39 1l16 -117q3 -25 8 -26l8 -1v-30h-22q-27 1 -32 37z" />
    <glyph glyph-name="uni4E0E" unicode="&#x4e0e;" 
d="M16 115h8l7 90h34l-2 -13h181v-30h-183l-4 -47h185v-115q1 -21 -22 -20h-56v29h40q3 -1 3 4v72h-191v30zM19 51h176v-29h-176v29z" />
    <glyph glyph-name="uni4E10" unicode="&#x4e10;" 
d="M109 177h-92v27h223v-29h-95v-38h96v-28h-96v-40h95v-69q0 -25 -22 -25h-138v27h118q6 -1 6 7v31h-187v125h35v-96h57v108z" />
    <glyph glyph-name="uni4E11" unicode="&#x4e11;" 
d="M19 176v28h216l-13 -201h17v-26h-225v26h36l7 73h-42v28h45l6 72h-47zM197 176h-94l-6 -72h96zM191 76h-97l-7 -73h99z" />
    <glyph glyph-name="uni4E13" unicode="&#x4e13;" 
d="M18 193h42l4 12h36l-4 -12h145v-30h-154l-10 -29h165v-28h-174l-13 -34h186v-27l-34 -42h33v-26h-138q-11 0 -18 5l-65 43h54l30 -19q4 -4 10 -3h52l31 39h-179v24l15 40h-14v29h24l9 28h-33v30z" />
    <glyph glyph-name="uni4E14" unicode="&#x4e14;" 
d="M12 10h10v189h212v-188h9v-31h-231v30zM195 169h-133v-31h133v31zM62 75h133v31h-133v-31zM195 43h-133v-32h133v32z" />
    <glyph glyph-name="uni4E15" unicode="&#x4e15;" 
d="M44 71l47 100h-71v30h222v-30h-113l-8 -15h64l36 -83q2 -6 9 -5h11v-30h-24q-21 -1 -26 13l-40 91h-2v-139h91v-26h-221v26h93v126h-1l-38 -81q-7 -10 -23 -10h-31v30h18q6 -1 7 3z" />
    <glyph glyph-name="uni4E16" unicode="&#x4e16;" 
d="M27 145h-9v32h9v28h39v-29h19v29h38v-29h76v29h38v-29h9v-30h-9v-92q-1 -29 -30 -29h-123v121h-19v-130q-1 -8 7 -8h169v-30h-186q-31 -2 -28 31v136zM199 63v83h-76v-89h70q6 -1 6 6z" />
    <glyph glyph-name="uni4E18" unicode="&#x4e18;" 
d="M26 199h174q6 -1 6 6v5h34v-18q0 -21 -25 -20h-154v-26h179v-26h-21v-110h24v-28h-226v26h9v191zM184 120h-123v-111h123v111z" />
    <glyph glyph-name="uni4E19" unicode="&#x4e19;" 
d="M113 175h-95v31h224v-31h-93v-18h95v-159q-1 -22 -24 -23h-24v20h-26q-14 -1 -22 17l-19 42l-15 -36q-7 -17 -13 -19q-5 -4 -22 -4h-21v26h12q8 -8 25 36l18 45v25h-63v-150h-35v179h98v19zM199 1h4q6 0 6 8v117h-60v-29l26 -58q8 -20 14 -18h10v-20z" />
    <glyph glyph-name="uni4E1A" unicode="&#x4e1a;" 
d="M86 205h35v-196h20v196h35v-196h68v-31h-222v31h64v196zM204 77l8 117h32l-9 -128q-3 -29 -23 -27h-24v30h9q5 -1 7 8zM29 67l-7 126h32l6 -115q-1 -12 6 -10h7v-30h-25q-19 -2 -19 29z" />
    <glyph glyph-name="uni4E1B" unicode="&#x4e1b;" 
d="M24 53h6q5 -1 5 5l21 146h35l-3 -26h21l18 -120q0 -7 6 -5h7q4 -1 5 5l22 147h36l-4 -27h20l18 -121q1 -5 5 -4h7v-31h-26q-18 -2 -19 17l-12 91l-12 -86q-2 -24 -26 -22h-38q-21 -2 -23 22l-12 89l-11 -90q-2 -22 -22 -20h-24v30zM22 9h228v-31h-228v31z" />
    <glyph glyph-name="uni4E1C" unicode="&#x4e1c;" 
d="M61 198l5 7h42l-3 -7h142v-35h-157l-23 -44h53v31h38v-31h87v-35h-87v-85q2 -25 -19 -23h-45v27h22q3 -1 3 3v78h-98v31l26 48h-26v35h40zM44 7l25 62h38l-33 -80q-4 -13 -18 -12h-35v27h17q5 -1 6 3zM198 -11l-26 81h36l21 -61q2 -6 7 -5h12v-27h-32q-16 -1 -18 12z" />
    <glyph glyph-name="uni4E1D" unicode="&#x4e1d;" 
d="M134 139l44 66h39l-46 -70h20l17 26h41l-68 -104h68v-31h-112v30l36 50h-39v33zM11 141l44 63h39l-47 -70h19l19 26h40l-73 -103h74v-31h-113v33l34 46h-36v36zM13 5h237v-30h-237v30z" />
    <glyph glyph-name="uni4E1E" unicode="&#x4e1e;" 
d="M30 205h208v-23l-81 -51v-94q-1 -21 -25 -21h-42v29h27q6 -1 5 4v77h-76v30h77q9 -1 14 4l28 15h-135v30zM23 118h84v-30l-35 -62q-7 -12 -21 -12h-30v31h17q6 -1 7 3l25 41h-47v29zM23 6h224v-28h-224v28zM161 121h35l3 -7h4q2 0 4 4l10 30h30l-17 -45q-3 -12 -12 -11
h-13l15 -43q2 -5 6 -4h21v-31h-38q-20 -1 -24 18z" />
    <glyph glyph-name="uni4E22" unicode="&#x4e22;" 
d="M17 198h184q7 0 8 6v7h32v-21q-2 -20 -19 -20h-75v-24h97v-31h-97v-30h97v-31h-118l-44 -42h118q9 -1 9 11v20h34v-37q-3 -22 -27 -24h-199v26l53 45h-53v31h95v30h-95v31h95v25h-95v28z" />
    <glyph glyph-name="uni4E24" unicode="&#x4e24;" 
d="M20 171v31h222v-31h-63l-2 -22h66v-152q3 -23 -28 -21h-38v29h25q6 -1 6 5v15h-18q-15 -1 -15 13l-4 33l-4 -47q-2 -24 -26 -24h-67v28h53q5 0 7 5l2 20h-19q-13 -2 -14 16l-2 20h-1l-3 -34q0 -18 -17 -16h-22v-62h-35v172h50l1 22h-54zM106 171l-2 -22h39l2 22h-39z
M68 74l3 43h-13v-52h3q6 -1 7 9zM134 79h4l3 38h-39l-1 -14h25l3 -19q-1 -6 5 -5zM208 117h-34l-1 -15h24l3 -42q1 -8 6 -7h2v64z" />
    <glyph glyph-name="uni4E25" unicode="&#x4e25;" 
d="M14 172v31h228v-31h-67v-77h70v-32h-188v-65q-1 -20 -19 -21h-25v27h5q5 -2 5 5v86h66v77h-75zM121 95h22v77h-22v-77zM191 137h12q6 -2 7 5l4 18h31l-7 -34q-3 -17 -20 -15h-27v26zM73 139v-28h-27q-16 -2 -18 12l-12 36h33l5 -16q1 -5 7 -4h12z" />
    <glyph glyph-name="uni4E27" unicode="&#x4e27;" 
d="M109 198v9h38v-9h92v-31h-92v-67h92v-31h-95l16 -23h39q4 -1 5 3l2 13h30l-5 -29q0 -14 -19 -12h-36l9 -13q3 -3 9 -3h46v-29h-61q-15 0 -22 13l-54 80h-36v-61q0 -3 3 -3h35v-30h-55q-21 -1 -19 23v71h-11v31h89v67h-89v31h89zM165 140h25q4 -1 6 3l3 14h35l-8 -34
q-4 -11 -17 -9h-44v26zM32 124l-7 32h37l3 -13q1 -5 7 -4h20v-26h-43q-16 -2 -17 11z" />
    <glyph glyph-name="uni4E28" unicode="&#x4e28;" 
d="M112 198h34v-221h-34v221z" />
    <glyph glyph-name="uni4E2A" unicode="&#x4e2a;" 
d="M46 152l14 52h147l12 -51q0 -14 17 -12h12v-29h-34q-20 -2 -22 15l-12 42h-95l-12 -40q-4 -21 -19 -18h-35v31h12q13 -1 15 10zM150 -23h-42v172h42v-172z" />
    <glyph glyph-name="uni4E2B" unicode="&#x4e2b;" 
d="M87 96l-40 73q-2 5 -11 5h-19v30h30q19 1 28 -12l51 -96h-39zM110 60l81 129q10 14 28 13h20v-32h-8q-12 0 -16 -8l-68 -106v-78h-37v82z" />
    <glyph glyph-name="uni4E2C" unicode="&#x4e2c;" 
d="M110 204h33v-227h-33v227zM62 133l-6 66h32l5 -52q0 -6 4 -5h6v-28h-23q-19 -3 -18 19zM54 5h8q5 -2 6 5l4 75h31l-5 -87q-1 -17 -17 -18h-27v25z" />
    <glyph glyph-name="uni4E2D" unicode="&#x4e2d;" 
d="M24 185h91v18h40v-18h91v-161q1 -30 -26 -28h-66v-18h-37v17h-93v190zM116 152h-55v-126h55v126zM154 27h51q4 -1 4 6v119h-55v-125z" />
    <glyph glyph-name="uni4E30" unicode="&#x4e30;" 
d="M113 166h-92v33h92v8h43v-8h89v-33h-89v-45h90v-33h-90v-50h89v-33h-89v-26h-43v26h-92v33h92v50h-92v33h92v45z" />
    <glyph glyph-name="uni4E32" unicode="&#x4e32;" 
d="M149 208v-10h92v-60q0 -37 -33 -36h-59v-10h95v-70q1 -31 -35 -30h-60v-14h-38v14h-94v100h94v10h-90v96h90v10h38zM149 169v-37h43q10 0 10 6v3v28h-53zM59 169v-37h52v37h-52zM54 63v-42h57v42h-57zM149 63v-42h50q8 -1 8 8v34h-58z" />
    <glyph glyph-name="uni4E34" unicode="&#x4e34;" 
d="M62 -23v229h33v-229h-33zM101 179h18q7 -1 9 6l6 21h35l-3 -11h82v-28h-88l-2 -6q-4 -12 -19 -11h-38v29zM52 -11h-31v210h31v-210zM117 120l-14 24h40l2 -4q0 -5 12 -4h92v-29h-105q-22 -2 -27 13zM105 -22v122h143v-98q-2 -22 -25 -24h-118zM139 5h22v67h-22v-67z
M194 72v-67h16q5 -1 5 6v61h-21z" />
    <glyph glyph-name="uni4E36" unicode="&#x4e36;" 
d="M109 81l-11 49h39l8 -30q0 -5 7 -4h11v-29h-35q-17 -1 -19 14z" />
    <glyph glyph-name="uni4E38" unicode="&#x4e38;" 
d="M17 193h59l2 14h40l-2 -14h117v-184q-1 -5 4 -4h6v-27h-28q-23 0 -22 29v157h-81l-12 -76l18 -14q7 -6 16 -6q1 1 2 1h43v-34h-61q-9 -1 -16 5l-10 9l-10 -53q-2 -19 -24 -18h-43v27h26q7 -1 7 4l13 66l-45 41h51l7 48h-57v29z" />
    <glyph glyph-name="uni4E39" unicode="&#x4e39;" 
d="M18 62v29h16v109h202v-109h8v-29h-8v-55q2 -29 -32 -28h-67v27h53q11 0 11 9v47h-134v-47q3 -38 -31 -35h-18v26h8q7 -1 7 10v46h-15zM201 91v80h-133v-80h47v51h35v-51h51z" />
    <glyph glyph-name="uni4E3A" unicode="&#x4e3a;" 
d="M22 157v34h12l-6 16h36l6 -16h16l3 16h34l-3 -16h126v-191q2 -20 -18 -18h-69v30h45q7 -1 7 8v137h-96l-22 -157q-1 -21 -22 -19h-48v31h30q8 -1 9 8l19 137h-59zM135 58l-13 67h33l10 -48q2 -9 9 -8h16v-29h-34q-18 -2 -21 18z" />
    <glyph glyph-name="uni4E3B" unicode="&#x4e3b;" 
d="M15 189h92v13h41v-13h95v-30h-95v-58h93v-29h-93v-63h95v-31h-228v31h92v63h-90v29h90v58h-92v30z" />
    <glyph glyph-name="uni4E3D" unicode="&#x4e3d;" 
d="M21 174v30h221v-30h-221zM135 -24v187h107v-168q1 -20 -18 -19h-31v28h10q6 -1 6 6v33h-16q-19 -1 -19 15l-6 40v-122h-33zM195 110l6 -35q0 -6 5 -6h3v63h-41v-22h27zM20 -22v185h107v-167q1 -19 -18 -18h-35v25h14q7 -1 6 7v33h-16q-19 -1 -19 15l-6 40v-120h-33z
M80 110l6 -35q0 -6 5 -6h3v63h-41v-22h27z" />
    <glyph glyph-name="uni4E3E" unicode="&#x4e3e;" 
d="M153 192h33l5 12h43l-4 -12h14v-32h-50l13 -21q3 -8 12 -7h25v-30h-45q-13 -2 -19 13l-26 45h-54l-25 -46q-6 -14 -25 -12h-33v29h19q7 -1 11 5l13 24h-43v32h14l-4 12h44l4 -12h34l-4 12h43zM107 138h40v-49h97v-30h-97v-31h97v-28h-97v-24h-40v24h-91v28h91v31h-90v30
h90v49z" />
    <glyph glyph-name="uni4E3F" unicode="&#x4e3f;" 
d="M135 -25h-23v29h8q3 0 3 3v196h32v-210q0 -18 -20 -18z" />
    <glyph glyph-name="uni4E43" unicode="&#x4e43;" 
d="M49 180h-34v29h225v-31l-24 -56h24v-114q2 -31 -26 -30h-91v27h73q11 -2 10 11v78h-27v31l23 55h-116l-11 -166q-2 -38 -36 -36h-25v27h10q14 -2 14 13z" />
    <glyph glyph-name="uni4E45" unicode="&#x4e45;" 
d="M21 136h7q10 -2 18 11l43 59h45l-7 -10h104v-27l-71 -104l47 -49q11 -14 26 -12h14v-26h-39q-24 -1 -38 17l-33 35l-29 -41q-8 -11 -27 -11h-3h-58v28h42q14 -2 23 12l98 148h-75l-36 -49q-8 -14 -31 -13h-20v32z" />
    <glyph glyph-name="uni4E47" unicode="&#x4e47;" 
d="M22 189h180q5 -1 5 4v9h36v-24q1 -20 -27 -19h-79v-55h106v-31h-106v-59q0 -7 5 -7q1 1 2 1h98v-29h-116q-29 1 -29 25v69h-76v31h76v55h-75v30z" />
    <glyph glyph-name="uni4E48" unicode="&#x4e48;" 
d="M26 146h6q10 -1 19 7l44 50h45v-2l-66 -73q-13 -13 -32 -12h-16v30zM25 15l170 187h44v-2l-162 -179l1 -2h122q7 -1 7 8v35h35v-50q1 -27 -23 -26h-194v29z" />
    <glyph glyph-name="uni4E49" unicode="&#x4e49;" 
d="M112 167l-8 37h33l5 -22q0 -9 8 -7h19v-27h-34q-20 -1 -23 19zM111 59l-89 138h41l70 -108l72 108h42l-95 -140l28 -43q4 -9 14 -8h51v-27h-70q-12 0 -19 11l-26 38l-29 -41q-6 -10 -23 -10h-56v28h42q7 -1 13 7z" />
    <glyph glyph-name="uni4E4B" unicode="&#x4e4b;" 
d="M94 174l-27 31h50l6 -6q2 -3 8 -3q1 1 2 1h67v-29h-80q-23 -1 -26 6zM19 123v31h229v-24l-133 -105l25 -9q7 -3 20 -3h88v-31h-94q-17 0 -28 4l-43 14l-26 -17q-6 -4 -15 -4h-24v28h9q6 -1 11 4l144 112h-163z" />
    <glyph glyph-name="uni4E4C" unicode="&#x4e4c;" 
d="M26 199h78l3 10h49l-3 -10h88v-73q-1 -20 -20 -20h-102v29h79q7 -1 7 8v25h-140v-71q-1 -8 7 -7h175v-91q0 -19 -18 -19h-76v23h51q6 -1 6 7v49h-161q-25 -2 -23 24v116zM19 11v30h177v-30h-177z" />
    <glyph glyph-name="uni4E4D" unicode="&#x4e4d;" 
d="M17 134v34q22 -1 26 10l12 25h48l-3 -10h145v-29h-161v-53h162v-30h-162v-52h161v-28h-161v-26h-37v162q-5 -2 -10 -3q-6 -1 -15 0h-5z" />
    <glyph glyph-name="uni4E4E" unicode="&#x4e4e;" 
d="M208 201v5h34v-18q-1 -21 -23 -21h-61v-86h85v-27h-85v-46q1 -29 -27 -28h-97v28h78q9 -1 9 7v39h-105v27h105v86h-105v29h185q7 -1 7 5zM167 121h14q8 -1 9 5l13 30h41l-20 -49q-5 -16 -30 -15h-27v29zM39 109l-17 46h41l10 -24q4 -11 11 -10h25v-28h-47q-17 -1 -23 16z
" />
    <glyph glyph-name="uni4E4F" unicode="&#x4e4f;" 
d="M25 201h177q10 0 13 9h31v-15q0 -24 -28 -23h-193v29zM97 152l-6 13h41q4 -6 8 -5h33v-26h-53q-16 0 -23 18zM22 99v29h225v-26l-140 -86l8 -5q-2 -3 70 -2h62v-27h-91q-55 2 -67 8l-11 8l-18 -11h-2q-10 -6 -12 -6h-24v26h9q10 0 32 16l111 76h-152z" />
    <glyph glyph-name="uni4E50" unicode="&#x4e50;" 
d="M210 203v4h34v-24q1 -17 -17 -15h-68v-64h88v-31h-88v-75q2 -22 -21 -21h-49v27h27q6 0 6 5v64h-76q-25 -2 -22 21v105h181q5 -1 5 4zM66 104h56v64h-62v-58q-1 -7 6 -6zM201 -3l-23 61h36l16 -40q3 -10 9 -9h10v-26h-30q-13 0 -18 14zM25 9h12q8 -1 12 7l19 41h37
l-26 -60q-7 -14 -20 -14h-34v26z" />
    <glyph glyph-name="uni4E52" unicode="&#x4e52;" 
d="M26 77v119h176q6 -1 6 3v6h38v-20q-1 -17 -25 -16h-157v-21h180v-28h-23v-43h23v-29h-228v29h10zM64 120v-43h119v43h-119zM24 6h11q4 -1 6 4l8 29h39l-15 -46q-5 -14 -17 -13h-32v26z" />
    <glyph glyph-name="uni4E53" unicode="&#x4e53;" 
d="M211 205h35v-14q-2 -23 -28 -23h-151v-3v-17h176v-28h-23v-44h23v-28h-223v28h9v118h172q11 -2 10 11zM66 120v-44h118v44h-118zM188 -3l-16 42h41l9 -26q1 -8 11 -7h5v-27h-25q-19 1 -25 18z" />
    <glyph glyph-name="uni4E54" unicode="&#x4e54;" 
d="M210 198v6h33v-19q0 -20 -21 -19h-77v-20h98v-29h-82l26 -19q2 -3 8 -2h48v-27h-61q-10 -1 -14 4l-37 28l-34 -27q-7 -7 -23 -6h-59v27h46q6 -1 9 2l29 20h-84v29h95v20h-94v29h190q4 0 4 3zM239 62v-86h-37v86h37zM17 -26v26h8q3 0 3 2v59h37v-64q-1 -22 -21 -23h-27z
" />
    <glyph glyph-name="uni4E56" unicode="&#x4e56;" 
d="M16 164v31h184q7 -1 7 4v5h38v-20q-2 -19 -26 -20h-70v-12h91v-29h-91v-146h-38v146h-95v29h95v12h-95zM16 99h43v16h37v-97q0 -23 -25 -23h-56v28h41q3 -1 3 4v43h-43v29zM163 21v93h40v-14h40v-31h-42v-37q-1 -8 9 -7h33v-29h-57q-23 1 -23 25z" />
    <glyph glyph-name="uni4E58" unicode="&#x4e58;" 
d="M210 204v4h34v-17q3 -27 -23 -23h-75v-10h99v-30h-99v-151h-33v151h-97v29h97v10h-97v30h186q8 -1 8 7zM157 123h33v-9h56v-27h-56v-5q-1 -6 5 -5h50v-29h-65q-27 -4 -23 22v53zM17 86v27h49v9h35v-53q2 -25 -24 -22h-61v28h45q5 -1 5 5v6h-49zM55 -24h-39v28h23
q11 -1 14 7l16 31h38l-21 -47q-7 -21 -31 -19zM154 42h38l16 -29q3 -10 15 -8h21v-28h-33q-29 -3 -36 21z" />
    <glyph glyph-name="uni4E59" unicode="&#x4e59;" 
d="M16 171v33h228v-23l-195 -173h149q10 -2 9 9v34h37v-49q-1 -22 -32 -23h-199v46l166 146h-163z" />
    <glyph glyph-name="uni4E5C" unicode="&#x4e5c;" 
d="M31 163h-8v28h8v13h35v-13h174v-130q1 -26 -27 -24h-74v29h59q6 0 6 5v92h-138v-148q-1 -7 6 -6h171v-30h-185q-28 0 -27 27v157z" />
    <glyph glyph-name="uni4E5D" unicode="&#x4e5d;" 
d="M18 188h18v18h39v-18h156v-168q-1 -12 9 -11h5v-30h-19q-36 -1 -34 33v145h-117v-143q-2 -34 -35 -36h-23v30h8q11 -1 11 11v138h-18v31z" />
    <glyph glyph-name="uni4E5E" unicode="&#x4e5e;" 
d="M16 183h19q5 -1 8 5l14 20h39l-5 -9h152v-29h-166l-8 -9q-7 -8 -19 -7h-34v29zM17 146h226v-26l-160 -110h160v-27h-227v27l162 107h-161v29z" />
    <glyph glyph-name="uni4E5F" unicode="&#x4e5f;" 
d="M118 178v30h39v-27l83 8v-138q0 -19 -21 -18h-40v32h22q3 0 3 3v86l-46 -5v-123h-40v119l-52 -5v-129q0 -5 4 -4h175v-29h-199q-20 2 -20 22v137l-9 -1v33l9 1v35h40v-31z" />
    <glyph glyph-name="uni4E60" unicode="&#x4e60;" 
d="M21 199h221v-205q1 -22 -19 -21h-62v29h38q7 -1 7 8v160h-185v29zM46 106l-23 45h38l12 -21q3 -8 13 -7h69v-29h-85q-18 -1 -24 12zM67 11l44 61h42l-59 -83q-9 -14 -26 -13h-46v26h27q11 -2 18 9z" />
    <glyph glyph-name="uni4E61" unicode="&#x4e61;" 
d="M16 132v23l52 52h47l-44 -44h75l47 32h55l-164 -115h105l15 24h40l-65 -111q-11 -20 -26 -19h-136v31h119q6 -1 12 8l23 36h-155v27l84 56h-84z" />
    <glyph glyph-name="uni4E66" unicode="&#x4e66;" 
d="M20 190h56v14h37v-14h69v-95h58v-90q1 -27 -25 -26h-60v28h44q3 0 3 4v53h-89v-90h-37v90h-56v31h56v64h-56v31zM198 139l-5 65h33l4 -51q0 -9 7 -9h5v-29h-22q-22 -2 -22 24zM148 95v64h-35v-64h35z" />
    <glyph glyph-name="uni4E69" unicode="&#x4e69;" 
d="M158 204h37v-188q-1 -8 7 -7h39v-28h-57q-29 -2 -26 25v198zM45 108v95h37v-20h63v-29h-63v-46h61v-108q1 -20 -22 -20h-101v128h25zM109 11v67h-54v-70h51q3 0 3 3z" />
    <glyph glyph-name="uni4E70" unicode="&#x4e70;" 
d="M241 202v-88h-33v59h-193v29h226zM34 133l-17 30h44l6 -10q2 -3 8 -3h56v-26h-79q-13 -1 -18 9zM151 62v98h38v-98h52v-30h-49l16 -24q2 -5 8 -4h26v-25h-48q-8 0 -12 7l-22 34l-61 -37q-10 -5 -19 -5h-67v25h48q7 0 12 3l43 26h-102v30h137zM40 83l-21 33h41l8 -12
q3 -6 10 -5h53v-25h-76q-10 -2 -15 9z" />
    <glyph glyph-name="uni4E71" unicode="&#x4e71;" 
d="M119 199v7h32v-24q1 -19 -15 -17h-33v-32h49v-28h-49v-25h48v-85q-1 -18 -20 -19h-106v104h45v25h-49v28h49v32h-49v29h92q6 -1 6 5zM164 206h35v-195q-1 -8 6 -6h39v-27h-62q-20 -1 -18 21v207zM117 51h-58v-47h51q7 -1 7 6v41z" />
    <glyph glyph-name="uni4E73" unicode="&#x4e73;" 
d="M24 164v29h98q5 -1 5 6v5h34v-22q2 -21 -17 -18h-120zM173 202h34v-193q0 -6 6 -6h32v-28h-46q-31 -4 -26 25v202zM17 118v28h8q6 -1 6 4v5h30v-22q2 -18 -16 -15h-28zM108 118h-23q-20 -3 -17 19v18h31v-6q-1 -6 4 -5h5v-26zM116 133v22h30v-5q-1 -5 6 -4h10v-28h-32
q-16 -2 -14 15zM24 78v28h136v-25l-12 -21h17v-29h-19v-31q3 -26 -26 -23h-92v26h75q8 -1 7 7v22h-91v28h91l10 18h-96z" />
    <glyph glyph-name="uni4E7E" unicode="&#x4e7e;" 
d="M17 193h35v10h36v-10h41v-12h5q5 -1 10 11l3 10h35l-2 -9h63v-30h-76q-8 -11 -15 -10h-24v11h-39v-9h37v-108q0 -29 -26 -28h-11v-7h39v-27h-39v-9h-38v9h-36v27h36v7h-35v136h36v9h-35v29zM130 115v30h113v-32l-67 -105q-3 -4 -2 -5q0 -2 5 -1h63v-26h-110v27l70 112
h-72zM92 103v22h-44v-22h44zM48 50h37q7 0 7 6v17h-44v-23z" />
    <glyph glyph-name="uni4E86" unicode="&#x4e86;" 
d="M193 176h-176v31h228v-27l-38 -45v-128q1 -30 -31 -29h-137v30h120q9 -1 9 11v89h-89v31h81z" />
    </font>
</defs>
</svg>
